<svg xmlns:xlink="http://www.w3.org/1999/xlink" version="1.1" class="highcharts-root" style="font-family: Lucida Sans Unicode; font-size: 1rem;" xmlns="http://www.w3.org/2000/svg" width="1024" height="576" viewBox="0 0 1024 576" role="img" aria-label="Gesamte Nettostromerzeugung in Deutschland 2024"><desc>Created with Highcharts 11.2.0</desc><defs><filter id="highcharts-drop-shadow-9"><feDropShadow dx="1" dy="1" flood-color="#000000" flood-opacity="0.75" stdDeviation="2.5"></feDropShadow></filter><clipPath id="highcharts-kpywg4a-1543-"><rect x="0" y="0" width="923" height="388" fill="none"></rect></clipPath><clipPath id="highcharts-kpywg4a-1556-"><rect x="0" y="0" width="923" height="388" fill="none"></rect></clipPath></defs><rect fill="white" class="highcharts-background" filter="none" x="0" y="0" width="1024" height="576" rx="0" ry="0"></rect><rect fill="none" class="highcharts-plot-background" x="91" y="67" width="923" height="388" filter="none"></rect><g class="highcharts-pane-group" data-z-index="0"></g><g class="highcharts-grid highcharts-xaxis-grid" data-z-index="1"><path fill="none" stroke="#e6e6e6" stroke-width="0" stroke-dasharray="none" data-z-index="1" class="highcharts-grid-line" d="M 128.5 67 L 128.5 455" opacity="1"></path><path fill="none" stroke="#e6e6e6" stroke-width="0" stroke-dasharray="none" data-z-index="1" class="highcharts-grid-line" d="M 282.5 67 L 282.5 455" opacity="1"></path><path fill="none" stroke="#e6e6e6" stroke-width="0" stroke-dasharray="none" data-z-index="1" class="highcharts-grid-line" d="M 436.5 67 L 436.5 455" opacity="1"></path><path fill="none" stroke="#e6e6e6" stroke-width="0" stroke-dasharray="none" data-z-index="1" class="highcharts-grid-line" d="M 590.5 67 L 590.5 455" opacity="1"></path><path fill="none" stroke="#e6e6e6" stroke-width="0" stroke-dasharray="none" data-z-index="1" class="highcharts-grid-line" d="M 744.5 67 L 744.5 455" opacity="1"></path><path fill="none" stroke="#e6e6e6" stroke-width="0" stroke-dasharray="none" data-z-index="1" class="highcharts-grid-line" d="M 898.5 67 L 898.5 455" opacity="1"></path></g><g class="highcharts-grid highcharts-yaxis-grid" data-z-index="1"><path fill="none" stroke="#e6e6e6" stroke-width="1" stroke-dasharray="none" data-z-index="1" class="highcharts-grid-line" d="M 91 455.5 L 1014 455.5" opacity="1"></path><path fill="none" stroke="#e6e6e6" stroke-width="1" stroke-dasharray="none" data-z-index="1" class="highcharts-grid-line" d="M 91 390.5 L 1014 390.5" opacity="1"></path><path fill="none" stroke="#e6e6e6" stroke-width="1" stroke-dasharray="none" data-z-index="1" class="highcharts-grid-line" d="M 91 326.5 L 1014 326.5" opacity="1"></path><path fill="none" stroke="#e6e6e6" stroke-width="1" stroke-dasharray="none" data-z-index="1" class="highcharts-grid-line" d="M 91 261.5 L 1014 261.5" opacity="1"></path><path fill="none" stroke="#e6e6e6" stroke-width="1" stroke-dasharray="none" data-z-index="1" class="highcharts-grid-line" d="M 91 196.5 L 1014 196.5" opacity="1"></path><path fill="none" stroke="#e6e6e6" stroke-width="1" stroke-dasharray="none" data-z-index="1" class="highcharts-grid-line" d="M 91 132.5 L 1014 132.5" opacity="1"></path><path fill="none" stroke="#e6e6e6" stroke-width="1" stroke-dasharray="none" data-z-index="1" class="highcharts-grid-line" d="M 91 66.5 L 1014 66.5" opacity="1"></path></g><rect fill="none" class="highcharts-plot-border" data-z-index="1" stroke="#cccccc" stroke-width="0" x="91" y="67" width="923" height="388"></rect><g class="highcharts-axis highcharts-xaxis" data-z-index="2"><text x="552.5" data-z-index="7" text-anchor="middle" transform="translate(0,0)" class="highcharts-axis-title" style="color: rgb(102, 102, 102); font-size: 0.8em; fill: rgb(102, 102, 102);" y="503">Monat</text><path fill="none" class="highcharts-axis-line" stroke="#333333" stroke-width="1" data-z-index="7" d="M 91 455.5 L 1014 455.5"></path></g><g class="highcharts-axis highcharts-yaxis" data-z-index="2"><text x="25.03333282470703" data-z-index="7" text-anchor="middle" transform="translate(0,0) rotate(270 25.03333282470703 261)" class="highcharts-axis-title" style="color: rgb(102, 102, 102); font-size: 0.8em; font-weight: bold; fill: rgb(102, 102, 102);" y="261">Energie (GWh)</text><path fill="none" class="highcharts-axis-line" stroke="#333333" stroke-width="0" data-z-index="7" d="M 91 67 L 91 455"></path></g><g class="highcharts-series-group" data-z-index="3" filter="none"><g class="highcharts-series highcharts-series-0 highcharts-column-series" visibility="hidden" data-z-index="0.1" opacity="1" transform="translate(91,67) scale(1 1)" clip-path="url(#highcharts-kpywg4a-1556-)"></g><g class="highcharts-markers highcharts-series-0 highcharts-column-series" visibility="hidden" data-z-index="0.1" opacity="1" transform="translate(91,67) scale(1 1)" clip-path="none"></g><g class="highcharts-series highcharts-series-1 highcharts-column-series" visibility="hidden" data-z-index="0.1" opacity="1" transform="translate(91,67) scale(1 1)" clip-path="url(#highcharts-kpywg4a-1556-)"></g><g class="highcharts-markers highcharts-series-1 highcharts-column-series" visibility="hidden" data-z-index="0.1" opacity="1" transform="translate(91,67) scale(1 1)" clip-path="none"></g><g class="highcharts-series highcharts-series-2 highcharts-column-series" data-z-index="0.1" opacity="1" transform="translate(91,67) scale(1 1)" clip-path="url(#highcharts-kpywg4a-1556-)"><path fill="rgb(0,0,200)" d="M 7 366 L 71 366 A 0 0 0 0 1 71 366 L 71 389 A 0 0 0 0 1 71 389 L 7 389 A 0 0 0 0 1 7 389 L 7 366 A 0 0 0 0 1 7 366 Z" stroke="#ffffff" stroke-width="0" opacity="1" filter="none" class="highcharts-point"></path><path fill="rgb(0,0,200)" d="M 84 368 L 148 368 A 0 0 0 0 1 148 368 L 148 389 A 0 0 0 0 1 148 389 L 84 389 A 0 0 0 0 1 84 389 L 84 368 A 0 0 0 0 1 84 368 Z" stroke="#ffffff" stroke-width="0" opacity="1" filter="none" class="highcharts-point"></path><path fill="rgb(0,0,200)" d="M 160 367 L 224 367 A 0 0 0 0 1 224 367 L 224 389 A 0 0 0 0 1 224 389 L 160 389 A 0 0 0 0 1 160 389 L 160 367 A 0 0 0 0 1 160 367 Z" stroke="#ffffff" stroke-width="0" opacity="1" filter="none" class="highcharts-point"></path><path fill="rgb(0,0,200)" d="M 237 367 L 301 367 A 0 0 0 0 1 301 367 L 301 389 A 0 0 0 0 1 301 389 L 237 389 A 0 0 0 0 1 237 389 L 237 367 A 0 0 0 0 1 237 367 Z" stroke="#ffffff" stroke-width="0" opacity="1" filter="none" class="highcharts-point"></path><path fill="rgb(0,0,200)" d="M 314 364 L 378 364 A 0 0 0 0 1 378 364 L 378 389 A 0 0 0 0 1 378 389 L 314 389 A 0 0 0 0 1 314 389 L 314 364 A 0 0 0 0 1 314 364 Z" stroke="#ffffff" stroke-width="0" opacity="1" filter="none" class="highcharts-point"></path><path fill="rgb(0,0,200)" d="M 391 366 L 455 366 A 0 0 0 0 1 455 366 L 455 389 A 0 0 0 0 1 455 389 L 391 389 A 0 0 0 0 1 391 389 L 391 366 A 0 0 0 0 1 391 366 Z" stroke="#ffffff" stroke-width="0" opacity="1" filter="none" class="highcharts-point"></path><path fill="rgb(0,0,200)" d="M 468 364 L 532 364 A 0 0 0 0 1 532 364 L 532 389 A 0 0 0 0 1 532 389 L 468 389 A 0 0 0 0 1 468 389 L 468 364 A 0 0 0 0 1 468 364 Z" stroke="#ffffff" stroke-width="0" opacity="1" filter="none" class="highcharts-point"></path><path fill="rgb(0,0,200)" d="M 545 367 L 609 367 A 0 0 0 0 1 609 367 L 609 389 A 0 0 0 0 1 609 389 L 545 389 A 0 0 0 0 1 545 389 L 545 367 A 0 0 0 0 1 545 367 Z" stroke="#ffffff" stroke-width="0" opacity="1" filter="none" class="highcharts-point"></path><path fill="rgb(0,0,200)" d="M 622 368 L 686 368 A 0 0 0 0 1 686 368 L 686 389 A 0 0 0 0 1 686 389 L 622 389 A 0 0 0 0 1 622 389 L 622 368 A 0 0 0 0 1 622 368 Z" stroke="#ffffff" stroke-width="0" opacity="1" filter="none" class="highcharts-point"></path><path fill="rgb(0,0,200)" d="M 699 366 L 763 366 A 0 0 0 0 1 763 366 L 763 389 A 0 0 0 0 1 763 389 L 699 389 A 0 0 0 0 1 699 389 L 699 366 A 0 0 0 0 1 699 366 Z" stroke="#ffffff" stroke-width="0" opacity="1" filter="none" class="highcharts-point"></path><path fill="rgb(0,0,200)" d="M 776 372 L 840 372 A 0 0 0 0 1 840 372 L 840 389 A 0 0 0 0 1 840 389 L 776 389 A 0 0 0 0 1 776 389 L 776 372 A 0 0 0 0 1 776 372 Z" stroke="#ffffff" stroke-width="0" opacity="1" filter="none" class="highcharts-point"></path><path fill="rgb(0,0,200)" d="M 853 370 L 917 370 A 0 0 0 0 1 917 370 L 917 389 A 0 0 0 0 1 917 389 L 853 389 A 0 0 0 0 1 853 389 L 853 370 A 0 0 0 0 1 853 370 Z" stroke="#ffffff" stroke-width="0" opacity="1" filter="none" class="highcharts-point"></path></g><g class="highcharts-markers highcharts-series-2 highcharts-column-series" data-z-index="0.1" opacity="1" transform="translate(91,67) scale(1 1)" clip-path="none"></g><g class="highcharts-series highcharts-series-3 highcharts-column-series" data-z-index="0.1" opacity="1" transform="translate(91,67) scale(1 1)" clip-path="url(#highcharts-kpywg4a-1556-)"><path fill="rgb(0,150,50)" d="M 7 319 L 71 319 A 0 0 0 0 1 71 319 L 71 366 A 0 0 0 0 1 71 366 L 7 366 A 0 0 0 0 1 7 366 L 7 319 A 0 0 0 0 1 7 319 Z" stroke="#ffffff" stroke-width="0" opacity="1" filter="none" class="highcharts-point"></path><path fill="rgb(0,150,50)" d="M 84 323 L 148 323 A 0 0 0 0 1 148 323 L 148 368 A 0 0 0 0 1 148 368 L 84 368 A 0 0 0 0 1 84 368 L 84 323 A 0 0 0 0 1 84 323 Z" stroke="#ffffff" stroke-width="0" opacity="1" filter="none" class="highcharts-point"></path><path fill="rgb(0,150,50)" d="M 160 318 L 224 318 A 0 0 0 0 1 224 318 L 224 367 A 0 0 0 0 1 224 367 L 160 367 A 0 0 0 0 1 160 367 L 160 318 A 0 0 0 0 1 160 318 Z" stroke="#ffffff" stroke-width="0" opacity="1" filter="none" class="highcharts-point"></path><path fill="rgb(0,150,50)" d="M 237 322 L 301 322 A 0 0 0 0 1 301 322 L 301 367 A 0 0 0 0 1 301 367 L 237 367 A 0 0 0 0 1 237 367 L 237 322 A 0 0 0 0 1 237 322 Z" stroke="#ffffff" stroke-width="0" opacity="1" filter="none" class="highcharts-point"></path><path fill="rgb(0,150,50)" d="M 314 319 L 378 319 A 0 0 0 0 1 378 319 L 378 364 A 0 0 0 0 1 378 364 L 314 364 A 0 0 0 0 1 314 364 L 314 319 A 0 0 0 0 1 314 319 Z" stroke="#ffffff" stroke-width="0" opacity="1" filter="none" class="highcharts-point"></path><path fill="rgb(0,150,50)" d="M 391 324 L 455 324 A 0 0 0 0 1 455 324 L 455 366 A 0 0 0 0 1 455 366 L 391 366 A 0 0 0 0 1 391 366 L 391 324 A 0 0 0 0 1 391 324 Z" stroke="#ffffff" stroke-width="0" opacity="1" filter="none" class="highcharts-point"></path><path fill="rgb(0,150,50)" d="M 468 322 L 532 322 A 0 0 0 0 1 532 322 L 532 364 A 0 0 0 0 1 532 364 L 468 364 A 0 0 0 0 1 468 364 L 468 322 A 0 0 0 0 1 468 322 Z" stroke="#ffffff" stroke-width="0" opacity="1" filter="none" class="highcharts-point"></path><path fill="rgb(0,150,50)" d="M 545 326 L 609 326 A 0 0 0 0 1 609 326 L 609 367 A 0 0 0 0 1 609 367 L 545 367 A 0 0 0 0 1 545 367 L 545 326 A 0 0 0 0 1 545 326 Z" stroke="#ffffff" stroke-width="0" opacity="1" filter="none" class="highcharts-point"></path><path fill="rgb(0,150,50)" d="M 622 328 L 686 328 A 0 0 0 0 1 686 328 L 686 368 A 0 0 0 0 1 686 368 L 622 368 A 0 0 0 0 1 622 368 L 622 328 A 0 0 0 0 1 622 328 Z" stroke="#ffffff" stroke-width="0" opacity="1" filter="none" class="highcharts-point"></path><path fill="rgb(0,150,50)" d="M 699 321 L 763 321 A 0 0 0 0 1 763 321 L 763 366 A 0 0 0 0 1 763 366 L 699 366 A 0 0 0 0 1 699 366 L 699 321 A 0 0 0 0 1 699 321 Z" stroke="#ffffff" stroke-width="0" opacity="1" filter="none" class="highcharts-point"></path><path fill="rgb(0,150,50)" d="M 776 326 L 840 326 A 0 0 0 0 1 840 326 L 840 372 A 0 0 0 0 1 840 372 L 776 372 A 0 0 0 0 1 776 372 L 776 326 A 0 0 0 0 1 776 326 Z" stroke="#ffffff" stroke-width="0" opacity="1" filter="none" class="highcharts-point"></path><path fill="rgb(0,150,50)" d="M 853 322 L 917 322 A 0 0 0 0 1 917 322 L 917 370 A 0 0 0 0 1 917 370 L 853 370 A 0 0 0 0 1 853 370 L 853 322 A 0 0 0 0 1 853 322 Z" stroke="#ffffff" stroke-width="0" opacity="1" filter="none" class="highcharts-point"></path></g><g class="highcharts-markers highcharts-series-3 highcharts-column-series" data-z-index="0.1" opacity="1" transform="translate(91,67) scale(1 1)" clip-path="none"></g><g class="highcharts-series highcharts-series-4 highcharts-column-series" visibility="hidden" data-z-index="0.1" opacity="1" transform="translate(91,67) scale(1 1)" clip-path="url(#highcharts-kpywg4a-1556-)"></g><g class="highcharts-markers highcharts-series-4 highcharts-column-series" visibility="hidden" data-z-index="0.1" opacity="1" transform="translate(91,67) scale(1 1)" clip-path="none"></g><g class="highcharts-series highcharts-series-5 highcharts-column-series" visibility="hidden" data-z-index="0.1" opacity="1" transform="translate(91,67) scale(1 1)" clip-path="url(#highcharts-kpywg4a-1556-)"></g><g class="highcharts-markers highcharts-series-5 highcharts-column-series" visibility="hidden" data-z-index="0.1" opacity="1" transform="translate(91,67) scale(1 1)" clip-path="none"></g><g class="highcharts-series highcharts-series-6 highcharts-column-series" visibility="hidden" data-z-index="0.1" opacity="1" transform="translate(91,67) scale(1 1)" clip-path="url(#highcharts-kpywg4a-1556-)"></g><g class="highcharts-markers highcharts-series-6 highcharts-column-series" visibility="hidden" data-z-index="0.1" opacity="1" transform="translate(91,67) scale(1 1)" clip-path="none"></g><g class="highcharts-series highcharts-series-7 highcharts-column-series" visibility="hidden" data-z-index="0.1" opacity="1" transform="translate(91,67) scale(1 1)" clip-path="url(#highcharts-kpywg4a-1556-)"></g><g class="highcharts-markers highcharts-series-7 highcharts-column-series" visibility="hidden" data-z-index="0.1" opacity="1" transform="translate(91,67) scale(1 1)" clip-path="none"></g><g class="highcharts-series highcharts-series-8 highcharts-column-series" visibility="hidden" data-z-index="0.1" opacity="1" transform="translate(91,67) scale(1 1)" clip-path="url(#highcharts-kpywg4a-1556-)"></g><g class="highcharts-markers highcharts-series-8 highcharts-column-series" visibility="hidden" data-z-index="0.1" opacity="1" transform="translate(91,67) scale(1 1)" clip-path="none"></g><g class="highcharts-series highcharts-series-9 highcharts-column-series" data-z-index="0.1" opacity="1" transform="translate(91,67) scale(1 1)" clip-path="url(#highcharts-kpywg4a-1556-)"><path fill="rgb(50,50,150)" d="M 7 319 L 71 319 A 0 0 0 0 1 71 319 L 71 319 A 0 0 0 0 1 71 319 L 7 319 A 0 0 0 0 1 7 319 L 7 319 A 0 0 0 0 1 7 319 Z" stroke="#ffffff" stroke-width="0" opacity="1" filter="none" class="highcharts-point"></path><path fill="rgb(50,50,150)" d="M 84 323 L 148 323 A 0 0 0 0 1 148 323 L 148 323 A 0 0 0 0 1 148 323 L 84 323 A 0 0 0 0 1 84 323 L 84 323 A 0 0 0 0 1 84 323 Z" stroke="#ffffff" stroke-width="0" opacity="1" filter="none" class="highcharts-point"></path><path fill="rgb(50,50,150)" d="M 160 318 L 224 318 A 0 0 0 0 1 224 318 L 224 318 A 0 0 0 0 1 224 318 L 160 318 A 0 0 0 0 1 160 318 L 160 318 A 0 0 0 0 1 160 318 Z" stroke="#ffffff" stroke-width="0" opacity="1" filter="none" class="highcharts-point"></path><path fill="rgb(50,50,150)" d="M 237 322 L 301 322 A 0 0 0 0 1 301 322 L 301 322 A 0 0 0 0 1 301 322 L 237 322 A 0 0 0 0 1 237 322 L 237 322 A 0 0 0 0 1 237 322 Z" stroke="#ffffff" stroke-width="0" opacity="1" filter="none" class="highcharts-point"></path><path fill="rgb(50,50,150)" d="M 314 319 L 378 319 A 0 0 0 0 1 378 319 L 378 319 A 0 0 0 0 1 378 319 L 314 319 A 0 0 0 0 1 314 319 L 314 319 A 0 0 0 0 1 314 319 Z" stroke="#ffffff" stroke-width="0" opacity="1" filter="none" class="highcharts-point"></path><path fill="rgb(50,50,150)" d="M 391 323 L 455 323 A 0 0 0 0 1 455 323 L 455 324 A 0 0 0 0 1 455 324 L 391 324 A 0 0 0 0 1 391 324 L 391 323 A 0 0 0 0 1 391 323 Z" stroke="#ffffff" stroke-width="0" opacity="1" filter="none" class="highcharts-point"></path><path fill="rgb(50,50,150)" d="M 468 322 L 532 322 A 0 0 0 0 1 532 322 L 532 322 A 0 0 0 0 1 532 322 L 468 322 A 0 0 0 0 1 468 322 L 468 322 A 0 0 0 0 1 468 322 Z" stroke="#ffffff" stroke-width="0" opacity="1" filter="none" class="highcharts-point"></path><path fill="rgb(50,50,150)" d="M 545 326 L 609 326 A 0 0 0 0 1 609 326 L 609 326 A 0 0 0 0 1 609 326 L 545 326 A 0 0 0 0 1 545 326 L 545 326 A 0 0 0 0 1 545 326 Z" stroke="#ffffff" stroke-width="0" opacity="1" filter="none" class="highcharts-point"></path><path fill="rgb(50,50,150)" d="M 622 327 L 686 327 A 0 0 0 0 1 686 327 L 686 328 A 0 0 0 0 1 686 328 L 622 328 A 0 0 0 0 1 622 328 L 622 327 A 0 0 0 0 1 622 327 Z" stroke="#ffffff" stroke-width="0" opacity="1" filter="none" class="highcharts-point"></path><path fill="rgb(50,50,150)" d="M 699 320 L 763 320 A 0 0 0 0 1 763 320 L 763 321 A 0 0 0 0 1 763 321 L 699 321 A 0 0 0 0 1 699 321 L 699 320 A 0 0 0 0 1 699 320 Z" stroke="#ffffff" stroke-width="0" opacity="1" filter="none" class="highcharts-point"></path><path fill="rgb(50,50,150)" d="M 776 326 L 840 326 A 0 0 0 0 1 840 326 L 840 326 A 0 0 0 0 1 840 326 L 776 326 A 0 0 0 0 1 776 326 L 776 326 A 0 0 0 0 1 776 326 Z" stroke="#ffffff" stroke-width="0" opacity="1" filter="none" class="highcharts-point"></path><path fill="rgb(50,50,150)" d="M 853 322 L 917 322 A 0 0 0 0 1 917 322 L 917 322 A 0 0 0 0 1 917 322 L 853 322 A 0 0 0 0 1 853 322 L 853 322 A 0 0 0 0 1 853 322 Z" stroke="#ffffff" stroke-width="0" opacity="1" filter="none" class="highcharts-point"></path></g><g class="highcharts-markers highcharts-series-9 highcharts-column-series" data-z-index="0.1" opacity="1" transform="translate(91,67) scale(1 1)" clip-path="none"></g><g class="highcharts-series highcharts-series-10 highcharts-column-series" data-z-index="0.1" opacity="1" transform="translate(91,67) scale(1 1)" clip-path="url(#highcharts-kpywg4a-1556-)"><path fill="rgb(175,200,255)" d="M 7 317 L 71 317 A 0 0 0 0 1 71 317 L 71 319 A 0 0 0 0 1 71 319 L 7 319 A 0 0 0 0 1 7 319 L 7 317 A 0 0 0 0 1 7 317 Z" stroke="#ffffff" stroke-width="0" opacity="1" filter="none" class="highcharts-point"></path><path fill="rgb(175,200,255)" d="M 84 321 L 148 321 A 0 0 0 0 1 148 321 L 148 323 A 0 0 0 0 1 148 323 L 84 323 A 0 0 0 0 1 84 323 L 84 321 A 0 0 0 0 1 84 321 Z" stroke="#ffffff" stroke-width="0" opacity="1" filter="none" class="highcharts-point"></path><path fill="rgb(175,200,255)" d="M 160 317 L 224 317 A 0 0 0 0 1 224 317 L 224 318 A 0 0 0 0 1 224 318 L 160 318 A 0 0 0 0 1 160 318 L 160 317 A 0 0 0 0 1 160 317 Z" stroke="#ffffff" stroke-width="0" opacity="1" filter="none" class="highcharts-point"></path><path fill="rgb(175,200,255)" d="M 237 321 L 301 321 A 0 0 0 0 1 301 321 L 301 322 A 0 0 0 0 1 301 322 L 237 322 A 0 0 0 0 1 237 322 L 237 321 A 0 0 0 0 1 237 321 Z" stroke="#ffffff" stroke-width="0" opacity="1" filter="none" class="highcharts-point"></path><path fill="rgb(175,200,255)" d="M 314 316 L 378 316 A 0 0 0 0 1 378 316 L 378 319 A 0 0 0 0 1 378 319 L 314 319 A 0 0 0 0 1 314 319 L 314 316 A 0 0 0 0 1 314 316 Z" stroke="#ffffff" stroke-width="0" opacity="1" filter="none" class="highcharts-point"></path><path fill="rgb(175,200,255)" d="M 391 320 L 455 320 A 0 0 0 0 1 455 320 L 455 323 A 0 0 0 0 1 455 323 L 391 323 A 0 0 0 0 1 391 323 L 391 320 A 0 0 0 0 1 391 320 Z" stroke="#ffffff" stroke-width="0" opacity="1" filter="none" class="highcharts-point"></path><path fill="rgb(175,200,255)" d="M 468 317 L 532 317 A 0 0 0 0 1 532 317 L 532 322 A 0 0 0 0 1 532 322 L 468 322 A 0 0 0 0 1 468 322 L 468 317 A 0 0 0 0 1 468 317 Z" stroke="#ffffff" stroke-width="0" opacity="1" filter="none" class="highcharts-point"></path><path fill="rgb(175,200,255)" d="M 545 323 L 609 323 A 0 0 0 0 1 609 323 L 609 326 A 0 0 0 0 1 609 326 L 545 326 A 0 0 0 0 1 545 326 L 545 323 A 0 0 0 0 1 545 323 Z" stroke="#ffffff" stroke-width="0" opacity="1" filter="none" class="highcharts-point"></path><path fill="rgb(175,200,255)" d="M 622 326 L 686 326 A 0 0 0 0 1 686 326 L 686 327 A 0 0 0 0 1 686 327 L 622 327 A 0 0 0 0 1 622 327 L 622 326 A 0 0 0 0 1 622 326 Z" stroke="#ffffff" stroke-width="0" opacity="1" filter="none" class="highcharts-point"></path><path fill="rgb(175,200,255)" d="M 699 318 L 763 318 A 0 0 0 0 1 763 318 L 763 320 A 0 0 0 0 1 763 320 L 699 320 A 0 0 0 0 1 699 320 L 699 318 A 0 0 0 0 1 699 318 Z" stroke="#ffffff" stroke-width="0" opacity="1" filter="none" class="highcharts-point"></path><path fill="rgb(175,200,255)" d="M 776 325 L 840 325 A 0 0 0 0 1 840 325 L 840 326 A 0 0 0 0 1 840 326 L 776 326 A 0 0 0 0 1 776 326 L 776 325 A 0 0 0 0 1 776 325 Z" stroke="#ffffff" stroke-width="0" opacity="1" filter="none" class="highcharts-point"></path><path fill="rgb(175,200,255)" d="M 853 321 L 917 321 A 0 0 0 0 1 917 321 L 917 322 A 0 0 0 0 1 917 322 L 853 322 A 0 0 0 0 1 853 322 L 853 321 A 0 0 0 0 1 853 321 Z" stroke="#ffffff" stroke-width="0" opacity="1" filter="none" class="highcharts-point"></path></g><g class="highcharts-markers highcharts-series-10 highcharts-column-series" data-z-index="0.1" opacity="1" transform="translate(91,67) scale(1 1)" clip-path="none"></g><g class="highcharts-series highcharts-series-11 highcharts-column-series" visibility="hidden" data-z-index="0.1" opacity="1" transform="translate(91,67) scale(1 1)" clip-path="url(#highcharts-kpywg4a-1556-)"></g><g class="highcharts-markers highcharts-series-11 highcharts-column-series" visibility="hidden" data-z-index="0.1" opacity="1" transform="translate(91,67) scale(1 1)" clip-path="none"></g><g class="highcharts-series highcharts-series-12 highcharts-column-series" visibility="hidden" data-z-index="0.1" opacity="1" transform="translate(91,67) scale(1 1)" clip-path="url(#highcharts-kpywg4a-1556-)"></g><g class="highcharts-markers highcharts-series-12 highcharts-column-series" visibility="hidden" data-z-index="0.1" opacity="1" transform="translate(91,67) scale(1 1)" clip-path="none"></g><g class="highcharts-series highcharts-series-13 highcharts-column-series" data-z-index="0.1" opacity="1" transform="translate(91,67) scale(1 1)" clip-path="url(#highcharts-kpywg4a-1556-)"><path fill="rgb(84, 48, 5)" d="M 7 312 L 71 312 A 0 0 0 0 1 71 312 L 71 317 A 0 0 0 0 1 71 317 L 7 317 A 0 0 0 0 1 7 317 L 7 312 A 0 0 0 0 1 7 312 Z" stroke="#ffffff" stroke-width="0" opacity="1" filter="none" class="highcharts-point"></path><path fill="rgb(84, 48, 5)" d="M 84 317 L 148 317 A 0 0 0 0 1 148 317 L 148 321 A 0 0 0 0 1 148 321 L 84 321 A 0 0 0 0 1 84 321 L 84 317 A 0 0 0 0 1 84 317 Z" stroke="#ffffff" stroke-width="0" opacity="1" filter="none" class="highcharts-point"></path><path fill="rgb(84, 48, 5)" d="M 160 312 L 224 312 A 0 0 0 0 1 224 312 L 224 317 A 0 0 0 0 1 224 317 L 160 317 A 0 0 0 0 1 160 317 L 160 312 A 0 0 0 0 1 160 312 Z" stroke="#ffffff" stroke-width="0" opacity="1" filter="none" class="highcharts-point"></path><path fill="rgb(84, 48, 5)" d="M 237 317 L 301 317 A 0 0 0 0 1 301 317 L 301 321 A 0 0 0 0 1 301 321 L 237 321 A 0 0 0 0 1 237 321 L 237 317 A 0 0 0 0 1 237 317 Z" stroke="#ffffff" stroke-width="0" opacity="1" filter="none" class="highcharts-point"></path><path fill="rgb(84, 48, 5)" d="M 314 312 L 378 312 A 0 0 0 0 1 378 312 L 378 316 A 0 0 0 0 1 378 316 L 314 316 A 0 0 0 0 1 314 316 L 314 312 A 0 0 0 0 1 314 312 Z" stroke="#ffffff" stroke-width="0" opacity="1" filter="none" class="highcharts-point"></path><path fill="rgb(84, 48, 5)" d="M 391 316 L 455 316 A 0 0 0 0 1 455 316 L 455 320 A 0 0 0 0 1 455 320 L 391 320 A 0 0 0 0 1 391 320 L 391 316 A 0 0 0 0 1 391 316 Z" stroke="#ffffff" stroke-width="0" opacity="1" filter="none" class="highcharts-point"></path><path fill="rgb(84, 48, 5)" d="M 468 312 L 532 312 A 0 0 0 0 1 532 312 L 532 317 A 0 0 0 0 1 532 317 L 468 317 A 0 0 0 0 1 468 317 L 468 312 A 0 0 0 0 1 468 312 Z" stroke="#ffffff" stroke-width="0" opacity="1" filter="none" class="highcharts-point"></path><path fill="rgb(84, 48, 5)" d="M 545 318 L 609 318 A 0 0 0 0 1 609 318 L 609 323 A 0 0 0 0 1 609 323 L 545 323 A 0 0 0 0 1 545 323 L 545 318 A 0 0 0 0 1 545 318 Z" stroke="#ffffff" stroke-width="0" opacity="1" filter="none" class="highcharts-point"></path><path fill="rgb(84, 48, 5)" d="M 622 321 L 686 321 A 0 0 0 0 1 686 321 L 686 326 A 0 0 0 0 1 686 326 L 622 326 A 0 0 0 0 1 622 326 L 622 321 A 0 0 0 0 1 622 321 Z" stroke="#ffffff" stroke-width="0" opacity="1" filter="none" class="highcharts-point"></path><path fill="rgb(84, 48, 5)" d="M 699 313 L 763 313 A 0 0 0 0 1 763 313 L 763 318 A 0 0 0 0 1 763 318 L 699 318 A 0 0 0 0 1 699 318 L 699 313 A 0 0 0 0 1 699 313 Z" stroke="#ffffff" stroke-width="0" opacity="1" filter="none" class="highcharts-point"></path><path fill="rgb(84, 48, 5)" d="M 776 320 L 840 320 A 0 0 0 0 1 840 320 L 840 325 A 0 0 0 0 1 840 325 L 776 325 A 0 0 0 0 1 776 325 L 776 320 A 0 0 0 0 1 776 320 Z" stroke="#ffffff" stroke-width="0" opacity="1" filter="none" class="highcharts-point"></path><path fill="rgb(84, 48, 5)" d="M 853 316 L 917 316 A 0 0 0 0 1 917 316 L 917 321 A 0 0 0 0 1 917 321 L 853 321 A 0 0 0 0 1 853 321 L 853 316 A 0 0 0 0 1 853 316 Z" stroke="#ffffff" stroke-width="0" opacity="1" filter="none" class="highcharts-point"></path></g><g class="highcharts-markers highcharts-series-13 highcharts-column-series" data-z-index="0.1" opacity="1" transform="translate(91,67) scale(1 1)" clip-path="none"></g><g class="highcharts-series highcharts-series-14 highcharts-column-series" visibility="hidden" data-z-index="0.1" opacity="1" transform="translate(91,67) scale(1 1)" clip-path="url(#highcharts-kpywg4a-1556-)"></g><g class="highcharts-markers highcharts-series-14 highcharts-column-series" visibility="hidden" data-z-index="0.1" opacity="1" transform="translate(91,67) scale(1 1)" clip-path="none"></g><g class="highcharts-series highcharts-series-15 highcharts-column-series" data-z-index="0.1" opacity="1" transform="translate(91,67) scale(1 1)" clip-path="url(#highcharts-kpywg4a-1556-)"><path fill="rgb(155,175,145)" d="M 7 273 L 71 273 A 0 0 0 0 1 71 273 L 71 312 A 0 0 0 0 1 71 312 L 7 312 A 0 0 0 0 1 7 312 L 7 273 A 0 0 0 0 1 7 273 Z" stroke="#ffffff" stroke-width="0" opacity="1" filter="none" class="highcharts-point"></path><path fill="rgb(155,175,145)" d="M 84 281 L 148 281 A 0 0 0 0 1 148 281 L 148 317 A 0 0 0 0 1 148 317 L 84 317 A 0 0 0 0 1 84 317 L 84 281 A 0 0 0 0 1 84 281 Z" stroke="#ffffff" stroke-width="0" opacity="1" filter="none" class="highcharts-point"></path><path fill="rgb(155,175,145)" d="M 160 277 L 224 277 A 0 0 0 0 1 224 277 L 224 312 A 0 0 0 0 1 224 312 L 160 312 A 0 0 0 0 1 160 312 L 160 277 A 0 0 0 0 1 160 277 Z" stroke="#ffffff" stroke-width="0" opacity="1" filter="none" class="highcharts-point"></path><path fill="rgb(155,175,145)" d="M 237 288 L 301 288 A 0 0 0 0 1 301 288 L 301 317 A 0 0 0 0 1 301 317 L 237 317 A 0 0 0 0 1 237 317 L 237 288 A 0 0 0 0 1 237 288 Z" stroke="#ffffff" stroke-width="0" opacity="1" filter="none" class="highcharts-point"></path><path fill="rgb(155,175,145)" d="M 314 292 L 378 292 A 0 0 0 0 1 378 292 L 378 312 A 0 0 0 0 1 378 312 L 314 312 A 0 0 0 0 1 314 312 L 314 292 A 0 0 0 0 1 314 292 Z" stroke="#ffffff" stroke-width="0" opacity="1" filter="none" class="highcharts-point"></path><path fill="rgb(155,175,145)" d="M 391 296 L 455 296 A 0 0 0 0 1 455 296 L 455 316 A 0 0 0 0 1 455 316 L 391 316 A 0 0 0 0 1 391 316 L 391 296 A 0 0 0 0 1 391 296 Z" stroke="#ffffff" stroke-width="0" opacity="1" filter="none" class="highcharts-point"></path><path fill="rgb(155,175,145)" d="M 468 291 L 532 291 A 0 0 0 0 1 532 291 L 532 312 A 0 0 0 0 1 532 312 L 468 312 A 0 0 0 0 1 468 312 L 468 291 A 0 0 0 0 1 468 291 Z" stroke="#ffffff" stroke-width="0" opacity="1" filter="none" class="highcharts-point"></path><path fill="rgb(155,175,145)" d="M 545 300 L 609 300 A 0 0 0 0 1 609 300 L 609 318 A 0 0 0 0 1 609 318 L 545 318 A 0 0 0 0 1 545 318 L 545 300 A 0 0 0 0 1 545 300 Z" stroke="#ffffff" stroke-width="0" opacity="1" filter="none" class="highcharts-point"></path><path fill="rgb(155,175,145)" d="M 622 298 L 686 298 A 0 0 0 0 1 686 298 L 686 321 A 0 0 0 0 1 686 321 L 622 321 A 0 0 0 0 1 622 321 L 622 298 A 0 0 0 0 1 622 298 Z" stroke="#ffffff" stroke-width="0" opacity="1" filter="none" class="highcharts-point"></path><path fill="rgb(155,175,145)" d="M 699 284 L 763 284 A 0 0 0 0 1 763 284 L 763 313 A 0 0 0 0 1 763 313 L 699 313 A 0 0 0 0 1 699 313 L 699 284 A 0 0 0 0 1 699 284 Z" stroke="#ffffff" stroke-width="0" opacity="1" filter="none" class="highcharts-point"></path><path fill="rgb(155,175,145)" d="M 776 291 L 840 291 A 0 0 0 0 1 840 291 L 840 320 A 0 0 0 0 1 840 320 L 776 320 A 0 0 0 0 1 776 320 L 776 291 A 0 0 0 0 1 776 291 Z" stroke="#ffffff" stroke-width="0" opacity="1" filter="none" class="highcharts-point"></path><path fill="rgb(155,175,145)" d="M 853 284 L 917 284 A 0 0 0 0 1 917 284 L 917 316 A 0 0 0 0 1 917 316 L 853 316 A 0 0 0 0 1 853 316 L 853 284 A 0 0 0 0 1 853 284 Z" stroke="#ffffff" stroke-width="0" opacity="1" filter="none" class="highcharts-point"></path></g><g class="highcharts-markers highcharts-series-15 highcharts-column-series" data-z-index="0.1" opacity="1" transform="translate(91,67) scale(1 1)" clip-path="none"></g><g class="highcharts-series highcharts-series-16 highcharts-column-series" data-z-index="0.1" opacity="1" transform="translate(91,67) scale(1 1)" clip-path="url(#highcharts-kpywg4a-1556-)"><path fill="rgb(195,215,185)" d="M 7 75 L 71 75 A 0 0 0 0 1 71 75 L 71 273 A 0 0 0 0 1 71 273 L 7 273 A 0 0 0 0 1 7 273 L 7 75 A 0 0 0 0 1 7 75 Z" stroke="#ffffff" stroke-width="0" opacity="1" filter="none" class="highcharts-point"></path><path fill="rgb(195,215,185)" d="M 84 102 L 148 102 A 0 0 0 0 1 148 102 L 148 281 A 0 0 0 0 1 148 281 L 84 281 A 0 0 0 0 1 84 281 L 84 102 A 0 0 0 0 1 84 102 Z" stroke="#ffffff" stroke-width="0" opacity="1" filter="none" class="highcharts-point"></path><path fill="rgb(195,215,185)" d="M 160 158 L 224 158 A 0 0 0 0 1 224 158 L 224 277 A 0 0 0 0 1 224 277 L 160 277 A 0 0 0 0 1 160 277 L 160 158 A 0 0 0 0 1 160 158 Z" stroke="#ffffff" stroke-width="0" opacity="1" filter="none" class="highcharts-point"></path><path fill="rgb(195,215,185)" d="M 237 165 L 301 165 A 0 0 0 0 1 301 165 L 301 288 A 0 0 0 0 1 301 288 L 237 288 A 0 0 0 0 1 237 288 L 237 165 A 0 0 0 0 1 237 165 Z" stroke="#ffffff" stroke-width="0" opacity="1" filter="none" class="highcharts-point"></path><path fill="rgb(195,215,185)" d="M 314 212 L 378 212 A 0 0 0 0 1 378 212 L 378 292 A 0 0 0 0 1 378 292 L 314 292 A 0 0 0 0 1 314 292 L 314 212 A 0 0 0 0 1 314 212 Z" stroke="#ffffff" stroke-width="0" opacity="1" filter="none" class="highcharts-point"></path><path fill="rgb(195,215,185)" d="M 391 223 L 455 223 A 0 0 0 0 1 455 223 L 455 296 A 0 0 0 0 1 455 296 L 391 296 A 0 0 0 0 1 391 296 L 391 223 A 0 0 0 0 1 391 223 Z" stroke="#ffffff" stroke-width="0" opacity="1" filter="none" class="highcharts-point"></path><path fill="rgb(195,215,185)" d="M 468 220 L 532 220 A 0 0 0 0 1 532 220 L 532 291 A 0 0 0 0 1 532 291 L 468 291 A 0 0 0 0 1 468 291 L 468 220 A 0 0 0 0 1 468 220 Z" stroke="#ffffff" stroke-width="0" opacity="1" filter="none" class="highcharts-point"></path><path fill="rgb(195,215,185)" d="M 545 234 L 609 234 A 0 0 0 0 1 609 234 L 609 300 A 0 0 0 0 1 609 300 L 545 300 A 0 0 0 0 1 545 300 L 545 234 A 0 0 0 0 1 545 234 Z" stroke="#ffffff" stroke-width="0" opacity="1" filter="none" class="highcharts-point"></path><path fill="rgb(195,215,185)" d="M 622 189 L 686 189 A 0 0 0 0 1 686 189 L 686 298 A 0 0 0 0 1 686 298 L 622 298 A 0 0 0 0 1 622 298 L 622 189 A 0 0 0 0 1 622 189 Z" stroke="#ffffff" stroke-width="0" opacity="1" filter="none" class="highcharts-point"></path><path fill="rgb(195,215,185)" d="M 699 176 L 763 176 A 0 0 0 0 1 763 176 L 763 284 A 0 0 0 0 1 763 284 L 699 284 A 0 0 0 0 1 699 284 L 699 176 A 0 0 0 0 1 699 176 Z" stroke="#ffffff" stroke-width="0" opacity="1" filter="none" class="highcharts-point"></path><path fill="rgb(195,215,185)" d="M 776 160 L 840 160 A 0 0 0 0 1 840 160 L 840 291 A 0 0 0 0 1 840 291 L 776 291 A 0 0 0 0 1 776 291 L 776 160 A 0 0 0 0 1 776 160 Z" stroke="#ffffff" stroke-width="0" opacity="1" filter="none" class="highcharts-point"></path><path fill="rgb(195,215,185)" d="M 853 109 L 917 109 A 0 0 0 0 1 917 109 L 917 284 A 0 0 0 0 1 917 284 L 853 284 A 0 0 0 0 1 853 284 L 853 109 A 0 0 0 0 1 853 109 Z" stroke="#ffffff" stroke-width="0" opacity="1" filter="none" class="highcharts-point"></path></g><g class="highcharts-markers highcharts-series-16 highcharts-column-series" data-z-index="0.1" opacity="1" transform="translate(91,67) scale(1 1)" clip-path="none"></g><g class="highcharts-series highcharts-series-17 highcharts-column-series" data-z-index="0.1" opacity="1" transform="translate(91,67) scale(1 1)" clip-path="url(#highcharts-kpywg4a-1556-)"><path fill="rgb(255,205,100)" d="M 10 48 L 68 48 A 3 3 0 0 1 71 51 L 71 75 A 0 0 0 0 1 71 75 L 7 75 A 0 0 0 0 1 7 75 L 7 51 A 3 3 0 0 1 10 48 Z" stroke="#ffffff" stroke-width="0" opacity="1" filter="none" class="highcharts-point"></path><path fill="rgb(255,205,100)" d="M 87 63 L 145 63 A 3 3 0 0 1 148 66 L 148 102 A 0 0 0 0 1 148 102 L 84 102 A 0 0 0 0 1 84 102 L 84 66 A 3 3 0 0 1 87 63 Z" stroke="#ffffff" stroke-width="0" opacity="1" filter="none" class="highcharts-point"></path><path fill="rgb(255,205,100)" d="M 163 84 L 221 84 A 3 3 0 0 1 224 87 L 224 158 A 0 0 0 0 1 224 158 L 160 158 A 0 0 0 0 1 160 158 L 160 87 A 3 3 0 0 1 163 84 Z" stroke="#ffffff" stroke-width="0" opacity="1" filter="none" class="highcharts-point"></path><path fill="rgb(255,205,100)" d="M 240 68 L 298 68 A 3 3 0 0 1 301 71 L 301 165 A 0 0 0 0 1 301 165 L 237 165 A 0 0 0 0 1 237 165 L 237 71 A 3 3 0 0 1 240 68 Z" stroke="#ffffff" stroke-width="0" opacity="1" filter="none" class="highcharts-point"></path><path fill="rgb(255,205,100)" d="M 317 86 L 375 86 A 3 3 0 0 1 378 89 L 378 212 A 0 0 0 0 1 378 212 L 314 212 A 0 0 0 0 1 314 212 L 314 89 A 3 3 0 0 1 317 86 Z" stroke="#ffffff" stroke-width="0" opacity="1" filter="none" class="highcharts-point"></path><path fill="rgb(255,205,100)" d="M 394 94 L 452 94 A 3 3 0 0 1 455 97 L 455 223 A 0 0 0 0 1 455 223 L 391 223 A 0 0 0 0 1 391 223 L 391 97 A 3 3 0 0 1 394 94 Z" stroke="#ffffff" stroke-width="0" opacity="1" filter="none" class="highcharts-point"></path><path fill="rgb(255,205,100)" d="M 471 85 L 529 85 A 3 3 0 0 1 532 88 L 532 220 A 0 0 0 0 1 532 220 L 468 220 A 0 0 0 0 1 468 220 L 468 88 A 3 3 0 0 1 471 85 Z" stroke="#ffffff" stroke-width="0" opacity="1" filter="none" class="highcharts-point"></path><path fill="rgb(255,205,100)" d="M 548 104 L 606 104 A 3 3 0 0 1 609 107 L 609 234 A 0 0 0 0 1 609 234 L 545 234 A 0 0 0 0 1 545 234 L 545 107 A 3 3 0 0 1 548 104 Z" stroke="#ffffff" stroke-width="0" opacity="1" filter="none" class="highcharts-point"></path><path fill="rgb(255,205,100)" d="M 625 94 L 683 94 A 3 3 0 0 1 686 97 L 686 189 A 0 0 0 0 1 686 189 L 622 189 A 0 0 0 0 1 622 189 L 622 97 A 3 3 0 0 1 625 94 Z" stroke="#ffffff" stroke-width="0" opacity="1" filter="none" class="highcharts-point"></path><path fill="rgb(255,205,100)" d="M 702 119 L 760 119 A 3 3 0 0 1 763 122 L 763 176 A 0 0 0 0 1 763 176 L 699 176 A 0 0 0 0 1 699 176 L 699 122 A 3 3 0 0 1 702 119 Z" stroke="#ffffff" stroke-width="0" opacity="1" filter="none" class="highcharts-point"></path><path fill="rgb(255,205,100)" d="M 779 131 L 837 131 A 3 3 0 0 1 840 134 L 840 160 A 0 0 0 0 1 840 160 L 776 160 A 0 0 0 0 1 776 160 L 776 134 A 3 3 0 0 1 779 131 Z" stroke="#ffffff" stroke-width="0" opacity="1" filter="none" class="highcharts-point"></path><path fill="rgb(255,205,100)" d="M 856 86 L 914 86 A 3 3 0 0 1 917 89 L 917 109 A 0 0 0 0 1 917 109 L 853 109 A 0 0 0 0 1 853 109 L 853 89 A 3 3 0 0 1 856 86 Z" stroke="#ffffff" stroke-width="0" opacity="1" filter="none" class="highcharts-point"></path></g><g class="highcharts-markers highcharts-series-17 highcharts-column-series" data-z-index="0.1" opacity="1" transform="translate(91,67) scale(1 1)" clip-path="none"></g><g class="highcharts-series highcharts-series-18 highcharts-column-series" visibility="hidden" data-z-index="0.1" opacity="1" transform="translate(91,67) scale(1 1)" clip-path="url(#highcharts-kpywg4a-1556-)"></g><g class="highcharts-markers highcharts-series-18 highcharts-column-series" visibility="hidden" data-z-index="0.1" opacity="1" transform="translate(91,67) scale(1 1)" clip-path="none"></g></g><text x="512" text-anchor="middle" class="highcharts-title" data-z-index="4" style="font-size: 16px; color: rgb(51, 51, 51); font-weight: bold; text-align: center; fill: rgb(51, 51, 51);" y="22">Gesamte Nettostromerzeugung in Deutschland 2024</text><text x="512" text-anchor="middle" class="highcharts-subtitle" data-z-index="4" style="color: rgb(102, 102, 102); font-size: 0.8em; fill: rgb(102, 102, 102);" y="48">Energetisch korrigierte Werte</text><text x="512" text-anchor="middle" class="highcharts-caption" data-z-index="4" style="color: rgb(102, 102, 102); font-size: 0.8em; fill: rgb(102, 102, 102);" y="555">Energy-Charts.info; Datenquelle: ENTSO-E, AG Energiebilanzen, BDEW;   Letztes Update: 25.04.2026, 18:32 MESZ</text><g class="highcharts-stack-labels" data-z-index="6" opacity="1" transform="translate(91,67)"><g class="highcharts-label highcharts-stack-labels" transform="translate(16,22)"><text x="5" data-z-index="1" style="color: rgb(0, 0, 0); font-size: 0.7em; font-weight: bold; fill: rgb(0, 0, 0);" y="15"><tspan class="highcharts-text-outline" fill="#FFFFFF" stroke="#FFFFFF" stroke-width="2px" stroke-linejoin="round" style=""><tspan style="text-align: center;">26.363</tspan><tspan x="5" dy="0">​</tspan></tspan><tspan style="text-align: center;">26.363</tspan></text></g><g class="highcharts-label highcharts-stack-labels" transform="translate(93,37)"><text x="5" data-z-index="1" style="color: rgb(0, 0, 0); font-size: 0.7em; font-weight: bold; fill: rgb(0, 0, 0);" y="15"><tspan class="highcharts-text-outline" fill="#FFFFFF" stroke="#FFFFFF" stroke-width="2px" stroke-linejoin="round" style=""><tspan style="text-align: center;">25.208</tspan><tspan x="5" dy="0">​</tspan></tspan><tspan style="text-align: center;">25.208</tspan></text></g><g class="highcharts-label highcharts-stack-labels" transform="translate(170,58)"><text x="5" data-z-index="1" style="color: rgb(0, 0, 0); font-size: 0.7em; font-weight: bold; fill: rgb(0, 0, 0);" y="15"><tspan class="highcharts-text-outline" fill="#FFFFFF" stroke="#FFFFFF" stroke-width="2px" stroke-linejoin="round" style=""><tspan style="text-align: center;">23.602</tspan><tspan x="5" dy="0">​</tspan></tspan><tspan style="text-align: center;">23.602</tspan></text></g><g class="highcharts-label highcharts-stack-labels" transform="translate(247,42)"><text x="5" data-z-index="1" style="color: rgb(0, 0, 0); font-size: 0.7em; font-weight: bold; fill: rgb(0, 0, 0);" y="15"><tspan class="highcharts-text-outline" fill="#FFFFFF" stroke="#FFFFFF" stroke-width="2px" stroke-linejoin="round" style=""><tspan style="text-align: center;">24.812</tspan><tspan x="5" dy="0">​</tspan></tspan><tspan style="text-align: center;">24.812</tspan></text></g><g class="highcharts-label highcharts-stack-labels" transform="translate(323,60)"><text x="5" data-z-index="1" style="color: rgb(0, 0, 0); font-size: 0.7em; font-weight: bold; fill: rgb(0, 0, 0);" y="15"><tspan class="highcharts-text-outline" fill="#FFFFFF" stroke="#FFFFFF" stroke-width="2px" stroke-linejoin="round" style=""><tspan style="text-align: center;">23.421</tspan><tspan x="5" dy="0">​</tspan></tspan><tspan style="text-align: center;">23.421</tspan></text></g><g class="highcharts-label highcharts-stack-labels" transform="translate(400,68)"><text x="5" data-z-index="1" style="color: rgb(0, 0, 0); font-size: 0.7em; font-weight: bold; fill: rgb(0, 0, 0);" y="15"><tspan class="highcharts-text-outline" fill="#FFFFFF" stroke="#FFFFFF" stroke-width="2px" stroke-linejoin="round" style=""><tspan style="text-align: center;">22.810</tspan><tspan x="5" dy="0">​</tspan></tspan><tspan style="text-align: center;">22.810</tspan></text></g><g class="highcharts-label highcharts-stack-labels" transform="translate(477,59)"><text x="5" data-z-index="1" style="color: rgb(0, 0, 0); font-size: 0.7em; font-weight: bold; fill: rgb(0, 0, 0);" y="15"><tspan class="highcharts-text-outline" fill="#FFFFFF" stroke="#FFFFFF" stroke-width="2px" stroke-linejoin="round" style=""><tspan style="text-align: center;">23.529</tspan><tspan x="5" dy="0">​</tspan></tspan><tspan style="text-align: center;">23.529</tspan></text></g><g class="highcharts-label highcharts-stack-labels" transform="translate(554,78)"><text x="5" data-z-index="1" style="color: rgb(0, 0, 0); font-size: 0.7em; font-weight: bold; fill: rgb(0, 0, 0);" y="15"><tspan class="highcharts-text-outline" fill="#FFFFFF" stroke="#FFFFFF" stroke-width="2px" stroke-linejoin="round" style=""><tspan style="text-align: center;">22.024</tspan><tspan x="5" dy="0">​</tspan></tspan><tspan style="text-align: center;">22.024</tspan></text></g><g class="highcharts-label highcharts-stack-labels" transform="translate(631,68)"><text x="5" data-z-index="1" style="color: rgb(0, 0, 0); font-size: 0.7em; font-weight: bold; fill: rgb(0, 0, 0);" y="15"><tspan class="highcharts-text-outline" fill="#FFFFFF" stroke="#FFFFFF" stroke-width="2px" stroke-linejoin="round" style=""><tspan style="text-align: center;">22.829</tspan><tspan x="5" dy="0">​</tspan></tspan><tspan style="text-align: center;">22.829</tspan></text></g><g class="highcharts-label highcharts-stack-labels" transform="translate(708,93)"><text x="5" data-z-index="1" style="color: rgb(0, 0, 0); font-size: 0.7em; font-weight: bold; fill: rgb(0, 0, 0);" y="15"><tspan class="highcharts-text-outline" fill="#FFFFFF" stroke="#FFFFFF" stroke-width="2px" stroke-linejoin="round" style=""><tspan style="text-align: center;">20.879</tspan><tspan x="5" dy="0">​</tspan></tspan><tspan style="text-align: center;">20.879</tspan></text></g><g class="highcharts-label highcharts-stack-labels" transform="translate(785,105)"><text x="5" data-z-index="1" style="color: rgb(0, 0, 0); font-size: 0.7em; font-weight: bold; fill: rgb(0, 0, 0);" y="15"><tspan class="highcharts-text-outline" fill="#FFFFFF" stroke="#FFFFFF" stroke-width="2px" stroke-linejoin="round" style=""><tspan style="text-align: center;">19.985</tspan><tspan x="5" dy="0">​</tspan></tspan><tspan style="text-align: center;">19.985</tspan></text></g><g class="highcharts-label highcharts-stack-labels" transform="translate(862,60)"><text x="5" data-z-index="1" style="color: rgb(0, 0, 0); font-size: 0.7em; font-weight: bold; fill: rgb(0, 0, 0);" y="15"><tspan class="highcharts-text-outline" fill="#FFFFFF" stroke="#FFFFFF" stroke-width="2px" stroke-linejoin="round" style=""><tspan style="text-align: center;">23.438</tspan><tspan x="5" dy="0">​</tspan></tspan><tspan style="text-align: center;">23.438</tspan></text></g></g><g class="highcharts-legend highcharts-no-tooltip" data-z-index="7" transform="translate(111,521)"><rect fill="none" class="highcharts-legend-box" rx="0" ry="0" stroke="#999999" stroke-width="0" filter="none" x="0" y="0" width="802" height="8"></rect><g data-z-index="1"><g><g class="highcharts-legend-item highcharts-column-series highcharts-color-undefined highcharts-series-2" data-z-index="1" transform="translate(0,-5)"><text x="21" style="color: rgb(51, 51, 51); cursor: pointer; font-size: 10px; text-decoration: none; font-weight: bold; fill: rgb(51, 51, 51);" text-anchor="start" data-z-index="2" y="13">Laufwasser</text><rect x="3" y="4" rx="5" ry="5" width="10" height="10" fill="rgb(0,0,200)" class="highcharts-point" data-z-index="3"></rect></g><g class="highcharts-legend-item highcharts-column-series highcharts-color-undefined highcharts-series-3" data-z-index="1" transform="translate(96.81666564941406,-5)"><text x="21" y="13" style="color: rgb(51, 51, 51); cursor: pointer; font-size: 10px; text-decoration: none; font-weight: bold; fill: rgb(51, 51, 51);" text-anchor="start" data-z-index="2">Biomasse</text><rect x="3" y="4" rx="5" ry="5" width="10" height="10" fill="rgb(0,150,50)" class="highcharts-point" data-z-index="3"></rect></g><g class="highcharts-legend-item highcharts-column-series highcharts-color-undefined highcharts-series-9" data-z-index="1" transform="translate(184.81666564941406,-5)"><text x="21" y="13" style="color: rgb(51, 51, 51); cursor: pointer; font-size: 10px; text-decoration: none; font-weight: bold; fill: rgb(51, 51, 51);" text-anchor="start" data-z-index="2">Geothermie</text><rect x="3" y="4" rx="5" ry="5" width="10" height="10" fill="rgb(50,50,150)" class="highcharts-point" data-z-index="3"></rect></g><g class="highcharts-legend-item highcharts-column-series highcharts-color-undefined highcharts-series-10" data-z-index="1" transform="translate(284.14999771118164,-5)"><text x="21" y="13" style="color: rgb(51, 51, 51); cursor: pointer; font-size: 10px; text-decoration: none; font-weight: bold; fill: rgb(51, 51, 51);" text-anchor="start" data-z-index="2">Speicherwasser</text><rect x="3" y="4" rx="5" ry="5" width="10" height="10" fill="rgb(175,200,255)" class="highcharts-point" data-z-index="3"></rect></g><g class="highcharts-legend-item highcharts-column-series highcharts-color-undefined highcharts-series-13" data-z-index="1" transform="translate(402.14999771118164,-5)"><text x="21" y="13" style="color: rgb(51, 51, 51); cursor: pointer; font-size: 10px; text-decoration: none; font-weight: bold; fill: rgb(51, 51, 51);" text-anchor="start" data-z-index="2">Erneuerbarer Müll</text><rect x="3" y="4" rx="5" ry="5" width="10" height="10" fill="rgb(84, 48, 5)" class="highcharts-point" data-z-index="3"></rect></g><g class="highcharts-legend-item highcharts-column-series highcharts-color-undefined highcharts-series-15" data-z-index="1" transform="translate(532.8333320617676,-5)"><text x="21" y="13" style="color: rgb(51, 51, 51); cursor: pointer; font-size: 10px; text-decoration: none; font-weight: bold; fill: rgb(51, 51, 51);" text-anchor="start" data-z-index="2">Wind Offshore</text><rect x="3" y="4" rx="5" ry="5" width="10" height="10" fill="rgb(155,175,145)" class="highcharts-point" data-z-index="3"></rect></g><g class="highcharts-legend-item highcharts-column-series highcharts-color-undefined highcharts-series-16" data-z-index="1" transform="translate(645.5833320617676,-5)"><text x="21" y="13" style="color: rgb(51, 51, 51); cursor: pointer; font-size: 10px; text-decoration: none; font-weight: bold; fill: rgb(51, 51, 51);" text-anchor="start" data-z-index="2">Wind Onshore</text><rect x="3" y="4" rx="5" ry="5" width="10" height="10" fill="rgb(195,215,185)" class="highcharts-point" data-z-index="3"></rect></g><g class="highcharts-legend-item highcharts-column-series highcharts-color-undefined highcharts-series-17" data-z-index="1" transform="translate(756.9666633605957,-5)"><text x="21" y="13" style="color: rgb(51, 51, 51); cursor: pointer; font-size: 10px; text-decoration: none; font-weight: bold; fill: rgb(51, 51, 51);" text-anchor="start" data-z-index="2">Solar</text><rect x="3" y="4" rx="5" ry="5" width="10" height="10" fill="rgb(255,205,100)" class="highcharts-point" data-z-index="3"></rect></g></g></g></g><g class="highcharts-axis-labels highcharts-xaxis-labels" data-z-index="7"><text x="129.45833333333" style="color: rgb(51, 51, 51); cursor: default; font-size: 0.8em; fill: rgb(51, 51, 51);" text-anchor="middle" transform="translate(0,0)" y="481" opacity="1">1</text><text x="283.29166666666" style="color: rgb(51, 51, 51); cursor: default; font-size: 0.8em; fill: rgb(51, 51, 51);" text-anchor="middle" transform="translate(0,0)" y="481" opacity="1">3</text><text x="437.125" style="color: rgb(51, 51, 51); cursor: default; font-size: 0.8em; fill: rgb(51, 51, 51);" text-anchor="middle" transform="translate(0,0)" y="481" opacity="1">5</text><text x="590.95833333333" style="color: rgb(51, 51, 51); cursor: default; font-size: 0.8em; fill: rgb(51, 51, 51);" text-anchor="middle" transform="translate(0,0)" y="481" opacity="1">7</text><text x="744.79166666666" style="color: rgb(51, 51, 51); cursor: default; font-size: 0.8em; fill: rgb(51, 51, 51);" text-anchor="middle" transform="translate(0,0)" y="481" opacity="1">9</text><text x="898.625" style="color: rgb(51, 51, 51); cursor: default; font-size: 0.8em; fill: rgb(51, 51, 51);" text-anchor="middle" transform="translate(0,0)" y="481" opacity="1">11</text></g><g class="highcharts-axis-labels highcharts-yaxis-labels" data-z-index="7"><text x="76" style="color: rgb(102, 102, 102); cursor: default; font-size: 0.8em; fill: rgb(102, 102, 102);" text-anchor="end" transform="translate(0,0)" y="458" opacity="1">0</text><text x="76" style="color: rgb(102, 102, 102); cursor: default; font-size: 0.8em; fill: rgb(102, 102, 102);" text-anchor="end" transform="translate(0,0)" y="393" opacity="1">5000</text><text x="76" style="color: rgb(102, 102, 102); cursor: default; font-size: 0.8em; fill: rgb(102, 102, 102);" text-anchor="end" transform="translate(0,0)" y="328" opacity="1">10.000</text><text x="76" style="color: rgb(102, 102, 102); cursor: default; font-size: 0.8em; fill: rgb(102, 102, 102);" text-anchor="end" transform="translate(0,0)" y="264" opacity="1">15.000</text><text x="76" style="color: rgb(102, 102, 102); cursor: default; font-size: 0.8em; fill: rgb(102, 102, 102);" text-anchor="end" transform="translate(0,0)" y="199" opacity="1">20.000</text><text x="76" style="color: rgb(102, 102, 102); cursor: default; font-size: 0.8em; fill: rgb(102, 102, 102);" text-anchor="end" transform="translate(0,0)" y="134" opacity="1">25.000</text><text x="76" style="color: rgb(102, 102, 102); cursor: default; font-size: 0.8em; fill: rgb(102, 102, 102);" text-anchor="end" transform="translate(0,0)" y="70" opacity="1">30.000</text></g></svg>