<svg xmlns:xlink="http://www.w3.org/1999/xlink" version="1.1" class="highcharts-root" style="font-family: Lucida Sans Unicode; font-size: 1rem;" xmlns="http://www.w3.org/2000/svg" width="1024" height="576" viewBox="0 0 1024 576" role="img" aria-label="Prognosen und Ist-Wert in Deutschland in Woche 16 2026"><desc>Created with Highcharts 11.2.0</desc><defs><filter id="highcharts-drop-shadow-1"><feDropShadow dx="1" dy="1" flood-color="#000000" flood-opacity="0.75" stdDeviation="2.5"></feDropShadow></filter><clipPath id="highcharts-ldp1kcv-1352-"><rect x="0" y="0" width="923" height="388" fill="none"></rect></clipPath><clipPath id="highcharts-ldp1kcv-2025-"><rect x="0" y="0" width="923" height="388" fill="none"></rect></clipPath></defs><rect fill="white" class="highcharts-background" filter="none" x="0" y="0" width="1024" height="576" rx="0" ry="0"></rect><rect fill="none" class="highcharts-plot-background" x="91" y="67" width="923" height="388" filter="none"></rect><g class="highcharts-pane-group" data-z-index="0"></g><g class="highcharts-grid highcharts-xaxis-grid" data-z-index="1"><path fill="none" stroke="#e6e6e6" stroke-width="0" stroke-dasharray="none" data-z-index="1" class="highcharts-grid-line" d="M 91.5 67 L 91.5 455" opacity="1"></path><path fill="none" stroke="#e6e6e6" stroke-width="0" stroke-dasharray="none" data-z-index="1" class="highcharts-grid-line" d="M 228.5 67 L 228.5 455" opacity="1"></path><path fill="none" stroke="#e6e6e6" stroke-width="0" stroke-dasharray="none" data-z-index="1" class="highcharts-grid-line" d="M 365.5 67 L 365.5 455" opacity="1"></path><path fill="none" stroke="#e6e6e6" stroke-width="0" stroke-dasharray="none" data-z-index="1" class="highcharts-grid-line" d="M 503.5 67 L 503.5 455" opacity="1"></path><path fill="none" stroke="#e6e6e6" stroke-width="0" stroke-dasharray="none" data-z-index="1" class="highcharts-grid-line" d="M 640.5 67 L 640.5 455" opacity="1"></path><path fill="none" stroke="#e6e6e6" stroke-width="0" stroke-dasharray="none" data-z-index="1" class="highcharts-grid-line" d="M 777.5 67 L 777.5 455" opacity="1"></path><path fill="none" stroke="#e6e6e6" stroke-width="0" stroke-dasharray="none" data-z-index="1" class="highcharts-grid-line" d="M 915.5 67 L 915.5 455" opacity="1"></path></g><g class="highcharts-grid highcharts-yaxis-grid" data-z-index="1"><path fill="none" stroke="#e6e6e6" stroke-width="1" stroke-dasharray="none" data-z-index="1" class="highcharts-grid-line" d="M 91 455.5 L 1014 455.5" opacity="1"></path><path fill="none" stroke="#e6e6e6" stroke-width="1" stroke-dasharray="none" data-z-index="1" class="highcharts-grid-line" d="M 91 407.5 L 1014 407.5" opacity="1"></path><path fill="none" stroke="#e6e6e6" stroke-width="1" stroke-dasharray="none" data-z-index="1" class="highcharts-grid-line" d="M 91 358.5 L 1014 358.5" opacity="1"></path><path fill="none" stroke="#e6e6e6" stroke-width="1" stroke-dasharray="none" data-z-index="1" class="highcharts-grid-line" d="M 91 310.5 L 1014 310.5" opacity="1"></path><path fill="none" stroke="#e6e6e6" stroke-width="1" stroke-dasharray="none" data-z-index="1" class="highcharts-grid-line" d="M 91 261.5 L 1014 261.5" opacity="1"></path><path fill="none" stroke="#e6e6e6" stroke-width="1" stroke-dasharray="none" data-z-index="1" class="highcharts-grid-line" d="M 91 213.5 L 1014 213.5" opacity="1"></path><path fill="none" stroke="#e6e6e6" stroke-width="1" stroke-dasharray="none" data-z-index="1" class="highcharts-grid-line" d="M 91 164.5 L 1014 164.5" opacity="1"></path><path fill="none" stroke="#e6e6e6" stroke-width="1" stroke-dasharray="none" data-z-index="1" class="highcharts-grid-line" d="M 91 116.5 L 1014 116.5" opacity="1"></path><path fill="none" stroke="#e6e6e6" stroke-width="1" stroke-dasharray="none" data-z-index="1" class="highcharts-grid-line" d="M 91 66.5 L 1014 66.5" opacity="1"></path></g><rect fill="none" class="highcharts-plot-border" data-z-index="1" stroke="#cccccc" stroke-width="0" x="91" y="67" width="923" height="388"></rect><g class="highcharts-axis highcharts-xaxis" data-z-index="2"><text x="552.5" data-z-index="7" text-anchor="middle" transform="translate(0,0)" class="highcharts-axis-title" style="color: rgb(102, 102, 102); font-size: 0.8em; fill: rgb(102, 102, 102);" y="503">Datum (MESZ)</text><path fill="none" class="highcharts-axis-line" stroke="#333333" stroke-width="1" data-z-index="7" d="M 91 455.5 L 1014 455.5"></path></g><g class="highcharts-axis highcharts-yaxis" data-z-index="2"><text x="25.03333282470703" data-z-index="7" text-anchor="middle" transform="translate(0,0) rotate(270 25.03333282470703 261)" class="highcharts-axis-title" style="color: rgb(102, 102, 102); font-size: 0.8em; font-weight: bold; fill: rgb(102, 102, 102);" y="261">Leistung (MW)</text><path fill="none" class="highcharts-axis-line" stroke="#333333" stroke-width="0" data-z-index="7" d="M 91 67 L 91 455"></path></g><g class="highcharts-series-group" data-z-index="3" filter="none"><g class="highcharts-series highcharts-series-0 highcharts-area-series" data-z-index="0.1" opacity="1" transform="translate(91,67) scale(1 1)" clip-path="url(#highcharts-ldp1kcv-2025-)"><path fill="rgb(50,50,50)" d="M 0.68675595238095 173.60284 L 2.0602678571429 175.750905 L 3.4337797619048 176.29168 L 4.8072916666667 176.72818 L 6.1808035714286 179.644 L 7.5543154761905 180.00678 L 8.9278273809524 181.873545 L 10.301339285714 182.91387 L 11.674851190476 183.82858 L 13.048363095238 183.736915 L 14.421875 182.382795 L 15.795386904762 182.88186 L 17.168898809524 181.25808 L 18.542410714286 182.23002 L 19.915922619048 180.985025 L 21.28943452381 180.33561 L 22.662946428571 179.03969 L 24.036458333333 178.15311 L 25.409970238095 174.56605 L 26.783482142857 171.30685 L 28.156994047619 163.765585 L 29.530505952381 159.543175 L 30.904017857143 153.688255 L 32.277529761905 145.2769 L 33.651041666667 128.516755 L 35.024553571429 120.44975 L 36.398065476191 116.13227999999998 L 37.771577380952 111.24687499999999 L 39.145089285714 105.17225000000002 L 40.518601190476 98.98316499999999 L 41.892113095238 94.91741000000002 L 43.265625 90.768235 L 44.639136904762 87.27866 L 46.012648809524 83.42872999999997 L 47.386160714286 80.57353499999999 L 48.759672619048 78.05590000000001 L 50.13318452381 81.37766499999998 L 51.506696428571 75.98058500000002 L 52.880208333333 74.800095 L 54.253720238095 74.92959000000002 L 55.627232142857 74.36795999999998 L 57.000744047619 73.82767000000001 L 58.374255952381 72.97795000000002 L 59.747767857143 72.67967499999997 L 61.121279761905 71.97496999999998 L 62.494791666667 69.91905500000001 L 63.868303571429 67.495025 L 65.241815476191 67.66525999999999 L 66.615327380952 69.77792 L 67.988839285714 70.94385999999997 L 69.362351190476 72.92169000000001 L 70.735863095238 74.49212 L 72.109375 72.29410000000001 L 73.482886904762 73.78692999999998 L 74.856398809524 77.17271499999998 L 76.229910714286 78.26639 L 77.603422619048 77.96229499999998 L 78.97693452381 77.29154 L 80.350446428571 81.27387499999998 L 81.723958333333 81.28793999999999 L 83.097470238095 83.31135999999998 L 84.470982142857 84.63832000000002 L 85.844494047619 86.50120500000003 L 87.218005952381 85.89544000000001 L 88.591517857143 85.98370999999997 L 89.965029761905 88.27436499999999 L 91.338541666667 88.82096000000001 L 92.712053571429 89.48686500000002 L 94.085565476191 85.49385999999998 L 95.459077380952 85.762065 L 96.832589285714 83.226 L 98.206101190476 81.12401 L 99.579613095238 82.73129999999998 L 100.953125 83.5752 L 102.32663690476 83.92536999999999 L 103.70014880952 82.477645 L 105.07366071428 84.35604999999998 L 106.44717261905 86.49732499999999 L 107.82068452381 87.97463499999998 L 109.19419642857 88.09588500000001 L 110.56770833333 88.59931499999999 L 111.94122023809 89.62218000000001 L 113.31473214286 89.99466000000001 L 114.68824404762 92.72424000000001 L 116.06175595238 97.46705500000002 L 117.43526785714 100.13213000000002 L 118.8087797619 106.64179999999999 L 120.18229166667 108.89510999999999 L 121.55580357143 114.66418499999997 L 122.92931547619 119.40263499999998 L 124.30282738095 124.43644999999998 L 125.67633928571 129.90821999999997 L 127.04985119048 138.726975 L 128.42336309524 140.6694 L 129.796875 145.26429 L 131.17038690476 148.40321 L 132.54389880952 152.021795 L 133.91741071428 154.81297 L 135.29092261905 158.016395 L 136.66443452381 159.714865 L 138.03794642857 161.48657 L 139.41145833333 162.43523 L 140.78497023809 162.185455 L 142.15848214286 163.92127 L 143.53199404762 167.832795 L 144.90550595238 166.816235 L 146.27901785714 166.919055 L 147.6525297619 168.616555 L 149.02604166667 167.74501 L 150.39955357143 166.209015 L 151.77306547619 165.993675 L 153.14657738095 164.677385 L 154.52008928571 161.01127 L 155.89360119048 159.171665 L 157.26711309524 158.183235 L 158.640625 156.79759 L 160.01413690476 152.67994 L 161.38764880952 149.550235 L 162.76116071428 144.180315 L 164.13467261905 135.872265 L 165.50818452381 121.43575499999997 L 166.88169642857 111.62565999999998 L 168.25520833333 108.13560000000001 L 169.62872023809 102.755495 L 171.00223214286 96.02902999999998 L 172.37574404762 90.45007500000003 L 173.74925595238 88.43684000000002 L 175.12276785714 84.95066000000003 L 176.4962797619 82.02125999999998 L 177.86979166667 79.61711500000001 L 179.24330357143 76.98550499999999 L 180.61681547619 75.78804000000002 L 181.99032738095 80.19523500000003 L 183.36383928571 76.21775000000002 L 184.73735119048 73.895085 L 186.11086309524 75.043565 L 187.484375 77.72852499999999 L 188.85788690476 76.53688 L 190.23139880952 75.61149999999998 L 191.60491071428 75.183245 L 192.97842261905 76.251215 L 194.35193452381 76.31329499999998 L 195.72544642857 74.02846 L 197.09895833333 70.03399999999999 L 198.47247023809 75.81471499999998 L 199.84598214286 75.40780000000001 L 201.21949404762 73.16224999999997 L 202.59300595238 74.59930500000002 L 203.96651785714 77.36962499999998 L 205.3400297619 79.48325499999999 L 206.71354166667 83.405935 L 208.08705357143 85.48901000000001 L 209.46056547619 86.50023499999998 L 210.83407738095 91.39631000000003 L 212.20758928571 94.56142 L 213.58110119048 96.76768499999997 L 214.95461309524 99.19753500000002 L 216.328125 101.11765000000003 L 217.70163690476 104.031045 L 219.07514880952 104.78715999999997 L 220.44866071428 105.76734499999998 L 221.82217261905 105.80323499999997 L 223.19568452381 108.457155 L 224.56919642857 109.57362499999999 L 225.94270833333 106.24555500000002 L 227.31622023809 107.410525 L 228.68973214286 107.58366999999998 L 230.06324404762 106.20966499999997 L 231.43675595238 104.88367499999998 L 232.81026785714 104.13386500000001 L 234.1837797619 100.59870000000001 L 235.55729166667 99.44439999999997 L 236.93080357143 96.76623000000001 L 238.30431547619 99.15776499999998 L 239.67782738095 100.33873999999997 L 241.05133928571 101.33347500000002 L 242.42485119048 101.03811000000002 L 243.79836309524 102.94900999999999 L 245.171875 103.18472000000003 L 246.54538690476 104.25948 L 247.91889880952 108.71420499999999 L 249.29241071428 112.46568000000002 L 250.66592261905 116.76472000000001 L 252.03943452381 120.04428999999999 L 253.41294642857 122.99551500000001 L 254.78645833333 127.74172499999997 L 256.15997023809 131.804085 L 257.53348214286 135.58272 L 258.90699404762 141.603995 L 260.28050595238 144.509145 L 261.65401785714 147.686865 L 263.0275297619 150.40335 L 264.40104166667 154.133 L 265.77455357143 159.62708 L 267.14806547619 160.249335 L 268.52157738095 161.414305 L 269.89508928571 163.580315 L 271.26860119048 165.27151 L 272.64211309524 165.82732 L 274.015625 166.861825 L 275.38913690476 167.57138 L 276.76264880952 169.6239 L 278.13616071428 168.71501 L 279.50967261905 169.419715 L 280.88318452381 168.7315 L 282.25669642857 167.645585 L 283.63020833333 167.491355 L 285.00372023809 165.825865 L 286.37723214286 162.46433 L 287.75074404762 160.2537 L 289.12425595238 158.68036 L 290.49776785714 157.407235 L 291.8712797619 151.279745 L 293.24479166667 147.383255 L 294.61830357143 142.750535 L 295.99181547619 135.20636 L 297.36532738095 123.17011500000001 L 298.73883928571 114.79319500000003 L 300.11235119048 108.86115999999998 L 301.48586309524 103.02612499999998 L 302.859375 96.86371500000001 L 304.23288690476 91.68925000000002 L 305.60639880952 86.93236999999999 L 306.97991071428 86.05694499999998 L 308.35342261905 83.18331999999998 L 309.72693452381 80.56480499999998 L 311.10044642857 78.55884500000002 L 312.47395833333 78.90804500000002 L 313.84747023809 83.96950500000003 L 315.22098214286 84.58594 L 316.59449404762 83.79296499999998 L 317.96800595238 84.86529999999999 L 319.34151785714 84.38806 L 320.7150297619 81.54353500000002 L 322.08854166667 86.10350499999998 L 323.46205357143 87.56141500000001 L 324.83556547619 89.03581500000001 L 326.20907738095 89.59162500000002 L 327.58258928571 89.66485999999998 L 328.95610119048 92.91145 L 330.32961309524 96.69833 L 331.703125 96.692995 L 333.07663690476 98.027715 L 334.45014880952 98.34539000000001 L 335.82366071428 102.20647500000001 L 337.19717261905 106.040885 L 338.57068452381 107.366875 L 339.94419642857 109.96065499999997 L 341.31770833333 110.59600499999999 L 342.69122023809 114.83005500000002 L 344.06473214286 115.08467999999999 L 345.43824404762 116.88790999999998 L 346.81175595238 115.043455 L 348.18526785714 117.643055 L 349.5587797619 118.51217500000001 L 350.93229166667 117.55963500000001 L 352.30580357143 113.29793999999998 L 353.67931547619 116.86075 L 355.05282738095 119.54619500000001 L 356.42633928571 120.523955 L 357.79985119048 117.28755000000001 L 359.17336309524 116.97763500000002 L 360.546875 115.447945 L 361.92038690476 112.463255 L 363.29389880952 109.1832 L 364.66741071428 107.89213000000001 L 366.04092261905 105.669375 L 367.41443452381 104.24832500000002 L 368.78794642857 100.29703 L 370.16145833333 101.19185499999998 L 371.53497023809 101.14675 L 372.90848214286 102.17106999999999 L 374.28199404762 102.80351000000002 L 375.65550595238 103.38454000000002 L 377.02901785714 103.93210499999998 L 378.4025297619 105.68538000000001 L 379.77604166667 109.78169000000003 L 381.14955357143 113.90613000000002 L 382.52306547619 118.66980000000001 L 383.89657738095 123.37575500000003 L 385.27008928571 126.144135 L 386.64360119048 129.38830000000002 L 388.01711309524 132.8997 L 389.390625 137.3229 L 390.76413690476 141.38041 L 392.13764880952 145.084355 L 393.51116071428 147.83285 L 394.88467261905 151.199235 L 396.25818452381 156.43287 L 397.63169642857 160.181435 L 399.00520833333 163.36643 L 400.37872023809 165.823925 L 401.75223214286 167.04176 L 403.12574404762 168.704825 L 404.49925595238 170.68993 L 405.87276785714 171.501335 L 407.2462797619 174.11888 L 408.61979166667 174.01024 L 409.99330357143 173.33027 L 411.36681547619 172.782705 L 412.74032738095 173.757555 L 414.11383928571 173.89481 L 415.48735119048 173.026175 L 416.86086309524 170.12539 L 418.234375 167.65383 L 419.60788690476 167.65577 L 420.98139880952 166.777435 L 422.35491071428 164.9194 L 423.72842261905 156.819415 L 425.10193452381 155.800915 L 426.47544642857 151.959715 L 427.84895833333 142.338285 L 429.22247023809 129.10797000000002 L 430.59598214286 120.27175499999998 L 431.96949404762 115.25297499999999 L 433.34300595238 111.87495000000001 L 434.71651785714 103.36901999999998 L 436.0900297619 98.51902000000001 L 437.46354166667 95.59931999999998 L 438.83705357143 90.815765 L 440.21056547619 86.50848000000002 L 441.58407738095 84.95551 L 442.95758928571 83.06788999999998 L 444.33110119048 81.30540000000002 L 445.70461309524 84.12034 L 447.078125 81.10897499999999 L 448.45163690476 79.51089999999999 L 449.82514880952 74.09539000000001 L 451.19866071428 78.364845 L 452.57217261905 79.29895499999998 L 453.94568452381 79.85622000000001 L 455.31919642857 79.59528999999998 L 456.69270833333 83.265285 L 458.06622023809 83.57713999999999 L 459.43973214286 84.869665 L 460.81324404762 85.10343499999999 L 462.18675595238 93.07198499999998 L 463.56026785714 97.05723 L 464.9337797619 98.83621 L 466.30729166667 98.51708000000002 L 467.68080357143 101.81605000000002 L 469.05431547619 105.95697999999999 L 470.42782738095 106.63549499999999 L 471.80133928571 108.89996000000002 L 473.17485119048 112.35461500000002 L 474.54836309524 113.86151000000001 L 475.921875 112.08544 L 477.29538690476 112.151885 L 478.66889880952 114.531295 L 480.04241071428 117.87149 L 481.41592261905 118.78377499999999 L 482.78943452381 118.77553 L 484.16294642857 118.16394500000001 L 485.53645833333 120.10442999999998 L 486.90997023809 121.65303499999999 L 488.28348214286 121.650125 L 489.65699404762 117.08336500000001 L 491.03050595238 117.59116 L 492.40401785714 117.03438 L 493.7775297619 111.91035499999998 L 495.15104166667 107.83829500000002 L 496.52455357143 107.18984999999998 L 497.89806547619 103.07511 L 499.27157738095 101.1807 L 500.64508928571 101.48479500000002 L 502.01860119048 98.63396499999999 L 503.39211309524 98.04081000000002 L 504.765625 101.99501500000002 L 506.13913690476 100.65738499999998 L 507.51264880952 101.79858999999999 L 508.88616071428 102.07455499999998 L 510.25967261905 104.76242500000001 L 511.63318452381 111.19352500000002 L 513.00669642857 112.96037999999999 L 514.38020833333 117.87634000000003 L 515.75372023809 123.00618500000002 L 517.12723214286 127.62532499999998 L 518.50074404762 131.26379500000002 L 519.87425595238 135.322275 L 521.24776785714 140.121835 L 522.6212797619 145.360805 L 523.99479166667 149.447415 L 525.36830357143 154.49578 L 526.74181547619 153.591255 L 528.11532738095 157.132725 L 529.48883928571 161.80085 L 530.86235119048 165.054715 L 532.23586309524 165.230285 L 533.609375 166.28128 L 534.98288690476 167.09511 L 536.35639880952 169.48131 L 537.72991071428 168.09809 L 539.10342261905 169.41535 L 540.47693452381 170.786445 L 541.85044642857 172.74536 L 543.22395833333 171.88206 L 544.59747023809 172.56009 L 545.97098214286 172.04308 L 547.34449404762 171.2147 L 548.71800595238 170.85677 L 550.09151785714 167.05243 L 551.4650297619 164.120605 L 552.83854166667 161.800365 L 554.21205357143 160.182405 L 555.58556547619 154.633035 L 556.95907738095 152.752205 L 558.33258928571 148.82516 L 559.70610119048 141.134515 L 561.07961309524 129.54010499999998 L 562.453125 121.31984 L 563.82663690476 115.50760000000002 L 565.20014880952 110.81134500000002 L 566.57366071428 102.89371999999997 L 567.94717261905 95.73560500000002 L 569.32068452381 90.351135 L 570.69419642857 83.28177499999998 L 572.06770833333 82.10467999999997 L 573.44122023809 78.376485 L 574.81473214286 74.847625 L 576.18824404762 76.59508 L 577.56175595238 81.24331999999998 L 578.93526785714 81.6449 L 580.3087797619 82.36706500000003 L 581.68229166667 84.11888499999998 L 583.05580357143 88.075515 L 584.42931547619 90.67899499999999 L 585.80282738095 93.00408499999998 L 587.17633928571 93.82130999999998 L 588.54985119048 94.71613500000001 L 589.92336309524 93.99882000000002 L 591.296875 95.28164500000003 L 592.67038690476 94.85532999999998 L 594.04389880952 99.61172499999998 L 595.41741071428 103.7027 L 596.79092261905 103.184235 L 598.16443452381 104.43214 L 599.53794642857 107.17626999999999 L 600.91145833333 110.07851 L 602.28497023809 113.08938999999998 L 603.65848214286 116.51203500000003 L 605.03199404762 113.79603500000002 L 606.40550595238 116.68421000000001 L 607.77901785714 118.23863499999999 L 609.1525297619 122.76368500000001 L 610.52604166667 117.90495499999997 L 611.89955357143 124.87101000000001 L 613.27306547619 125.55728499999998 L 614.64657738095 124.67555499999997 L 616.02008928571 122.14385499999997 L 617.39360119048 125.42730499999999 L 618.76711309524 124.31665500000003 L 620.140625 122.06189 L 621.51413690476 120.965305 L 622.88764880952 120.058355 L 624.26116071428 118.44378999999998 L 625.63467261905 116.14343500000001 L 627.00818452381 116.53386 L 628.38169642857 117.05717499999997 L 629.75520833333 116.03625 L 631.12872023809 113.14371 L 632.50223214286 112.72515499999997 L 633.87574404762 111.93606 L 635.24925595238 113.52976999999998 L 636.62276785714 114.63945000000001 L 637.9962797619 116.46886999999998 L 639.36979166667 117.58436999999998 L 640.74330357143 119.56414000000001 L 642.11681547619 120.53947499999998 L 643.49032738095 126.30757999999997 L 644.86383928571 130.523685 L 646.23735119048 133.37694 L 647.61086309524 138.079985 L 648.984375 142.73162 L 650.35788690476 147.33718 L 651.73139880952 152.403975 L 653.10491071428 156.995955 L 654.47842261905 159.024225 L 655.85193452381 163.20929 L 657.22544642857 165.10758 L 658.59895833333 167.11257 L 659.97247023809 169.150055 L 661.34598214286 172.836055 L 662.71949404762 175.149505 L 664.09300595238 176.102045 L 665.46651785714 178.019735 L 666.8400297619 180.68384 L 668.21354166667 181.94193 L 669.58705357143 184.26508 L 670.96056547619 185.966945 L 672.33407738095 186.929185 L 673.70758928571 188.90071 L 675.08110119048 189.36146 L 676.45461309524 188.27991 L 677.828125 189.123325 L 679.20163690476 190.02009 L 680.57514880952 189.291135 L 681.94866071428 189.195105 L 683.32217261905 189.63015 L 684.69568452381 189.08307 L 686.06919642857 188.616985 L 687.44270833333 186.52324 L 688.81622023809 186.709965 L 690.18973214286 184.81313 L 691.56324404762 182.329445 L 692.93675595238 179.8477 L 694.31026785714 178.362145 L 695.6837797619 177.119575 L 697.05729166667 173.455885 L 698.43080357143 169.46676 L 699.80431547619 166.403985 L 701.17782738095 160.47971 L 702.55133928571 160.59805 L 703.92485119048 156.586615 L 705.29836309524 152.851145 L 706.671875 146.633445 L 708.04538690476 142.427525 L 709.41889880952 139.460295 L 710.79241071428 134.10929 L 712.16592261905 131.88799 L 713.53943452381 128.39211 L 714.91294642857 132.756625 L 716.28645833333 133.19846 L 717.65997023809 132.981665 L 719.03348214286 136.51004 L 720.40699404762 138.94086 L 721.78050595238 138.064465 L 723.15401785714 135.84268 L 724.5275297619 136.041045 L 725.90104166667 138.34722 L 727.27455357143 137.73515 L 728.64806547619 138.35595 L 730.02157738095 142.88585 L 731.39508928571 144.28847 L 732.76860119048 146.91523 L 734.14211309524 149.528895 L 735.515625 149.985765 L 736.88913690476 152.145955 L 738.26264880952 151.23367 L 739.63616071428 155.33386 L 741.00967261905 157.33691 L 742.38318452381 156.267485 L 743.75669642857 153.62375 L 745.13020833333 149.80583 L 746.50372023809 152.413675 L 747.87723214286 146.307525 L 749.25074404762 148.587025 L 750.62425595238 151.15898 L 751.99776785714 152.51892 L 753.3712797619 150.77583 L 754.74479166667 154.549615 L 756.11830357143 154.169375 L 757.49181547619 151.235125 L 758.86532738095 146.80077 L 760.23883928571 149.46439 L 761.61235119048 148.58557 L 762.98586309524 146.722685 L 764.359375 142.42025 L 765.73288690476 145.184265 L 767.10639880952 146.38367 L 768.47991071428 149.006065 L 769.85342261905 148.97454 L 771.22693452381 151.01251 L 772.60044642857 150.93879 L 773.97395833333 152.84969 L 775.34747023809 157.521695 L 776.72098214286 158.108545 L 778.09449404762 159.536385 L 779.46800595238 159.994225 L 780.84151785714 164.95529 L 782.2150297619 168.9449 L 783.58854166667 170.75686 L 784.96205357143 172.66485 L 786.33556547619 176.149575 L 787.70907738095 179.84188 L 789.08258928571 183.25919 L 790.45610119048 188.76588 L 791.82961309524 192.13857 L 793.203125 193.724035 L 794.57663690476 193.17259 L 795.95014880952 194.680455 L 797.32366071428 198.833025 L 798.69717261905 199.420845 L 800.07068452381 201.94818 L 801.44419642857 203.808155 L 802.81770833333 204.44302 L 804.19122023809 206.265165 L 805.56473214286 209.33376 L 806.93824404762 210.30764 L 808.31175595238 210.63065 L 809.68526785714 212.111355 L 811.0587797619 212.22242 L 812.43229166667 211.612775 L 813.80580357143 210.471085 L 815.17931547619 210.844535 L 816.55282738095 211.6734 L 817.92633928571 211.62005 L 819.29985119048 210.250895 L 820.67336309524 209.877445 L 822.046875 210.60446 L 823.42038690476 207.211885 L 824.79389880952 204.549235 L 826.16741071428 200.961205 L 827.54092261905 199.23606 L 828.91443452381 197.89067 L 830.28794642857 196.048155 L 831.66145833333 192.956765 L 833.03497023809 188.41959 L 834.40848214286 183.34649 L 835.78199404762 178.821925 L 837.15550595238 176.926545 L 838.52901785714 172.686675 L 839.9025297619 183.460465 L 841.27604166667 171.715705 L 842.64955357143 169.410985 L 844.02306547619 167.07474 L 845.39657738095 164.44216 L 846.77008928571 162.62147 L 848.14360119048 161.65923 L 849.51711309524 159.55239 L 850.890625 156.143325 L 852.26413690476 155.39691 L 853.63764880952 151.376745 L 855.01116071428 149.339745 L 856.38467261905 150.58086 L 857.75818452381 152.04459 L 859.13169642857 153.69456 L 860.50520833333 155.89646 L 861.87872023809 154.355615 L 863.25223214286 152.2221 L 864.62574404762 154.67232 L 865.99925595238 155.882395 L 867.37276785714 158.233675 L 868.7462797619 157.866045 L 870.11979166667 159.926325 L 871.49330357143 160.69311 L 872.86681547619 161.273655 L 874.24032738095 162.717015 L 875.61383928571 166.258 L 876.98735119048 169.78007 L 878.36086309524 169.76261 L 879.734375 170.652585 L 881.10788690476 174.90167 L 882.48139880952 174.777025 L 883.85491071428 175.8998 L 885.22842261905 169.28149 L 886.60193452381 170.235 L 887.97544642857 163.989655 L 889.34895833333 162.483245 L 890.72247023809 155.50167 L 892.09598214286 154.527305 L 893.46949404762 152.58003 L 894.84300595238 149.67003 L 896.21651785714 146.49425 L 897.5900297619 150.56437 L 898.96354166667 147.03842 L 900.33705357143 147.098075 L 901.71056547619 146.881765 L 903.08407738095 147.89105 L 904.45758928571 177.610395 L 905.83110119048 147.350275 L 907.20461309524 150.289375 L 908.578125 153.12614 L 909.95163690476 156.043415 L 911.32514880952 157.33982 L 912.69866071428 158.478115 L 914.07217261905 159.521835 L 915.44568452381 162.264995 L 916.81919642857 163.82136 L 918.19270833333 167.80903 L 919.56622023809 171.949475 L 920.93973214286 174.279415 L 922.31324404762 179.338935 L 922.31324404762 388 L 920.93973214286 388 L 919.56622023809 388 L 918.19270833333 388 L 916.81919642857 388 L 915.44568452381 388 L 914.07217261905 388 L 912.69866071428 388 L 911.32514880952 388 L 909.95163690476 388 L 908.578125 388 L 907.20461309524 388 L 905.83110119048 388 L 904.45758928571 388 L 903.08407738095 388 L 901.71056547619 388 L 900.33705357143 388 L 898.96354166667 388 L 897.5900297619 388 L 896.21651785714 388 L 894.84300595238 388 L 893.46949404762 388 L 892.09598214286 388 L 890.72247023809 388 L 889.34895833333 388 L 887.97544642857 388 L 886.60193452381 388 L 885.22842261905 388 L 883.85491071428 388 L 882.48139880952 388 L 881.10788690476 388 L 879.734375 388 L 878.36086309524 388 L 876.98735119048 388 L 875.61383928571 388 L 874.24032738095 388 L 872.86681547619 388 L 871.49330357143 388 L 870.11979166667 388 L 868.7462797619 388 L 867.37276785714 388 L 865.99925595238 388 L 864.62574404762 388 L 863.25223214286 388 L 861.87872023809 388 L 860.50520833333 388 L 859.13169642857 388 L 857.75818452381 388 L 856.38467261905 388 L 855.01116071428 388 L 853.63764880952 388 L 852.26413690476 388 L 850.890625 388 L 849.51711309524 388 L 848.14360119048 388 L 846.77008928571 388 L 845.39657738095 388 L 844.02306547619 388 L 842.64955357143 388 L 841.27604166667 388 L 839.9025297619 388 L 838.52901785714 388 L 837.15550595238 388 L 835.78199404762 388 L 834.40848214286 388 L 833.03497023809 388 L 831.66145833333 388 L 830.28794642857 388 L 828.91443452381 388 L 827.54092261905 388 L 826.16741071428 388 L 824.79389880952 388 L 823.42038690476 388 L 822.046875 388 L 820.67336309524 388 L 819.29985119048 388 L 817.92633928571 388 L 816.55282738095 388 L 815.17931547619 388 L 813.80580357143 388 L 812.43229166667 388 L 811.0587797619 388 L 809.68526785714 388 L 808.31175595238 388 L 806.93824404762 388 L 805.56473214286 388 L 804.19122023809 388 L 802.81770833333 388 L 801.44419642857 388 L 800.07068452381 388 L 798.69717261905 388 L 797.32366071428 388 L 795.95014880952 388 L 794.57663690476 388 L 793.203125 388 L 791.82961309524 388 L 790.45610119048 388 L 789.08258928571 388 L 787.70907738095 388 L 786.33556547619 388 L 784.96205357143 388 L 783.58854166667 388 L 782.2150297619 388 L 780.84151785714 388 L 779.46800595238 388 L 778.09449404762 388 L 776.72098214286 388 L 775.34747023809 388 L 773.97395833333 388 L 772.60044642857 388 L 771.22693452381 388 L 769.85342261905 388 L 768.47991071428 388 L 767.10639880952 388 L 765.73288690476 388 L 764.359375 388 L 762.98586309524 388 L 761.61235119048 388 L 760.23883928571 388 L 758.86532738095 388 L 757.49181547619 388 L 756.11830357143 388 L 754.74479166667 388 L 753.3712797619 388 L 751.99776785714 388 L 750.62425595238 388 L 749.25074404762 388 L 747.87723214286 388 L 746.50372023809 388 L 745.13020833333 388 L 743.75669642857 388 L 742.38318452381 388 L 741.00967261905 388 L 739.63616071428 388 L 738.26264880952 388 L 736.88913690476 388 L 735.515625 388 L 734.14211309524 388 L 732.76860119048 388 L 731.39508928571 388 L 730.02157738095 388 L 728.64806547619 388 L 727.27455357143 388 L 725.90104166667 388 L 724.5275297619 388 L 723.15401785714 388 L 721.78050595238 388 L 720.40699404762 388 L 719.03348214286 388 L 717.65997023809 388 L 716.28645833333 388 L 714.91294642857 388 L 713.53943452381 388 L 712.16592261905 388 L 710.79241071428 388 L 709.41889880952 388 L 708.04538690476 388 L 706.671875 388 L 705.29836309524 388 L 703.92485119048 388 L 702.55133928571 388 L 701.17782738095 388 L 699.80431547619 388 L 698.43080357143 388 L 697.05729166667 388 L 695.6837797619 388 L 694.31026785714 388 L 692.93675595238 388 L 691.56324404762 388 L 690.18973214286 388 L 688.81622023809 388 L 687.44270833333 388 L 686.06919642857 388 L 684.69568452381 388 L 683.32217261905 388 L 681.94866071428 388 L 680.57514880952 388 L 679.20163690476 388 L 677.828125 388 L 676.45461309524 388 L 675.08110119048 388 L 673.70758928571 388 L 672.33407738095 388 L 670.96056547619 388 L 669.58705357143 388 L 668.21354166667 388 L 666.8400297619 388 L 665.46651785714 388 L 664.09300595238 388 L 662.71949404762 388 L 661.34598214286 388 L 659.97247023809 388 L 658.59895833333 388 L 657.22544642857 388 L 655.85193452381 388 L 654.47842261905 388 L 653.10491071428 388 L 651.73139880952 388 L 650.35788690476 388 L 648.984375 388 L 647.61086309524 388 L 646.23735119048 388 L 644.86383928571 388 L 643.49032738095 388 L 642.11681547619 388 L 640.74330357143 388 L 639.36979166667 388 L 637.9962797619 388 L 636.62276785714 388 L 635.24925595238 388 L 633.87574404762 388 L 632.50223214286 388 L 631.12872023809 388 L 629.75520833333 388 L 628.38169642857 388 L 627.00818452381 388 L 625.63467261905 388 L 624.26116071428 388 L 622.88764880952 388 L 621.51413690476 388 L 620.140625 388 L 618.76711309524 388 L 617.39360119048 388 L 616.02008928571 388 L 614.64657738095 388 L 613.27306547619 388 L 611.89955357143 388 L 610.52604166667 388 L 609.1525297619 388 L 607.77901785714 388 L 606.40550595238 388 L 605.03199404762 388 L 603.65848214286 388 L 602.28497023809 388 L 600.91145833333 388 L 599.53794642857 388 L 598.16443452381 388 L 596.79092261905 388 L 595.41741071428 388 L 594.04389880952 388 L 592.67038690476 388 L 591.296875 388 L 589.92336309524 388 L 588.54985119048 388 L 587.17633928571 388 L 585.80282738095 388 L 584.42931547619 388 L 583.05580357143 388 L 581.68229166667 388 L 580.3087797619 388 L 578.93526785714 388 L 577.56175595238 388 L 576.18824404762 388 L 574.81473214286 388 L 573.44122023809 388 L 572.06770833333 388 L 570.69419642857 388 L 569.32068452381 388 L 567.94717261905 388 L 566.57366071428 388 L 565.20014880952 388 L 563.82663690476 388 L 562.453125 388 L 561.07961309524 388 L 559.70610119048 388 L 558.33258928571 388 L 556.95907738095 388 L 555.58556547619 388 L 554.21205357143 388 L 552.83854166667 388 L 551.4650297619 388 L 550.09151785714 388 L 548.71800595238 388 L 547.34449404762 388 L 545.97098214286 388 L 544.59747023809 388 L 543.22395833333 388 L 541.85044642857 388 L 540.47693452381 388 L 539.10342261905 388 L 537.72991071428 388 L 536.35639880952 388 L 534.98288690476 388 L 533.609375 388 L 532.23586309524 388 L 530.86235119048 388 L 529.48883928571 388 L 528.11532738095 388 L 526.74181547619 388 L 525.36830357143 388 L 523.99479166667 388 L 522.6212797619 388 L 521.24776785714 388 L 519.87425595238 388 L 518.50074404762 388 L 517.12723214286 388 L 515.75372023809 388 L 514.38020833333 388 L 513.00669642857 388 L 511.63318452381 388 L 510.25967261905 388 L 508.88616071428 388 L 507.51264880952 388 L 506.13913690476 388 L 504.765625 388 L 503.39211309524 388 L 502.01860119048 388 L 500.64508928571 388 L 499.27157738095 388 L 497.89806547619 388 L 496.52455357143 388 L 495.15104166667 388 L 493.7775297619 388 L 492.40401785714 388 L 491.03050595238 388 L 489.65699404762 388 L 488.28348214286 388 L 486.90997023809 388 L 485.53645833333 388 L 484.16294642857 388 L 482.78943452381 388 L 481.41592261905 388 L 480.04241071428 388 L 478.66889880952 388 L 477.29538690476 388 L 475.921875 388 L 474.54836309524 388 L 473.17485119048 388 L 471.80133928571 388 L 470.42782738095 388 L 469.05431547619 388 L 467.68080357143 388 L 466.30729166667 388 L 464.9337797619 388 L 463.56026785714 388 L 462.18675595238 388 L 460.81324404762 388 L 459.43973214286 388 L 458.06622023809 388 L 456.69270833333 388 L 455.31919642857 388 L 453.94568452381 388 L 452.57217261905 388 L 451.19866071428 388 L 449.82514880952 388 L 448.45163690476 388 L 447.078125 388 L 445.70461309524 388 L 444.33110119048 388 L 442.95758928571 388 L 441.58407738095 388 L 440.21056547619 388 L 438.83705357143 388 L 437.46354166667 388 L 436.0900297619 388 L 434.71651785714 388 L 433.34300595238 388 L 431.96949404762 388 L 430.59598214286 388 L 429.22247023809 388 L 427.84895833333 388 L 426.47544642857 388 L 425.10193452381 388 L 423.72842261905 388 L 422.35491071428 388 L 420.98139880952 388 L 419.60788690476 388 L 418.234375 388 L 416.86086309524 388 L 415.48735119048 388 L 414.11383928571 388 L 412.74032738095 388 L 411.36681547619 388 L 409.99330357143 388 L 408.61979166667 388 L 407.2462797619 388 L 405.87276785714 388 L 404.49925595238 388 L 403.12574404762 388 L 401.75223214286 388 L 400.37872023809 388 L 399.00520833333 388 L 397.63169642857 388 L 396.25818452381 388 L 394.88467261905 388 L 393.51116071428 388 L 392.13764880952 388 L 390.76413690476 388 L 389.390625 388 L 388.01711309524 388 L 386.64360119048 388 L 385.27008928571 388 L 383.89657738095 388 L 382.52306547619 388 L 381.14955357143 388 L 379.77604166667 388 L 378.4025297619 388 L 377.02901785714 388 L 375.65550595238 388 L 374.28199404762 388 L 372.90848214286 388 L 371.53497023809 388 L 370.16145833333 388 L 368.78794642857 388 L 367.41443452381 388 L 366.04092261905 388 L 364.66741071428 388 L 363.29389880952 388 L 361.92038690476 388 L 360.546875 388 L 359.17336309524 388 L 357.79985119048 388 L 356.42633928571 388 L 355.05282738095 388 L 353.67931547619 388 L 352.30580357143 388 L 350.93229166667 388 L 349.5587797619 388 L 348.18526785714 388 L 346.81175595238 388 L 345.43824404762 388 L 344.06473214286 388 L 342.69122023809 388 L 341.31770833333 388 L 339.94419642857 388 L 338.57068452381 388 L 337.19717261905 388 L 335.82366071428 388 L 334.45014880952 388 L 333.07663690476 388 L 331.703125 388 L 330.32961309524 388 L 328.95610119048 388 L 327.58258928571 388 L 326.20907738095 388 L 324.83556547619 388 L 323.46205357143 388 L 322.08854166667 388 L 320.7150297619 388 L 319.34151785714 388 L 317.96800595238 388 L 316.59449404762 388 L 315.22098214286 388 L 313.84747023809 388 L 312.47395833333 388 L 311.10044642857 388 L 309.72693452381 388 L 308.35342261905 388 L 306.97991071428 388 L 305.60639880952 388 L 304.23288690476 388 L 302.859375 388 L 301.48586309524 388 L 300.11235119048 388 L 298.73883928571 388 L 297.36532738095 388 L 295.99181547619 388 L 294.61830357143 388 L 293.24479166667 388 L 291.8712797619 388 L 290.49776785714 388 L 289.12425595238 388 L 287.75074404762 388 L 286.37723214286 388 L 285.00372023809 388 L 283.63020833333 388 L 282.25669642857 388 L 280.88318452381 388 L 279.50967261905 388 L 278.13616071428 388 L 276.76264880952 388 L 275.38913690476 388 L 274.015625 388 L 272.64211309524 388 L 271.26860119048 388 L 269.89508928571 388 L 268.52157738095 388 L 267.14806547619 388 L 265.77455357143 388 L 264.40104166667 388 L 263.0275297619 388 L 261.65401785714 388 L 260.28050595238 388 L 258.90699404762 388 L 257.53348214286 388 L 256.15997023809 388 L 254.78645833333 388 L 253.41294642857 388 L 252.03943452381 388 L 250.66592261905 388 L 249.29241071428 388 L 247.91889880952 388 L 246.54538690476 388 L 245.171875 388 L 243.79836309524 388 L 242.42485119048 388 L 241.05133928571 388 L 239.67782738095 388 L 238.30431547619 388 L 236.93080357143 388 L 235.55729166667 388 L 234.1837797619 388 L 232.81026785714 388 L 231.43675595238 388 L 230.06324404762 388 L 228.68973214286 388 L 227.31622023809 388 L 225.94270833333 388 L 224.56919642857 388 L 223.19568452381 388 L 221.82217261905 388 L 220.44866071428 388 L 219.07514880952 388 L 217.70163690476 388 L 216.328125 388 L 214.95461309524 388 L 213.58110119048 388 L 212.20758928571 388 L 210.83407738095 388 L 209.46056547619 388 L 208.08705357143 388 L 206.71354166667 388 L 205.3400297619 388 L 203.96651785714 388 L 202.59300595238 388 L 201.21949404762 388 L 199.84598214286 388 L 198.47247023809 388 L 197.09895833333 388 L 195.72544642857 388 L 194.35193452381 388 L 192.97842261905 388 L 191.60491071428 388 L 190.23139880952 388 L 188.85788690476 388 L 187.484375 388 L 186.11086309524 388 L 184.73735119048 388 L 183.36383928571 388 L 181.99032738095 388 L 180.61681547619 388 L 179.24330357143 388 L 177.86979166667 388 L 176.4962797619 388 L 175.12276785714 388 L 173.74925595238 388 L 172.37574404762 388 L 171.00223214286 388 L 169.62872023809 388 L 168.25520833333 388 L 166.88169642857 388 L 165.50818452381 388 L 164.13467261905 388 L 162.76116071428 388 L 161.38764880952 388 L 160.01413690476 388 L 158.640625 388 L 157.26711309524 388 L 155.89360119048 388 L 154.52008928571 388 L 153.14657738095 388 L 151.77306547619 388 L 150.39955357143 388 L 149.02604166667 388 L 147.6525297619 388 L 146.27901785714 388 L 144.90550595238 388 L 143.53199404762 388 L 142.15848214286 388 L 140.78497023809 388 L 139.41145833333 388 L 138.03794642857 388 L 136.66443452381 388 L 135.29092261905 388 L 133.91741071428 388 L 132.54389880952 388 L 131.17038690476 388 L 129.796875 388 L 128.42336309524 388 L 127.04985119048 388 L 125.67633928571 388 L 124.30282738095 388 L 122.92931547619 388 L 121.55580357143 388 L 120.18229166667 388 L 118.8087797619 388 L 117.43526785714 388 L 116.06175595238 388 L 114.68824404762 388 L 113.31473214286 388 L 111.94122023809 388 L 110.56770833333 388 L 109.19419642857 388 L 107.82068452381 388 L 106.44717261905 388 L 105.07366071428 388 L 103.70014880952 388 L 102.32663690476 388 L 100.953125 388 L 99.579613095238 388 L 98.206101190476 388 L 96.832589285714 388 L 95.459077380952 388 L 94.085565476191 388 L 92.712053571429 388 L 91.338541666667 388 L 89.965029761905 388 L 88.591517857143 388 L 87.218005952381 388 L 85.844494047619 388 L 84.470982142857 388 L 83.097470238095 388 L 81.723958333333 388 L 80.350446428571 388 L 78.97693452381 388 L 77.603422619048 388 L 76.229910714286 388 L 74.856398809524 388 L 73.482886904762 388 L 72.109375 388 L 70.735863095238 388 L 69.362351190476 388 L 67.988839285714 388 L 66.615327380952 388 L 65.241815476191 388 L 63.868303571429 388 L 62.494791666667 388 L 61.121279761905 388 L 59.747767857143 388 L 58.374255952381 388 L 57.000744047619 388 L 55.627232142857 388 L 54.253720238095 388 L 52.880208333333 388 L 51.506696428571 388 L 50.13318452381 388 L 48.759672619048 388 L 47.386160714286 388 L 46.012648809524 388 L 44.639136904762 388 L 43.265625 388 L 41.892113095238 388 L 40.518601190476 388 L 39.145089285714 388 L 37.771577380952 388 L 36.398065476191 388 L 35.024553571429 388 L 33.651041666667 388 L 32.277529761905 388 L 30.904017857143 388 L 29.530505952381 388 L 28.156994047619 388 L 26.783482142857 388 L 25.409970238095 388 L 24.036458333333 388 L 22.662946428571 388 L 21.28943452381 388 L 19.915922619048 388 L 18.542410714286 388 L 17.168898809524 388 L 15.795386904762 388 L 14.421875 388 L 13.048363095238 388 L 11.674851190476 388 L 10.301339285714 388 L 8.9278273809524 388 L 7.5543154761905 388 L 6.1808035714286 388 L 4.8072916666667 388 L 3.4337797619048 388 L 2.0602678571429 388 L 0.68675595238095 388 Z" class="highcharts-area" data-z-index="0" fill-opacity="0.75"></path><path fill="none" d="M 0.68675595238095 173.60284 L 2.0602678571429 175.750905 L 3.4337797619048 176.29168 L 4.8072916666667 176.72818 L 6.1808035714286 179.644 L 7.5543154761905 180.00678 L 8.9278273809524 181.873545 L 10.301339285714 182.91387 L 11.674851190476 183.82858 L 13.048363095238 183.736915 L 14.421875 182.382795 L 15.795386904762 182.88186 L 17.168898809524 181.25808 L 18.542410714286 182.23002 L 19.915922619048 180.985025 L 21.28943452381 180.33561 L 22.662946428571 179.03969 L 24.036458333333 178.15311 L 25.409970238095 174.56605 L 26.783482142857 171.30685 L 28.156994047619 163.765585 L 29.530505952381 159.543175 L 30.904017857143 153.688255 L 32.277529761905 145.2769 L 33.651041666667 128.516755 L 35.024553571429 120.44975 L 36.398065476191 116.13227999999998 L 37.771577380952 111.24687499999999 L 39.145089285714 105.17225000000002 L 40.518601190476 98.98316499999999 L 41.892113095238 94.91741000000002 L 43.265625 90.768235 L 44.639136904762 87.27866 L 46.012648809524 83.42872999999997 L 47.386160714286 80.57353499999999 L 48.759672619048 78.05590000000001 L 50.13318452381 81.37766499999998 L 51.506696428571 75.98058500000002 L 52.880208333333 74.800095 L 54.253720238095 74.92959000000002 L 55.627232142857 74.36795999999998 L 57.000744047619 73.82767000000001 L 58.374255952381 72.97795000000002 L 59.747767857143 72.67967499999997 L 61.121279761905 71.97496999999998 L 62.494791666667 69.91905500000001 L 63.868303571429 67.495025 L 65.241815476191 67.66525999999999 L 66.615327380952 69.77792 L 67.988839285714 70.94385999999997 L 69.362351190476 72.92169000000001 L 70.735863095238 74.49212 L 72.109375 72.29410000000001 L 73.482886904762 73.78692999999998 L 74.856398809524 77.17271499999998 L 76.229910714286 78.26639 L 77.603422619048 77.96229499999998 L 78.97693452381 77.29154 L 80.350446428571 81.27387499999998 L 81.723958333333 81.28793999999999 L 83.097470238095 83.31135999999998 L 84.470982142857 84.63832000000002 L 85.844494047619 86.50120500000003 L 87.218005952381 85.89544000000001 L 88.591517857143 85.98370999999997 L 89.965029761905 88.27436499999999 L 91.338541666667 88.82096000000001 L 92.712053571429 89.48686500000002 L 94.085565476191 85.49385999999998 L 95.459077380952 85.762065 L 96.832589285714 83.226 L 98.206101190476 81.12401 L 99.579613095238 82.73129999999998 L 100.953125 83.5752 L 102.32663690476 83.92536999999999 L 103.70014880952 82.477645 L 105.07366071428 84.35604999999998 L 106.44717261905 86.49732499999999 L 107.82068452381 87.97463499999998 L 109.19419642857 88.09588500000001 L 110.56770833333 88.59931499999999 L 111.94122023809 89.62218000000001 L 113.31473214286 89.99466000000001 L 114.68824404762 92.72424000000001 L 116.06175595238 97.46705500000002 L 117.43526785714 100.13213000000002 L 118.8087797619 106.64179999999999 L 120.18229166667 108.89510999999999 L 121.55580357143 114.66418499999997 L 122.92931547619 119.40263499999998 L 124.30282738095 124.43644999999998 L 125.67633928571 129.90821999999997 L 127.04985119048 138.726975 L 128.42336309524 140.6694 L 129.796875 145.26429 L 131.17038690476 148.40321 L 132.54389880952 152.021795 L 133.91741071428 154.81297 L 135.29092261905 158.016395 L 136.66443452381 159.714865 L 138.03794642857 161.48657 L 139.41145833333 162.43523 L 140.78497023809 162.185455 L 142.15848214286 163.92127 L 143.53199404762 167.832795 L 144.90550595238 166.816235 L 146.27901785714 166.919055 L 147.6525297619 168.616555 L 149.02604166667 167.74501 L 150.39955357143 166.209015 L 151.77306547619 165.993675 L 153.14657738095 164.677385 L 154.52008928571 161.01127 L 155.89360119048 159.171665 L 157.26711309524 158.183235 L 158.640625 156.79759 L 160.01413690476 152.67994 L 161.38764880952 149.550235 L 162.76116071428 144.180315 L 164.13467261905 135.872265 L 165.50818452381 121.43575499999997 L 166.88169642857 111.62565999999998 L 168.25520833333 108.13560000000001 L 169.62872023809 102.755495 L 171.00223214286 96.02902999999998 L 172.37574404762 90.45007500000003 L 173.74925595238 88.43684000000002 L 175.12276785714 84.95066000000003 L 176.4962797619 82.02125999999998 L 177.86979166667 79.61711500000001 L 179.24330357143 76.98550499999999 L 180.61681547619 75.78804000000002 L 181.99032738095 80.19523500000003 L 183.36383928571 76.21775000000002 L 184.73735119048 73.895085 L 186.11086309524 75.043565 L 187.484375 77.72852499999999 L 188.85788690476 76.53688 L 190.23139880952 75.61149999999998 L 191.60491071428 75.183245 L 192.97842261905 76.251215 L 194.35193452381 76.31329499999998 L 195.72544642857 74.02846 L 197.09895833333 70.03399999999999 L 198.47247023809 75.81471499999998 L 199.84598214286 75.40780000000001 L 201.21949404762 73.16224999999997 L 202.59300595238 74.59930500000002 L 203.96651785714 77.36962499999998 L 205.3400297619 79.48325499999999 L 206.71354166667 83.405935 L 208.08705357143 85.48901000000001 L 209.46056547619 86.50023499999998 L 210.83407738095 91.39631000000003 L 212.20758928571 94.56142 L 213.58110119048 96.76768499999997 L 214.95461309524 99.19753500000002 L 216.328125 101.11765000000003 L 217.70163690476 104.031045 L 219.07514880952 104.78715999999997 L 220.44866071428 105.76734499999998 L 221.82217261905 105.80323499999997 L 223.19568452381 108.457155 L 224.56919642857 109.57362499999999 L 225.94270833333 106.24555500000002 L 227.31622023809 107.410525 L 228.68973214286 107.58366999999998 L 230.06324404762 106.20966499999997 L 231.43675595238 104.88367499999998 L 232.81026785714 104.13386500000001 L 234.1837797619 100.59870000000001 L 235.55729166667 99.44439999999997 L 236.93080357143 96.76623000000001 L 238.30431547619 99.15776499999998 L 239.67782738095 100.33873999999997 L 241.05133928571 101.33347500000002 L 242.42485119048 101.03811000000002 L 243.79836309524 102.94900999999999 L 245.171875 103.18472000000003 L 246.54538690476 104.25948 L 247.91889880952 108.71420499999999 L 249.29241071428 112.46568000000002 L 250.66592261905 116.76472000000001 L 252.03943452381 120.04428999999999 L 253.41294642857 122.99551500000001 L 254.78645833333 127.74172499999997 L 256.15997023809 131.804085 L 257.53348214286 135.58272 L 258.90699404762 141.603995 L 260.28050595238 144.509145 L 261.65401785714 147.686865 L 263.0275297619 150.40335 L 264.40104166667 154.133 L 265.77455357143 159.62708 L 267.14806547619 160.249335 L 268.52157738095 161.414305 L 269.89508928571 163.580315 L 271.26860119048 165.27151 L 272.64211309524 165.82732 L 274.015625 166.861825 L 275.38913690476 167.57138 L 276.76264880952 169.6239 L 278.13616071428 168.71501 L 279.50967261905 169.419715 L 280.88318452381 168.7315 L 282.25669642857 167.645585 L 283.63020833333 167.491355 L 285.00372023809 165.825865 L 286.37723214286 162.46433 L 287.75074404762 160.2537 L 289.12425595238 158.68036 L 290.49776785714 157.407235 L 291.8712797619 151.279745 L 293.24479166667 147.383255 L 294.61830357143 142.750535 L 295.99181547619 135.20636 L 297.36532738095 123.17011500000001 L 298.73883928571 114.79319500000003 L 300.11235119048 108.86115999999998 L 301.48586309524 103.02612499999998 L 302.859375 96.86371500000001 L 304.23288690476 91.68925000000002 L 305.60639880952 86.93236999999999 L 306.97991071428 86.05694499999998 L 308.35342261905 83.18331999999998 L 309.72693452381 80.56480499999998 L 311.10044642857 78.55884500000002 L 312.47395833333 78.90804500000002 L 313.84747023809 83.96950500000003 L 315.22098214286 84.58594 L 316.59449404762 83.79296499999998 L 317.96800595238 84.86529999999999 L 319.34151785714 84.38806 L 320.7150297619 81.54353500000002 L 322.08854166667 86.10350499999998 L 323.46205357143 87.56141500000001 L 324.83556547619 89.03581500000001 L 326.20907738095 89.59162500000002 L 327.58258928571 89.66485999999998 L 328.95610119048 92.91145 L 330.32961309524 96.69833 L 331.703125 96.692995 L 333.07663690476 98.027715 L 334.45014880952 98.34539000000001 L 335.82366071428 102.20647500000001 L 337.19717261905 106.040885 L 338.57068452381 107.366875 L 339.94419642857 109.96065499999997 L 341.31770833333 110.59600499999999 L 342.69122023809 114.83005500000002 L 344.06473214286 115.08467999999999 L 345.43824404762 116.88790999999998 L 346.81175595238 115.043455 L 348.18526785714 117.643055 L 349.5587797619 118.51217500000001 L 350.93229166667 117.55963500000001 L 352.30580357143 113.29793999999998 L 353.67931547619 116.86075 L 355.05282738095 119.54619500000001 L 356.42633928571 120.523955 L 357.79985119048 117.28755000000001 L 359.17336309524 116.97763500000002 L 360.546875 115.447945 L 361.92038690476 112.463255 L 363.29389880952 109.1832 L 364.66741071428 107.89213000000001 L 366.04092261905 105.669375 L 367.41443452381 104.24832500000002 L 368.78794642857 100.29703 L 370.16145833333 101.19185499999998 L 371.53497023809 101.14675 L 372.90848214286 102.17106999999999 L 374.28199404762 102.80351000000002 L 375.65550595238 103.38454000000002 L 377.02901785714 103.93210499999998 L 378.4025297619 105.68538000000001 L 379.77604166667 109.78169000000003 L 381.14955357143 113.90613000000002 L 382.52306547619 118.66980000000001 L 383.89657738095 123.37575500000003 L 385.27008928571 126.144135 L 386.64360119048 129.38830000000002 L 388.01711309524 132.8997 L 389.390625 137.3229 L 390.76413690476 141.38041 L 392.13764880952 145.084355 L 393.51116071428 147.83285 L 394.88467261905 151.199235 L 396.25818452381 156.43287 L 397.63169642857 160.181435 L 399.00520833333 163.36643 L 400.37872023809 165.823925 L 401.75223214286 167.04176 L 403.12574404762 168.704825 L 404.49925595238 170.68993 L 405.87276785714 171.501335 L 407.2462797619 174.11888 L 408.61979166667 174.01024 L 409.99330357143 173.33027 L 411.36681547619 172.782705 L 412.74032738095 173.757555 L 414.11383928571 173.89481 L 415.48735119048 173.026175 L 416.86086309524 170.12539 L 418.234375 167.65383 L 419.60788690476 167.65577 L 420.98139880952 166.777435 L 422.35491071428 164.9194 L 423.72842261905 156.819415 L 425.10193452381 155.800915 L 426.47544642857 151.959715 L 427.84895833333 142.338285 L 429.22247023809 129.10797000000002 L 430.59598214286 120.27175499999998 L 431.96949404762 115.25297499999999 L 433.34300595238 111.87495000000001 L 434.71651785714 103.36901999999998 L 436.0900297619 98.51902000000001 L 437.46354166667 95.59931999999998 L 438.83705357143 90.815765 L 440.21056547619 86.50848000000002 L 441.58407738095 84.95551 L 442.95758928571 83.06788999999998 L 444.33110119048 81.30540000000002 L 445.70461309524 84.12034 L 447.078125 81.10897499999999 L 448.45163690476 79.51089999999999 L 449.82514880952 74.09539000000001 L 451.19866071428 78.364845 L 452.57217261905 79.29895499999998 L 453.94568452381 79.85622000000001 L 455.31919642857 79.59528999999998 L 456.69270833333 83.265285 L 458.06622023809 83.57713999999999 L 459.43973214286 84.869665 L 460.81324404762 85.10343499999999 L 462.18675595238 93.07198499999998 L 463.56026785714 97.05723 L 464.9337797619 98.83621 L 466.30729166667 98.51708000000002 L 467.68080357143 101.81605000000002 L 469.05431547619 105.95697999999999 L 470.42782738095 106.63549499999999 L 471.80133928571 108.89996000000002 L 473.17485119048 112.35461500000002 L 474.54836309524 113.86151000000001 L 475.921875 112.08544 L 477.29538690476 112.151885 L 478.66889880952 114.531295 L 480.04241071428 117.87149 L 481.41592261905 118.78377499999999 L 482.78943452381 118.77553 L 484.16294642857 118.16394500000001 L 485.53645833333 120.10442999999998 L 486.90997023809 121.65303499999999 L 488.28348214286 121.650125 L 489.65699404762 117.08336500000001 L 491.03050595238 117.59116 L 492.40401785714 117.03438 L 493.7775297619 111.91035499999998 L 495.15104166667 107.83829500000002 L 496.52455357143 107.18984999999998 L 497.89806547619 103.07511 L 499.27157738095 101.1807 L 500.64508928571 101.48479500000002 L 502.01860119048 98.63396499999999 L 503.39211309524 98.04081000000002 L 504.765625 101.99501500000002 L 506.13913690476 100.65738499999998 L 507.51264880952 101.79858999999999 L 508.88616071428 102.07455499999998 L 510.25967261905 104.76242500000001 L 511.63318452381 111.19352500000002 L 513.00669642857 112.96037999999999 L 514.38020833333 117.87634000000003 L 515.75372023809 123.00618500000002 L 517.12723214286 127.62532499999998 L 518.50074404762 131.26379500000002 L 519.87425595238 135.322275 L 521.24776785714 140.121835 L 522.6212797619 145.360805 L 523.99479166667 149.447415 L 525.36830357143 154.49578 L 526.74181547619 153.591255 L 528.11532738095 157.132725 L 529.48883928571 161.80085 L 530.86235119048 165.054715 L 532.23586309524 165.230285 L 533.609375 166.28128 L 534.98288690476 167.09511 L 536.35639880952 169.48131 L 537.72991071428 168.09809 L 539.10342261905 169.41535 L 540.47693452381 170.786445 L 541.85044642857 172.74536 L 543.22395833333 171.88206 L 544.59747023809 172.56009 L 545.97098214286 172.04308 L 547.34449404762 171.2147 L 548.71800595238 170.85677 L 550.09151785714 167.05243 L 551.4650297619 164.120605 L 552.83854166667 161.800365 L 554.21205357143 160.182405 L 555.58556547619 154.633035 L 556.95907738095 152.752205 L 558.33258928571 148.82516 L 559.70610119048 141.134515 L 561.07961309524 129.54010499999998 L 562.453125 121.31984 L 563.82663690476 115.50760000000002 L 565.20014880952 110.81134500000002 L 566.57366071428 102.89371999999997 L 567.94717261905 95.73560500000002 L 569.32068452381 90.351135 L 570.69419642857 83.28177499999998 L 572.06770833333 82.10467999999997 L 573.44122023809 78.376485 L 574.81473214286 74.847625 L 576.18824404762 76.59508 L 577.56175595238 81.24331999999998 L 578.93526785714 81.6449 L 580.3087797619 82.36706500000003 L 581.68229166667 84.11888499999998 L 583.05580357143 88.075515 L 584.42931547619 90.67899499999999 L 585.80282738095 93.00408499999998 L 587.17633928571 93.82130999999998 L 588.54985119048 94.71613500000001 L 589.92336309524 93.99882000000002 L 591.296875 95.28164500000003 L 592.67038690476 94.85532999999998 L 594.04389880952 99.61172499999998 L 595.41741071428 103.7027 L 596.79092261905 103.184235 L 598.16443452381 104.43214 L 599.53794642857 107.17626999999999 L 600.91145833333 110.07851 L 602.28497023809 113.08938999999998 L 603.65848214286 116.51203500000003 L 605.03199404762 113.79603500000002 L 606.40550595238 116.68421000000001 L 607.77901785714 118.23863499999999 L 609.1525297619 122.76368500000001 L 610.52604166667 117.90495499999997 L 611.89955357143 124.87101000000001 L 613.27306547619 125.55728499999998 L 614.64657738095 124.67555499999997 L 616.02008928571 122.14385499999997 L 617.39360119048 125.42730499999999 L 618.76711309524 124.31665500000003 L 620.140625 122.06189 L 621.51413690476 120.965305 L 622.88764880952 120.058355 L 624.26116071428 118.44378999999998 L 625.63467261905 116.14343500000001 L 627.00818452381 116.53386 L 628.38169642857 117.05717499999997 L 629.75520833333 116.03625 L 631.12872023809 113.14371 L 632.50223214286 112.72515499999997 L 633.87574404762 111.93606 L 635.24925595238 113.52976999999998 L 636.62276785714 114.63945000000001 L 637.9962797619 116.46886999999998 L 639.36979166667 117.58436999999998 L 640.74330357143 119.56414000000001 L 642.11681547619 120.53947499999998 L 643.49032738095 126.30757999999997 L 644.86383928571 130.523685 L 646.23735119048 133.37694 L 647.61086309524 138.079985 L 648.984375 142.73162 L 650.35788690476 147.33718 L 651.73139880952 152.403975 L 653.10491071428 156.995955 L 654.47842261905 159.024225 L 655.85193452381 163.20929 L 657.22544642857 165.10758 L 658.59895833333 167.11257 L 659.97247023809 169.150055 L 661.34598214286 172.836055 L 662.71949404762 175.149505 L 664.09300595238 176.102045 L 665.46651785714 178.019735 L 666.8400297619 180.68384 L 668.21354166667 181.94193 L 669.58705357143 184.26508 L 670.96056547619 185.966945 L 672.33407738095 186.929185 L 673.70758928571 188.90071 L 675.08110119048 189.36146 L 676.45461309524 188.27991 L 677.828125 189.123325 L 679.20163690476 190.02009 L 680.57514880952 189.291135 L 681.94866071428 189.195105 L 683.32217261905 189.63015 L 684.69568452381 189.08307 L 686.06919642857 188.616985 L 687.44270833333 186.52324 L 688.81622023809 186.709965 L 690.18973214286 184.81313 L 691.56324404762 182.329445 L 692.93675595238 179.8477 L 694.31026785714 178.362145 L 695.6837797619 177.119575 L 697.05729166667 173.455885 L 698.43080357143 169.46676 L 699.80431547619 166.403985 L 701.17782738095 160.47971 L 702.55133928571 160.59805 L 703.92485119048 156.586615 L 705.29836309524 152.851145 L 706.671875 146.633445 L 708.04538690476 142.427525 L 709.41889880952 139.460295 L 710.79241071428 134.10929 L 712.16592261905 131.88799 L 713.53943452381 128.39211 L 714.91294642857 132.756625 L 716.28645833333 133.19846 L 717.65997023809 132.981665 L 719.03348214286 136.51004 L 720.40699404762 138.94086 L 721.78050595238 138.064465 L 723.15401785714 135.84268 L 724.5275297619 136.041045 L 725.90104166667 138.34722 L 727.27455357143 137.73515 L 728.64806547619 138.35595 L 730.02157738095 142.88585 L 731.39508928571 144.28847 L 732.76860119048 146.91523 L 734.14211309524 149.528895 L 735.515625 149.985765 L 736.88913690476 152.145955 L 738.26264880952 151.23367 L 739.63616071428 155.33386 L 741.00967261905 157.33691 L 742.38318452381 156.267485 L 743.75669642857 153.62375 L 745.13020833333 149.80583 L 746.50372023809 152.413675 L 747.87723214286 146.307525 L 749.25074404762 148.587025 L 750.62425595238 151.15898 L 751.99776785714 152.51892 L 753.3712797619 150.77583 L 754.74479166667 154.549615 L 756.11830357143 154.169375 L 757.49181547619 151.235125 L 758.86532738095 146.80077 L 760.23883928571 149.46439 L 761.61235119048 148.58557 L 762.98586309524 146.722685 L 764.359375 142.42025 L 765.73288690476 145.184265 L 767.10639880952 146.38367 L 768.47991071428 149.006065 L 769.85342261905 148.97454 L 771.22693452381 151.01251 L 772.60044642857 150.93879 L 773.97395833333 152.84969 L 775.34747023809 157.521695 L 776.72098214286 158.108545 L 778.09449404762 159.536385 L 779.46800595238 159.994225 L 780.84151785714 164.95529 L 782.2150297619 168.9449 L 783.58854166667 170.75686 L 784.96205357143 172.66485 L 786.33556547619 176.149575 L 787.70907738095 179.84188 L 789.08258928571 183.25919 L 790.45610119048 188.76588 L 791.82961309524 192.13857 L 793.203125 193.724035 L 794.57663690476 193.17259 L 795.95014880952 194.680455 L 797.32366071428 198.833025 L 798.69717261905 199.420845 L 800.07068452381 201.94818 L 801.44419642857 203.808155 L 802.81770833333 204.44302 L 804.19122023809 206.265165 L 805.56473214286 209.33376 L 806.93824404762 210.30764 L 808.31175595238 210.63065 L 809.68526785714 212.111355 L 811.0587797619 212.22242 L 812.43229166667 211.612775 L 813.80580357143 210.471085 L 815.17931547619 210.844535 L 816.55282738095 211.6734 L 817.92633928571 211.62005 L 819.29985119048 210.250895 L 820.67336309524 209.877445 L 822.046875 210.60446 L 823.42038690476 207.211885 L 824.79389880952 204.549235 L 826.16741071428 200.961205 L 827.54092261905 199.23606 L 828.91443452381 197.89067 L 830.28794642857 196.048155 L 831.66145833333 192.956765 L 833.03497023809 188.41959 L 834.40848214286 183.34649 L 835.78199404762 178.821925 L 837.15550595238 176.926545 L 838.52901785714 172.686675 L 839.9025297619 183.460465 L 841.27604166667 171.715705 L 842.64955357143 169.410985 L 844.02306547619 167.07474 L 845.39657738095 164.44216 L 846.77008928571 162.62147 L 848.14360119048 161.65923 L 849.51711309524 159.55239 L 850.890625 156.143325 L 852.26413690476 155.39691 L 853.63764880952 151.376745 L 855.01116071428 149.339745 L 856.38467261905 150.58086 L 857.75818452381 152.04459 L 859.13169642857 153.69456 L 860.50520833333 155.89646 L 861.87872023809 154.355615 L 863.25223214286 152.2221 L 864.62574404762 154.67232 L 865.99925595238 155.882395 L 867.37276785714 158.233675 L 868.7462797619 157.866045 L 870.11979166667 159.926325 L 871.49330357143 160.69311 L 872.86681547619 161.273655 L 874.24032738095 162.717015 L 875.61383928571 166.258 L 876.98735119048 169.78007 L 878.36086309524 169.76261 L 879.734375 170.652585 L 881.10788690476 174.90167 L 882.48139880952 174.777025 L 883.85491071428 175.8998 L 885.22842261905 169.28149 L 886.60193452381 170.235 L 887.97544642857 163.989655 L 889.34895833333 162.483245 L 890.72247023809 155.50167 L 892.09598214286 154.527305 L 893.46949404762 152.58003 L 894.84300595238 149.67003 L 896.21651785714 146.49425 L 897.5900297619 150.56437 L 898.96354166667 147.03842 L 900.33705357143 147.098075 L 901.71056547619 146.881765 L 903.08407738095 147.89105 L 904.45758928571 177.610395 L 905.83110119048 147.350275 L 907.20461309524 150.289375 L 908.578125 153.12614 L 909.95163690476 156.043415 L 911.32514880952 157.33982 L 912.69866071428 158.478115 L 914.07217261905 159.521835 L 915.44568452381 162.264995 L 916.81919642857 163.82136 L 918.19270833333 167.80903 L 919.56622023809 171.949475 L 920.93973214286 174.279415 L 922.31324404762 179.338935" class="highcharts-graph" data-z-index="1" stroke="rgb(50,50,50)" stroke-width="0" stroke-linejoin="round" stroke-linecap="round" filter="none"></path></g><g class="highcharts-markers highcharts-series-0 highcharts-area-series" data-z-index="0.1" opacity="1" transform="translate(91,67) scale(1 1)" clip-path="none"></g><g class="highcharts-series highcharts-series-1 highcharts-line-series highcharts-color-0" data-z-index="0.1" opacity="1" transform="translate(91,67) scale(1 1)" clip-path="url(#highcharts-ldp1kcv-2025-)"><path fill="none" d="M 0.68675595238095 171.57263 L 2.0602678571429 172.10807 L 3.4337797619048 174.494755 L 4.8072916666667 176.057425 L 6.1808035714286 177.78548 L 7.5543154761905 179.65467 L 8.9278273809524 181.329375 L 10.301339285714 182.634995 L 11.674851190476 183.375105 L 13.048363095238 183.634095 L 14.421875 184.083205 L 15.795386904762 183.965835 L 17.168898809524 183.53176 L 18.542410714286 183.562315 L 19.915922619048 182.96334 L 21.28943452381 181.28427 L 22.662946428571 179.01544 L 24.036458333333 177.1608 L 25.409970238095 174.720765 L 26.783482142857 171.078415 L 28.156994047619 164.80494 L 29.530505952381 161.674265 L 30.904017857143 153.85558 L 32.277529761905 146.69019 L 33.651041666667 134.61951 L 35.024553571429 125.436035 L 36.398065476191 117.92435499999999 L 37.771577380952 110.91319499999997 L 39.145089285714 102.98053499999997 L 40.518601190476 96.06491999999997 L 41.892113095238 90.80169999999998 L 43.265625 87.504185 L 44.639136904762 83.24782499999998 L 46.012648809524 79.51720499999999 L 47.386160714286 76.26673499999998 L 48.759672619048 75.76718499999998 L 50.13318452381 75.74487499999998 L 51.506696428571 72.41825999999998 L 52.880208333333 71.57969500000002 L 54.253720238095 69.30892499999999 L 55.627232142857 68.981065 L 57.000744047619 67.72345999999999 L 58.374255952381 66.343635 L 59.747767857143 66.32956999999999 L 61.121279761905 66.65403500000002 L 62.494791666667 64.649045 L 63.868303571429 65.95369499999998 L 65.241815476191 68.143955 L 66.615327380952 70.82551999999998 L 67.988839285714 70.96713999999997 L 69.362351190476 71.14076999999997 L 70.735863095238 72.82905499999998 L 72.109375 74.00566500000002 L 73.482886904762 75.79289 L 74.856398809524 79.68065000000001 L 76.229910714286 81.43635 L 77.603422619048 81.827745 L 78.97693452381 83.55288999999999 L 80.350446428571 85.43954000000002 L 81.723958333333 86.90860500000002 L 83.097470238095 87.48430000000002 L 84.470982142857 89.58726000000001 L 85.844494047619 93.15928500000001 L 87.218005952381 94.70352500000001 L 88.591517857143 95.79283500000003 L 89.965029761905 98.40359000000001 L 91.338541666667 98.06797 L 92.712053571429 99.74315999999999 L 94.085565476191 97.81576999999999 L 95.459077380952 98.12277499999999 L 96.832589285714 97.63341000000003 L 98.206101190476 97.32834500000001 L 99.579613095238 97.087785 L 100.953125 95.51492999999999 L 102.32663690476 95.94463999999999 L 103.70014880952 95.81223499999999 L 105.07366071428 94.55948000000001 L 106.44717261905 95.73075499999999 L 107.82068452381 95.22732500000001 L 109.19419642857 96.50142 L 110.56770833333 99.32024000000001 L 111.94122023809 99.88235500000002 L 113.31473214286 102.31948 L 114.68824404762 105.71253999999999 L 116.06175595238 109.23460999999998 L 117.43526785714 112.97881000000001 L 118.8087797619 117.06590499999999 L 120.18229166667 119.30757499999999 L 121.55580357143 122.90239500000001 L 122.92931547619 126.13492000000002 L 124.30282738095 130.451905 L 125.67633928571 135.064255 L 127.04985119048 140.144145 L 128.42336309524 143.68998 L 129.796875 146.296855 L 131.17038690476 149.23741 L 132.54389880952 152.38021 L 133.91741071428 155.101545 L 135.29092261905 158.20021 L 136.66443452381 159.64066 L 138.03794642857 161.559805 L 139.41145833333 163.52842 L 140.78497023809 164.154555 L 142.15848214286 164.757895 L 143.53199404762 165.754085 L 144.90550595238 166.06691 L 146.27901785714 166.34239 L 147.6525297619 165.789975 L 149.02604166667 165.514495 L 150.39955357143 165.23853 L 151.77306547619 164.84277 L 153.14657738095 163.917875 L 154.52008928571 162.426985 L 155.89360119048 161.14804 L 157.26711309524 158.73565 L 158.640625 156.186005 L 160.01413690476 150.49453 L 161.38764880952 146.295885 L 162.76116071428 143.566305 L 164.13467261905 136.555145 L 165.50818452381 125.74304000000001 L 166.88169642857 117.42043999999999 L 168.25520833333 111.31720000000001 L 169.62872023809 105.85318999999998 L 171.00223214286 98.95406500000001 L 172.37574404762 93.44592 L 173.74925595238 87.58906000000002 L 175.12276785714 83.65716500000002 L 176.4962797619 79.24221 L 177.86979166667 78.28918499999997 L 179.24330357143 76.262855 L 180.61681547619 75.43981000000002 L 181.99032738095 76.92099999999999 L 183.36383928571 74.5154 L 184.73735119048 73.59778 L 186.11086309524 72.79171000000002 L 187.484375 73.68653499999999 L 188.85788690476 71.792125 L 190.23139880952 72.41728999999998 L 191.60491071428 72.50071000000003 L 192.97842261905 72.80771499999997 L 194.35193452381 72.51817 L 195.72544642857 74.15698500000002 L 197.09895833333 75.124075 L 198.47247023809 75.36705999999998 L 199.84598214286 76.89868999999999 L 201.21949404762 78.52344 L 202.59300595238 79.64281999999997 L 203.96651785714 82.12893000000003 L 205.3400297619 83.33173 L 206.71354166667 84.507855 L 208.08705357143 86.436215 L 209.46056547619 89.04890999999998 L 210.83407738095 90.97824000000003 L 212.20758928571 91.38175999999999 L 213.58110119048 94.71370999999999 L 214.95461309524 93.80918500000001 L 216.328125 96.530035 L 217.70163690476 99.71503000000001 L 219.07514880952 102.022175 L 220.44866071428 101.86842999999999 L 221.82217261905 102.53482000000002 L 223.19568452381 103.45777500000003 L 224.56919642857 103.67263000000003 L 225.94270833333 102.37913500000002 L 227.31622023809 100.89940000000001 L 228.68973214286 101.40525500000001 L 230.06324404762 100.605005 L 231.43675595238 97.58103 L 232.81026785714 97.40255000000002 L 234.1837797619 96.14979499999998 L 235.55729166667 94.88976500000001 L 236.93080357143 93.83974 L 238.30431547619 94.56432999999998 L 239.67782738095 94.12007 L 241.05133928571 95.25497000000001 L 242.42485119048 97.17702500000001 L 243.79836309524 99.14078999999998 L 245.171875 101.99356 L 246.54538690476 104.38073000000003 L 247.91889880952 108.21319999999997 L 249.29241071428 110.81328500000001 L 250.66592261905 115.296625 L 252.03943452381 118.70666 L 253.41294642857 123.11045999999999 L 254.78645833333 127.32414 L 256.15997023809 131.08871 L 257.53348214286 135.23255 L 258.90699404762 139.280845 L 260.28050595238 143.228745 L 261.65401785714 146.318195 L 263.0275297619 149.53423 L 264.40104166667 157.185105 L 265.77455357143 159.419015 L 267.14806547619 160.12178 L 268.52157738095 162.592855 L 269.89508928571 164.545465 L 271.26860119048 166.25218 L 272.64211309524 167.680505 L 274.015625 168.298395 L 275.38913690476 169.01571 L 276.76264880952 170.26022 L 278.13616071428 170.065735 L 279.50967261905 169.9731 L 280.88318452381 170.872775 L 282.25669642857 172.009615 L 283.63020833333 171.04689 L 285.00372023809 169.306225 L 286.37723214286 167.64025 L 287.75074404762 165.51304 L 289.12425595238 162.47015 L 290.49776785714 158.629435 L 291.8712797619 153.042235 L 293.24479166667 149.334895 L 294.61830357143 147.82121 L 295.99181547619 140.76349 L 297.36532738095 130.41746999999998 L 298.73883928571 122.03181999999998 L 300.11235119048 114.87806999999998 L 301.48586309524 107.63508000000002 L 302.859375 97.95447999999999 L 304.23288690476 90.94089500000001 L 305.60639880952 86.20729499999999 L 306.97991071428 82.83605999999997 L 308.35342261905 79.14569499999999 L 309.72693452381 76.85989000000001 L 311.10044642857 75.35541999999998 L 312.47395833333 76.45782500000001 L 313.84747023809 75.68764499999997 L 315.22098214286 72.25432999999998 L 316.59449404762 70.96083499999997 L 317.96800595238 69.89722999999998 L 319.34151785714 71.55883999999998 L 320.7150297619 66.392135 L 322.08854166667 68.66726999999997 L 323.46205357143 69.260425 L 324.83556547619 64.857595 L 326.20907738095 66.05603000000002 L 327.58258928571 68.18421000000001 L 328.95610119048 69.48498000000001 L 330.32961309524 70.72464000000002 L 331.703125 70.98266000000001 L 333.07663690476 74.32236999999998 L 334.45014880952 72.14956999999998 L 335.82366071428 77.04613 L 337.19717261905 80.10599500000001 L 338.57068452381 82.29237499999999 L 339.94419642857 84.06990000000002 L 341.31770833333 85.49046499999997 L 342.69122023809 88.27436499999999 L 344.06473214286 89.49898999999999 L 345.43824404762 91.57673 L 346.81175595238 89.49608 L 348.18526785714 94.78985499999999 L 349.5587797619 95.35924499999999 L 350.93229166667 98.829905 L 352.30580357143 98.79789499999998 L 353.67931547619 99.234395 L 355.05282738095 97.911315 L 356.42633928571 98.97637500000002 L 357.79985119048 100.81695000000002 L 359.17336309524 94.99161500000002 L 360.546875 97.26529499999998 L 361.92038690476 98.62959999999998 L 363.29389880952 97.03249499999998 L 364.66741071428 99.908545 L 366.04092261905 96.54555499999998 L 367.41443452381 95.64587999999998 L 368.78794642857 93.98184500000002 L 370.16145833333 94.71322500000002 L 371.53497023809 97.14938000000001 L 372.90848214286 97.40643 L 374.28199404762 99.47010499999999 L 375.65550595238 99.82076 L 377.02901785714 101.31844000000001 L 378.4025297619 103.02515499999998 L 379.77604166667 108.32571999999999 L 381.14955357143 112.115995 L 382.52306547619 116.17786999999998 L 383.89657738095 120.16554000000002 L 385.27008928571 124.53393499999999 L 386.64360119048 128.82521500000001 L 388.01711309524 134.00647 L 389.390625 138.150795 L 390.76413690476 143.84324 L 392.13764880952 147.18198 L 393.51116071428 149.936295 L 394.88467261905 152.898675 L 396.25818452381 158.597425 L 397.63169642857 161.433705 L 399.00520833333 163.50611 L 400.37872023809 165.21234 L 401.75223214286 167.528215 L 403.12574404762 169.66076 L 404.49925595238 170.9237 L 405.87276785714 171.269505 L 407.2462797619 172.706075 L 408.61979166667 173.512145 L 409.99330357143 173.444245 L 411.36681547619 172.975735 L 412.74032738095 172.2817 L 414.11383928571 172.988345 L 415.48735119048 171.63083 L 416.86086309524 170.8073 L 418.234375 169.375095 L 419.60788690476 167.83425 L 420.98139880952 165.123585 L 422.35491071428 165.517405 L 423.72842261905 159.387005 L 425.10193452381 155.19127 L 426.47544642857 149.6128 L 427.84895833333 143.356785 L 429.22247023809 132.921525 L 430.59598214286 124.87149499999998 L 431.96949404762 119.22658000000001 L 433.34300595238 113.16602 L 434.71651785714 106.68351000000001 L 436.0900297619 100.74080500000002 L 437.46354166667 95.33596499999999 L 438.83705357143 91.08494000000002 L 440.21056547619 87.12151999999998 L 441.58407738095 84.17708499999998 L 442.95758928571 82.68668000000002 L 444.33110119048 80.87277999999998 L 445.70461309524 80.55849999999998 L 447.078125 80.40039000000002 L 448.45163690476 79.12774999999999 L 449.82514880952 78.29112500000002 L 451.19866071428 79.398865 L 452.57217261905 77.19551000000001 L 453.94568452381 76.33706000000001 L 455.31919642857 77.85074500000002 L 456.69270833333 78.21061500000002 L 458.06622023809 77.95114000000001 L 459.43973214286 77.50251500000002 L 460.81324404762 77.957445 L 462.18675595238 79.41874999999999 L 463.56026785714 81.1017 L 464.9337797619 81.87479000000002 L 466.30729166667 83.32882000000001 L 467.68080357143 85.81638500000003 L 469.05431547619 85.565155 L 470.42782738095 89.39277499999997 L 471.80133928571 93.00505500000003 L 473.17485119048 94.52504499999998 L 474.54836309524 96.03775999999999 L 475.921875 97.32737500000002 L 477.29538690476 97.43358999999998 L 478.66889880952 98.00103999999999 L 480.04241071428 100.245135 L 481.41592261905 104.658635 L 482.78943452381 106.04331000000002 L 484.16294642857 106.34158500000001 L 485.53645833333 106.40899999999999 L 486.90997023809 108.82526999999999 L 488.28348214286 107.48376000000002 L 489.65699404762 106.98227000000003 L 491.03050595238 106.33334000000002 L 492.40401785714 104.72459500000002 L 493.7775297619 103.125065 L 495.15104166667 100.55650500000002 L 496.52455357143 99.88186999999999 L 497.89806547619 98.909445 L 499.27157738095 98.736785 L 500.64508928571 97.44232 L 502.01860119048 99.82560999999998 L 503.39211309524 101.67734000000002 L 504.765625 102.78653500000001 L 506.13913690476 105.58304500000003 L 507.51264880952 107.54777999999999 L 508.88616071428 109.90681999999998 L 510.25967261905 112.09611000000001 L 511.63318452381 115.26316000000003 L 513.00669642857 118.16734000000002 L 514.38020833333 122.31020999999998 L 515.75372023809 126.03598 L 517.12723214286 129.04249499999997 L 518.50074404762 133.31389 L 519.87425595238 137.065365 L 521.24776785714 141.47547 L 522.6212797619 146.229925 L 523.99479166667 150.07743 L 525.36830357143 153.64024 L 526.74181547619 157.088105 L 528.11532738095 159.735235 L 529.48883928571 162.72041 L 530.86235119048 164.99603 L 532.23586309524 167.43752 L 533.609375 169.23881 L 534.98288690476 171.15941 L 536.35639880952 172.078 L 537.72991071428 172.83945 L 539.10342261905 174.19454 L 540.47693452381 175.058325 L 541.85044642857 174.86384 L 543.22395833333 174.68536 L 544.59747023809 174.442375 L 545.97098214286 174.657715 L 547.34449404762 173.83758 L 548.71800595238 173.22648 L 550.09151785714 170.61233 L 551.4650297619 169.26306 L 552.83854166667 167.367195 L 554.21205357143 165.19197 L 555.58556547619 160.30511 L 556.95907738095 156.438205 L 558.33258928571 151.85932 L 559.70610119048 146.27309 L 561.07961309524 135.40812 L 562.453125 128.03418 L 563.82663690476 121.93482 L 565.20014880952 115.82818500000002 L 566.57366071428 107.84314499999999 L 567.94717261905 102.14245499999998 L 569.32068452381 96.69542000000001 L 570.69419642857 93.312545 L 572.06770833333 88.828235 L 573.44122023809 86.065675 L 574.81473214286 83.14839999999998 L 576.18824404762 81.89176500000002 L 577.56175595238 84.89488499999999 L 578.93526785714 82.41507999999999 L 580.3087797619 81.42277000000001 L 581.68229166667 80.36547000000002 L 583.05580357143 81.511525 L 584.42931547619 79.34648499999997 L 585.80282738095 78.911925 L 587.17633928571 77.00538999999998 L 588.54985119048 78.63207999999997 L 589.92336309524 78.24698999999998 L 591.296875 78.412375 L 592.67038690476 79.40274499999998 L 594.04389880952 83.34337 L 595.41741071428 85.06027 L 596.79092261905 86.03948500000001 L 598.16443452381 86.47889500000002 L 599.53794642857 89.81326999999999 L 600.91145833333 92.68059 L 602.28497023809 96.44564500000001 L 603.65848214286 99.176195 L 605.03199404762 99.82173 L 606.40550595238 103.34476999999998 L 607.77901785714 104.241535 L 609.1525297619 106.60251499999998 L 610.52604166667 107.56330000000003 L 611.89955357143 108.91354000000001 L 613.27306547619 109.96695999999997 L 614.64657738095 111.22892999999999 L 616.02008928571 110.50773500000003 L 617.39360119048 110.70803999999998 L 618.76711309524 112.99432999999999 L 620.140625 112.90314999999998 L 621.51413690476 109.989755 L 622.88764880952 108.39168000000001 L 624.26116071428 109.71476000000001 L 625.63467261905 110.31324999999998 L 627.00818452381 110.63529 L 628.38169642857 110.98206499999998 L 629.75520833333 110.628985 L 631.12872023809 111.24542000000002 L 632.50223214286 110.42189000000002 L 633.87574404762 111.73575499999998 L 635.24925595238 113.36341499999997 L 636.62276785714 113.55741499999999 L 637.9962797619 116.55908 L 639.36979166667 117.57806499999998 L 640.74330357143 120.64278000000002 L 642.11681547619 123.578485 L 643.49032738095 126.819255 L 644.86383928571 130.45093500000002 L 646.23735119048 134.184465 L 647.61086309524 137.762795 L 648.984375 140.900745 L 650.35788690476 144.69975 L 651.73139880952 148.17914 L 653.10491071428 151.93789 L 654.47842261905 156.16903 L 655.85193452381 160.254185 L 657.22544642857 163.00559 L 658.59895833333 166.48498 L 659.97247023809 170.012385 L 661.34598214286 173.514085 L 662.71949404762 175.84936 L 664.09300595238 177.897515 L 665.46651785714 180.601875 L 666.8400297619 182.83627 L 668.21354166667 184.996945 L 669.58705357143 186.828305 L 670.96056547619 187.90646 L 672.33407738095 188.789645 L 673.70758928571 189.77759 L 675.08110119048 190.275685 L 676.45461309524 190.263075 L 677.828125 190.60985 L 679.20163690476 190.652045 L 680.57514880952 190.73595 L 681.94866071428 190.268895 L 683.32217261905 189.905145 L 684.69568452381 189.5089 L 686.06919642857 189.172795 L 687.44270833333 187.888515 L 688.81622023809 187.4816 L 690.18973214286 186.72888 L 691.56324404762 184.838835 L 692.93675595238 181.13101 L 694.31026785714 178.366025 L 695.6837797619 176.13648 L 697.05729166667 173.91518 L 698.43080357143 169.5851 L 699.80431547619 165.952935 L 701.17782738095 161.247465 L 702.55133928571 157.11284 L 703.92485119048 151.996575 L 705.29836309524 146.955485 L 706.671875 142.63171 L 708.04538690476 139.794945 L 709.41889880952 136.394125 L 710.79241071428 133.285275 L 712.16592261905 129.68463500000001 L 713.53943452381 125.94334500000002 L 714.91294642857 123.3646 L 716.28645833333 123.66384499999998 L 717.65997023809 121.92366500000003 L 719.03348214286 121.40180500000002 L 720.40699404762 122.21321 L 721.78050595238 121.82036 L 723.15401785714 121.92415 L 724.5275297619 123.50913000000003 L 725.90104166667 125.668835 L 727.27455357143 127.20919500000002 L 728.64806547619 126.34152999999998 L 730.02157738095 131.466525 L 731.39508928571 132.862355 L 732.76860119048 136.171025 L 734.14211309524 136.36357 L 735.515625 139.36378 L 736.88913690476 142.04292 L 738.26264880952 144.558615 L 739.63616071428 146.161055 L 741.00967261905 149.121495 L 742.38318452381 148.14616 L 743.75669642857 150.300045 L 745.13020833333 151.68763 L 746.50372023809 152.032465 L 747.87723214286 150.759825 L 749.25074404762 152.82544 L 750.62425595238 151.54892 L 751.99776785714 151.94565 L 753.3712797619 148.53804 L 754.74479166667 149.46148 L 756.11830357143 147.493835 L 757.49181547619 144.469375 L 758.86532738095 142.58806 L 760.23883928571 141.049155 L 761.61235119048 139.193545 L 762.98586309524 137.711385 L 764.359375 137.4975 L 765.73288690476 137.82827 L 767.10639880952 138.09502 L 768.47991071428 139.10285 L 769.85342261905 139.638775 L 771.22693452381 141.76744 L 772.60044642857 144.40196 L 773.97395833333 145.98694 L 775.34747023809 149.2927 L 776.72098214286 151.499935 L 778.09449404762 154.455525 L 779.46800595238 157.15649 L 780.84151785714 159.607195 L 782.2150297619 162.06857 L 783.58854166667 165.28994 L 784.96205357143 168.487545 L 786.33556547619 172.1944 L 787.70907738095 174.793515 L 789.08258928571 177.686055 L 790.45610119048 180.36762 L 791.82961309524 179.207015 L 793.203125 181.82747 L 794.57663690476 184.65696 L 795.95014880952 186.727425 L 797.32366071428 189.085495 L 798.69717261905 190.90182 L 800.07068452381 192.133235 L 801.44419642857 193.59551 L 802.81770833333 194.38121 L 804.19122023809 195.272155 L 805.56473214286 195.995775 L 806.93824404762 196.70921 L 808.31175595238 196.7354 L 809.68526785714 197.215065 L 811.0587797619 197.508005 L 812.43229166667 197.200515 L 813.80580357143 196.68496 L 815.17931547619 196.51327 L 816.55282738095 196.375045 L 817.92633928571 195.77898 L 819.29985119048 194.229405 L 820.67336309524 193.85159 L 822.046875 194.311855 L 823.42038690476 193.157555 L 824.79389880952 190.362985 L 826.16741071428 187.62516 L 827.54092261905 184.7947 L 828.91443452381 182.59086 L 830.28794642857 179.13669 L 831.66145833333 176.223295 L 833.03497023809 172.76185 L 834.40848214286 169.605955 L 835.78199404762 166.592165 L 837.15550595238 162.417285 L 838.52901785714 159.020345 L 839.9025297619 154.864865 L 841.27604166667 152.30552 L 842.64955357143 148.975025 L 844.02306547619 145.020335 L 845.39657738095 142.08366 L 846.77008928571 139.911345 L 848.14360119048 138.16389 L 849.51711309524 135.93677 L 850.890625 134.820785 L 852.26413690476 133.491885 L 853.63764880952 132.745955 L 855.01116071428 131.81427000000002 L 856.38467261905 131.61057 L 857.75818452381 131.99275 L 859.13169642857 132.754685 L 860.50520833333 133.562695 L 861.87872023809 134.2092 L 863.25223214286 137.624085 L 864.62574404762 139.694065 L 865.99925595238 141.52009 L 867.37276785714 143.46494 L 868.7462797619 145.31861 L 870.11979166667 146.66497 L 871.49330357143 148.59042 L 872.86681547619 150.380555 L 874.24032738095 150.59735 L 875.61383928571 151.946135 L 876.98735119048 153.113045 L 878.36086309524 153.677585 L 879.734375 151.64786 L 881.10788690476 151.780265 L 882.48139880952 150.667675 L 883.85491071428 150.900475 L 885.22842261905 147.828 L 886.60193452381 146.40986 L 887.97544642857 144.908785 L 889.34895833333 142.59582 L 890.72247023809 139.33953 L 892.09598214286 138.25701 L 893.46949404762 136.735565 L 894.84300595238 136.51101 L 896.21651785714 135.01333 L 897.5900297619 135.320335 L 898.96354166667 134.44879 L 900.33705357143 134.70002 L 901.71056547619 136.794735 L 903.08407738095 138.123635 L 904.45758928571 139.39967 L 905.83110119048 141.163615 L 907.20461309524 142.563325 L 908.578125 143.98583 L 909.95163690476 146.009735 L 911.32514880952 147.9832 L 912.69866071428 149.642385 L 914.07217261905 151.916065 L 915.44568452381 154.380835 L 916.81919642857 157.31848 L 918.19270833333 160.554885 L 919.56622023809 163.849005 L 920.93973214286 166.403015 L 922.31324404762 169.01086" class="highcharts-graph" data-z-index="1" stroke="#7cb5ec" stroke-width="1.5" stroke-linejoin="round" stroke-linecap="round" filter="none"></path></g><g class="highcharts-markers highcharts-series-1 highcharts-line-series highcharts-color-0" data-z-index="0.1" opacity="1" transform="translate(91,67) scale(1 1)" clip-path="none"></g></g><text x="512" text-anchor="middle" class="highcharts-title" data-z-index="4" style="font-size: 16px; color: rgb(51, 51, 51); font-weight: bold; text-align: center; fill: rgb(51, 51, 51);" y="22">Prognosen und Ist-Wert in Deutschland in Woche 16 2026</text><text x="512" text-anchor="middle" class="highcharts-subtitle" data-z-index="4" style="color: rgb(102, 102, 102); font-size: 0.8em; fill: rgb(102, 102, 102);" y="48">Originaldaten ENTSO-E</text><text x="512" text-anchor="middle" class="highcharts-caption" data-z-index="4" style="color: rgb(102, 102, 102); font-size: 0.8em; fill: rgb(102, 102, 102);" y="555">Energy-Charts.info; Datenquelle: ENTSO-E, Netztransparenz;   Letztes Update: 01.05.2026, 18:39 MESZ</text><g class="highcharts-legend highcharts-no-tooltip" data-z-index="7" transform="translate(373,521)"><rect fill="none" class="highcharts-legend-box" rx="0" ry="0" stroke="#999999" stroke-width="0" filter="none" x="0" y="0" width="278" height="8"></rect><g data-z-index="1"><g><g class="highcharts-legend-item highcharts-area-series highcharts-color-undefined highcharts-series-0" data-z-index="1" transform="translate(0,-5)"><text x="21" style="color: rgb(51, 51, 51); cursor: pointer; font-size: 10px; text-decoration: none; font-weight: bold; fill: rgb(51, 51, 51);" text-anchor="start" data-z-index="2" y="13">Last</text><rect x="3" y="4" rx="5" ry="5" width="10" height="10" fill="rgb(50,50,50)" class="highcharts-point" data-z-index="3"></rect></g><g class="highcharts-legend-item highcharts-line-series highcharts-color-0 highcharts-series-1" data-z-index="1" transform="translate(61.483333587646484,-5)"><path fill="none" class="highcharts-graph" stroke-width="1.5" stroke-linecap="round" d="M 0.75 10 L 15.25 10" stroke="#7cb5ec"></path><text x="21" y="13" style="color: rgb(51, 51, 51); cursor: pointer; font-size: 10px; text-decoration: none; font-weight: bold; fill: rgb(51, 51, 51);" text-anchor="start" data-z-index="2">Last Prognose (Day-Ahead, D-1 12:00)</text></g></g></g></g><g class="highcharts-axis-labels highcharts-xaxis-labels" data-z-index="7"><text x="91.686755952381" style="color: rgb(51, 51, 51); cursor: default; font-size: 0.8em; fill: rgb(51, 51, 51);" text-anchor="middle" transform="translate(0,0)" y="481" opacity="1">13.04.2026</text><text x="229.03794642857" style="color: rgb(51, 51, 51); cursor: default; font-size: 0.8em; fill: rgb(51, 51, 51);" text-anchor="middle" transform="translate(0,0)" y="481" opacity="1">14.04.2026</text><text x="366.38913690476" style="color: rgb(51, 51, 51); cursor: default; font-size: 0.8em; fill: rgb(51, 51, 51);" text-anchor="middle" transform="translate(0,0)" y="481" opacity="1">15.04.2026</text><text x="503.74032738095" style="color: rgb(51, 51, 51); cursor: default; font-size: 0.8em; fill: rgb(51, 51, 51);" text-anchor="middle" transform="translate(0,0)" y="481" opacity="1">16.04.2026</text><text x="641.09151785714" style="color: rgb(51, 51, 51); cursor: default; font-size: 0.8em; fill: rgb(51, 51, 51);" text-anchor="middle" transform="translate(0,0)" y="481" opacity="1">17.04.2026</text><text x="778.44270833333" style="color: rgb(51, 51, 51); cursor: default; font-size: 0.8em; fill: rgb(51, 51, 51);" text-anchor="middle" transform="translate(0,0)" y="481" opacity="1">18.04.2026</text><text x="915.79389880952" style="color: rgb(51, 51, 51); cursor: default; font-size: 0.8em; fill: rgb(51, 51, 51);" text-anchor="middle" transform="translate(0,0)" y="481" opacity="1">19.04.2026</text></g><g class="highcharts-axis-labels highcharts-yaxis-labels" data-z-index="7"><text x="76" style="color: rgb(102, 102, 102); cursor: default; font-size: 0.8em; fill: rgb(102, 102, 102);" text-anchor="end" transform="translate(0,0)" y="458" opacity="1">0</text><text x="76" style="color: rgb(102, 102, 102); cursor: default; font-size: 0.8em; fill: rgb(102, 102, 102);" text-anchor="end" transform="translate(0,0)" y="409" opacity="1">10.000</text><text x="76" style="color: rgb(102, 102, 102); cursor: default; font-size: 0.8em; fill: rgb(102, 102, 102);" text-anchor="end" transform="translate(0,0)" y="361" opacity="1">20.000</text><text x="76" style="color: rgb(102, 102, 102); cursor: default; font-size: 0.8em; fill: rgb(102, 102, 102);" text-anchor="end" transform="translate(0,0)" y="312" opacity="1">30.000</text><text x="76" style="color: rgb(102, 102, 102); cursor: default; font-size: 0.8em; fill: rgb(102, 102, 102);" text-anchor="end" transform="translate(0,0)" y="264" opacity="1">40.000</text><text x="76" style="color: rgb(102, 102, 102); cursor: default; font-size: 0.8em; fill: rgb(102, 102, 102);" text-anchor="end" transform="translate(0,0)" y="215" opacity="1">50.000</text><text x="76" style="color: rgb(102, 102, 102); cursor: default; font-size: 0.8em; fill: rgb(102, 102, 102);" text-anchor="end" transform="translate(0,0)" y="167" opacity="1">60.000</text><text x="76" style="color: rgb(102, 102, 102); cursor: default; font-size: 0.8em; fill: rgb(102, 102, 102);" text-anchor="end" transform="translate(0,0)" y="118" opacity="1">70.000</text><text x="76" style="color: rgb(102, 102, 102); cursor: default; font-size: 0.8em; fill: rgb(102, 102, 102);" text-anchor="end" transform="translate(0,0)" y="70" opacity="1">80.000</text></g></svg>