<svg xmlns:xlink="http://www.w3.org/1999/xlink" version="1.1" class="highcharts-root" style="font-family: Lucida Sans Unicode; font-size: 1rem;" xmlns="http://www.w3.org/2000/svg" width="1024" height="576" viewBox="0 0 1024 576" role="img" aria-label="Öffentliche Nettostromerzeugung in Deutschland 2026"><desc>Created with Highcharts 11.2.0</desc><defs><filter id="highcharts-drop-shadow-2"><feDropShadow dx="1" dy="1" flood-color="#000000" flood-opacity="0.75" stdDeviation="2.5"></feDropShadow></filter><clipPath id="highcharts-vs0w7vj-4819-"><rect x="0" y="0" width="941" height="408" fill="none"></rect></clipPath><clipPath id="highcharts-vs0w7vj-4946-"><rect x="0" y="0" width="941" height="408" fill="none"></rect></clipPath></defs><rect fill="white" class="highcharts-background" filter="none" x="0" y="0" width="1024" height="576" rx="0" ry="0"></rect><rect fill="none" class="highcharts-plot-background" x="73" y="67" width="941" height="408" filter="none"></rect><g class="highcharts-pane-group" data-z-index="0"></g><g class="highcharts-grid highcharts-xaxis-grid" data-z-index="1"><path fill="none" stroke="#e6e6e6" stroke-width="0" stroke-dasharray="none" data-z-index="1" class="highcharts-grid-line" d="M 76.5 67 L 76.5 475" opacity="1"></path><path fill="none" stroke="#e6e6e6" stroke-width="0" stroke-dasharray="none" data-z-index="1" class="highcharts-grid-line" d="M 233.5 67 L 233.5 475" opacity="1"></path><path fill="none" stroke="#e6e6e6" stroke-width="0" stroke-dasharray="none" data-z-index="1" class="highcharts-grid-line" d="M 389.5 67 L 389.5 475" opacity="1"></path><path fill="none" stroke="#e6e6e6" stroke-width="0" stroke-dasharray="none" data-z-index="1" class="highcharts-grid-line" d="M 546.5 67 L 546.5 475" opacity="1"></path><path fill="none" stroke="#e6e6e6" stroke-width="0" stroke-dasharray="none" data-z-index="1" class="highcharts-grid-line" d="M 703.5 67 L 703.5 475" opacity="1"></path><path fill="none" stroke="#e6e6e6" stroke-width="0" stroke-dasharray="none" data-z-index="1" class="highcharts-grid-line" d="M 860.5 67 L 860.5 475" opacity="1"></path></g><g class="highcharts-grid highcharts-yaxis-grid" data-z-index="1"><path fill="none" stroke="#e6e6e6" stroke-width="1" stroke-dasharray="none" data-z-index="1" class="highcharts-grid-line" d="M 73 475.5 L 1014 475.5" opacity="1"></path><path fill="none" stroke="#e6e6e6" stroke-width="1" stroke-dasharray="none" data-z-index="1" class="highcharts-grid-line" d="M 73 393.5 L 1014 393.5" opacity="1"></path><path fill="none" stroke="#e6e6e6" stroke-width="1" stroke-dasharray="none" data-z-index="1" class="highcharts-grid-line" d="M 73 312.5 L 1014 312.5" opacity="1"></path><path fill="none" stroke="#e6e6e6" stroke-width="1" stroke-dasharray="none" data-z-index="1" class="highcharts-grid-line" d="M 73 230.5 L 1014 230.5" opacity="1"></path><path fill="none" stroke="#e6e6e6" stroke-width="1" stroke-dasharray="none" data-z-index="1" class="highcharts-grid-line" d="M 73 149.5 L 1014 149.5" opacity="1"></path><path fill="none" stroke="#e6e6e6" stroke-width="1" stroke-dasharray="none" data-z-index="1" class="highcharts-grid-line" d="M 73 66.5 L 1014 66.5" opacity="1"></path></g><rect fill="none" class="highcharts-plot-border" data-z-index="1" stroke="#cccccc" stroke-width="0" x="73" y="67" width="941" height="408"></rect><g class="highcharts-axis highcharts-xaxis" data-z-index="2"><text x="543.5" data-z-index="7" text-anchor="middle" transform="translate(0,0)" class="highcharts-axis-title" style="color: rgb(102, 102, 102); font-size: 0.8em; fill: rgb(102, 102, 102);" y="523">Tag</text><path fill="none" class="highcharts-axis-line" stroke="#333333" stroke-width="1" data-z-index="7" d="M 73 475.5 L 1014 475.5"></path></g><g class="highcharts-axis highcharts-yaxis" data-z-index="2"><text x="24.75" data-z-index="7" text-anchor="middle" transform="translate(0,0) rotate(270 24.75 271)" class="highcharts-axis-title" style="color: rgb(102, 102, 102); font-size: 0.8em; font-weight: bold; fill: rgb(102, 102, 102);" y="271">Energie (GWh)</text><path fill="none" class="highcharts-axis-line" stroke="#333333" stroke-width="0" data-z-index="7" d="M 73 67 L 73 475"></path></g><g class="highcharts-series-group" data-z-index="3" filter="none"><g class="highcharts-series highcharts-series-0 highcharts-column-series" visibility="hidden" data-z-index="0.1" opacity="1" transform="translate(73,67) scale(1 1)" clip-path="url(#highcharts-vs0w7vj-4946-)"></g><g class="highcharts-markers highcharts-series-0 highcharts-column-series" visibility="hidden" data-z-index="0.1" opacity="1" transform="translate(73,67) scale(1 1)" clip-path="none"></g><g class="highcharts-series highcharts-series-1 highcharts-column-series" visibility="hidden" data-z-index="0.1" opacity="1" transform="translate(73,67) scale(1 1)" clip-path="url(#highcharts-vs0w7vj-4946-)"></g><g class="highcharts-markers highcharts-series-1 highcharts-column-series" visibility="hidden" data-z-index="0.1" opacity="1" transform="translate(73,67) scale(1 1)" clip-path="none"></g><g class="highcharts-series highcharts-series-2 highcharts-column-series" visibility="hidden" data-z-index="0.1" opacity="1" transform="translate(73,67) scale(1 1)" clip-path="url(#highcharts-vs0w7vj-4946-)"></g><g class="highcharts-markers highcharts-series-2 highcharts-column-series" visibility="hidden" data-z-index="0.1" opacity="1" transform="translate(73,67) scale(1 1)" clip-path="none"></g><g class="highcharts-series highcharts-series-3 highcharts-column-series" visibility="hidden" data-z-index="0.1" opacity="1" transform="translate(73,67) scale(1 1)" clip-path="url(#highcharts-vs0w7vj-4946-)"></g><g class="highcharts-markers highcharts-series-3 highcharts-column-series" visibility="hidden" data-z-index="0.1" opacity="1" transform="translate(73,67) scale(1 1)" clip-path="none"></g><g class="highcharts-series highcharts-series-4 highcharts-column-series" visibility="hidden" data-z-index="0.1" opacity="1" transform="translate(73,67) scale(1 1)" clip-path="url(#highcharts-vs0w7vj-4946-)"></g><g class="highcharts-markers highcharts-series-4 highcharts-column-series" visibility="hidden" data-z-index="0.1" opacity="1" transform="translate(73,67) scale(1 1)" clip-path="none"></g><g class="highcharts-series highcharts-series-5 highcharts-column-series" visibility="hidden" data-z-index="0.1" opacity="1" transform="translate(73,67) scale(1 1)" clip-path="url(#highcharts-vs0w7vj-4946-)"></g><g class="highcharts-markers highcharts-series-5 highcharts-column-series" visibility="hidden" data-z-index="0.1" opacity="1" transform="translate(73,67) scale(1 1)" clip-path="none"></g><g class="highcharts-series highcharts-series-6 highcharts-column-series" visibility="hidden" data-z-index="0.1" opacity="1" transform="translate(73,67) scale(1 1)" clip-path="url(#highcharts-vs0w7vj-4946-)"></g><g class="highcharts-markers highcharts-series-6 highcharts-column-series" visibility="hidden" data-z-index="0.1" opacity="1" transform="translate(73,67) scale(1 1)" clip-path="none"></g><g class="highcharts-series highcharts-series-7 highcharts-column-series" visibility="hidden" data-z-index="0.1" opacity="1" transform="translate(73,67) scale(1 1)" clip-path="url(#highcharts-vs0w7vj-4946-)"></g><g class="highcharts-markers highcharts-series-7 highcharts-column-series" visibility="hidden" data-z-index="0.1" opacity="1" transform="translate(73,67) scale(1 1)" clip-path="none"></g><g class="highcharts-series highcharts-series-8 highcharts-column-series" visibility="hidden" data-z-index="0.1" opacity="1" transform="translate(73,67) scale(1 1)" clip-path="url(#highcharts-vs0w7vj-4946-)"></g><g class="highcharts-markers highcharts-series-8 highcharts-column-series" visibility="hidden" data-z-index="0.1" opacity="1" transform="translate(73,67) scale(1 1)" clip-path="none"></g><g class="highcharts-series highcharts-series-9 highcharts-column-series" visibility="hidden" data-z-index="0.1" opacity="1" transform="translate(73,67) scale(1 1)" clip-path="url(#highcharts-vs0w7vj-4946-)"></g><g class="highcharts-markers highcharts-series-9 highcharts-column-series" visibility="hidden" data-z-index="0.1" opacity="1" transform="translate(73,67) scale(1 1)" clip-path="none"></g><g class="highcharts-series highcharts-series-10 highcharts-column-series" visibility="hidden" data-z-index="0.1" opacity="1" transform="translate(73,67) scale(1 1)" clip-path="url(#highcharts-vs0w7vj-4946-)"></g><g class="highcharts-markers highcharts-series-10 highcharts-column-series" visibility="hidden" data-z-index="0.1" opacity="1" transform="translate(73,67) scale(1 1)" clip-path="none"></g><g class="highcharts-series highcharts-series-11 highcharts-column-series" visibility="hidden" data-z-index="0.1" opacity="1" transform="translate(73,67) scale(1 1)" clip-path="url(#highcharts-vs0w7vj-4946-)"></g><g class="highcharts-markers highcharts-series-11 highcharts-column-series" visibility="hidden" data-z-index="0.1" opacity="1" transform="translate(73,67) scale(1 1)" clip-path="none"></g><g class="highcharts-series highcharts-series-12 highcharts-column-series" visibility="hidden" data-z-index="0.1" opacity="1" transform="translate(73,67) scale(1 1)" clip-path="url(#highcharts-vs0w7vj-4946-)"></g><g class="highcharts-markers highcharts-series-12 highcharts-column-series" visibility="hidden" data-z-index="0.1" opacity="1" transform="translate(73,67) scale(1 1)" clip-path="none"></g><g class="highcharts-series highcharts-series-13 highcharts-column-series" visibility="hidden" data-z-index="0.1" opacity="1" transform="translate(73,67) scale(1 1)" clip-path="url(#highcharts-vs0w7vj-4946-)"></g><g class="highcharts-markers highcharts-series-13 highcharts-column-series" visibility="hidden" data-z-index="0.1" opacity="1" transform="translate(73,67) scale(1 1)" clip-path="none"></g><g class="highcharts-series highcharts-series-14 highcharts-column-series" visibility="hidden" data-z-index="0.1" opacity="1" transform="translate(73,67) scale(1 1)" clip-path="url(#highcharts-vs0w7vj-4946-)"></g><g class="highcharts-markers highcharts-series-14 highcharts-column-series" visibility="hidden" data-z-index="0.1" opacity="1" transform="translate(73,67) scale(1 1)" clip-path="none"></g><g class="highcharts-series highcharts-series-15 highcharts-column-series" visibility="hidden" data-z-index="0.1" opacity="1" transform="translate(73,67) scale(1 1)" clip-path="url(#highcharts-vs0w7vj-4946-)"></g><g class="highcharts-markers highcharts-series-15 highcharts-column-series" visibility="hidden" data-z-index="0.1" opacity="1" transform="translate(73,67) scale(1 1)" clip-path="none"></g><g class="highcharts-series highcharts-series-16 highcharts-column-series" visibility="hidden" data-z-index="0.1" opacity="1" transform="translate(73,67) scale(1 1)" clip-path="url(#highcharts-vs0w7vj-4946-)"></g><g class="highcharts-markers highcharts-series-16 highcharts-column-series" visibility="hidden" data-z-index="0.1" opacity="1" transform="translate(73,67) scale(1 1)" clip-path="none"></g><g class="highcharts-series highcharts-series-17 highcharts-column-series" data-z-index="0.1" opacity="1" transform="translate(73,67) scale(1 1)" clip-path="url(#highcharts-vs0w7vj-4946-)"><path fill="rgb(255,205,100)" d="M 4 377 L 5 377 A 3 3 0 0 1 8 380 L 8 409 A 0 0 0 0 1 8 409 L 1 409 A 0 0 0 0 1 1 409 L 1 380 A 3 3 0 0 1 4 377 Z" stroke="#ffffff" stroke-width="0" opacity="1" filter="none" class="highcharts-point"></path><path fill="rgb(255,205,100)" d="M 11 390 L 12 390 A 3 3 0 0 1 15 393 L 15 409 A 0 0 0 0 1 15 409 L 8 409 A 0 0 0 0 1 8 409 L 8 393 A 3 3 0 0 1 11 390 Z" stroke="#ffffff" stroke-width="0" opacity="1" filter="none" class="highcharts-point"></path><path fill="rgb(255,205,100)" d="M 19 384 L 20 384 A 3 3 0 0 1 23 387 L 23 409 A 0 0 0 0 1 23 409 L 16 409 A 0 0 0 0 1 16 409 L 16 387 A 3 3 0 0 1 19 384 Z" stroke="#ffffff" stroke-width="0" opacity="1" filter="none" class="highcharts-point"></path><path fill="rgb(255,205,100)" d="M 26 379 L 27 379 A 3 3 0 0 1 30 382 L 30 409 A 0 0 0 0 1 30 409 L 23 409 A 0 0 0 0 1 23 409 L 23 382 A 3 3 0 0 1 26 379 Z" stroke="#ffffff" stroke-width="0" opacity="1" filter="none" class="highcharts-point"></path><path fill="rgb(255,205,100)" d="M 34 376 L 35 376 A 3 3 0 0 1 38 379 L 38 409 A 0 0 0 0 1 38 409 L 31 409 A 0 0 0 0 1 31 409 L 31 379 A 3 3 0 0 1 34 376 Z" stroke="#ffffff" stroke-width="0" opacity="1" filter="none" class="highcharts-point"></path><path fill="rgb(255,205,100)" d="M 41 388 L 42 388 A 3 3 0 0 1 45 391 L 45 409 A 0 0 0 0 1 45 409 L 38 409 A 0 0 0 0 1 38 409 L 38 391 A 3 3 0 0 1 41 388 Z" stroke="#ffffff" stroke-width="0" opacity="1" filter="none" class="highcharts-point"></path><path fill="rgb(255,205,100)" d="M 48 367 L 49 367 A 3 3 0 0 1 52 370 L 52 409 A 0 0 0 0 1 52 409 L 45 409 A 0 0 0 0 1 45 409 L 45 370 A 3 3 0 0 1 48 367 Z" stroke="#ffffff" stroke-width="0" opacity="1" filter="none" class="highcharts-point"></path><path fill="rgb(255,205,100)" d="M 56 396 L 57 396 A 3 3 0 0 1 60 399 L 60 409 A 0 0 0 0 1 60 409 L 53 409 A 0 0 0 0 1 53 409 L 53 399 A 3 3 0 0 1 56 396 Z" stroke="#ffffff" stroke-width="0" opacity="1" filter="none" class="highcharts-point"></path><path fill="rgb(255,205,100)" d="M 63 387 L 64 387 A 3 3 0 0 1 67 390 L 67 409 A 0 0 0 0 1 67 409 L 60 409 A 0 0 0 0 1 60 409 L 60 390 A 3 3 0 0 1 63 387 Z" stroke="#ffffff" stroke-width="0" opacity="1" filter="none" class="highcharts-point"></path><path fill="rgb(255,205,100)" d="M 71 394 L 72 394 A 3 3 0 0 1 75 397 L 75 409 A 0 0 0 0 1 75 409 L 68 409 A 0 0 0 0 1 68 409 L 68 397 A 3 3 0 0 1 71 394 Z" stroke="#ffffff" stroke-width="0" opacity="1" filter="none" class="highcharts-point"></path><path fill="rgb(255,205,100)" d="M 78 380 L 79 380 A 3 3 0 0 1 82 383 L 82 409 A 0 0 0 0 1 82 409 L 75 409 A 0 0 0 0 1 75 409 L 75 383 A 3 3 0 0 1 78 380 Z" stroke="#ffffff" stroke-width="0" opacity="1" filter="none" class="highcharts-point"></path><path fill="rgb(255,205,100)" d="M 86 400 L 87 400 A 3 3 0 0 1 90 403 L 90 409 A 0 0 0 0 1 90 409 L 83 409 A 0 0 0 0 1 83 409 L 83 403 A 3 3 0 0 1 86 400 Z" stroke="#ffffff" stroke-width="0" opacity="1" filter="none" class="highcharts-point"></path><path fill="rgb(255,205,100)" d="M 93 378 L 94 378 A 3 3 0 0 1 97 381 L 97 409 A 0 0 0 0 1 97 409 L 90 409 A 0 0 0 0 1 90 409 L 90 381 A 3 3 0 0 1 93 378 Z" stroke="#ffffff" stroke-width="0" opacity="1" filter="none" class="highcharts-point"></path><path fill="rgb(255,205,100)" d="M 101 375 L 102 375 A 3 3 0 0 1 105 378 L 105 409 A 0 0 0 0 1 105 409 L 98 409 A 0 0 0 0 1 98 409 L 98 378 A 3 3 0 0 1 101 375 Z" stroke="#ffffff" stroke-width="0" opacity="1" filter="none" class="highcharts-point"></path><path fill="rgb(255,205,100)" d="M 108 356 L 109 356 A 3 3 0 0 1 112 359 L 112 409 A 0 0 0 0 1 112 409 L 105 409 A 0 0 0 0 1 105 409 L 105 359 A 3 3 0 0 1 108 356 Z" stroke="#ffffff" stroke-width="0" opacity="1" filter="none" class="highcharts-point"></path><path fill="rgb(255,205,100)" d="M 116 330 L 117 330 A 3 3 0 0 1 120 333 L 120 409 A 0 0 0 0 1 120 409 L 113 409 A 0 0 0 0 1 113 409 L 113 333 A 3 3 0 0 1 116 330 Z" stroke="#ffffff" stroke-width="0" opacity="1" filter="none" class="highcharts-point"></path><path fill="rgb(255,205,100)" d="M 123 361 L 124 361 A 3 3 0 0 1 127 364 L 127 409 A 0 0 0 0 1 127 409 L 120 409 A 0 0 0 0 1 120 409 L 120 364 A 3 3 0 0 1 123 361 Z" stroke="#ffffff" stroke-width="0" opacity="1" filter="none" class="highcharts-point"></path><path fill="rgb(255,205,100)" d="M 131 345 L 132 345 A 3 3 0 0 1 135 348 L 135 409 A 0 0 0 0 1 135 409 L 128 409 A 0 0 0 0 1 128 409 L 128 348 A 3 3 0 0 1 131 345 Z" stroke="#ffffff" stroke-width="0" opacity="1" filter="none" class="highcharts-point"></path><path fill="rgb(255,205,100)" d="M 138 313 L 139 313 A 3 3 0 0 1 142 316 L 142 409 A 0 0 0 0 1 142 409 L 135 409 A 0 0 0 0 1 135 409 L 135 316 A 3 3 0 0 1 138 313 Z" stroke="#ffffff" stroke-width="0" opacity="1" filter="none" class="highcharts-point"></path><path fill="rgb(255,205,100)" d="M 146 302 L 147 302 A 3 3 0 0 1 150 305 L 150 409 A 0 0 0 0 1 150 409 L 143 409 A 0 0 0 0 1 143 409 L 143 305 A 3 3 0 0 1 146 302 Z" stroke="#ffffff" stroke-width="0" opacity="1" filter="none" class="highcharts-point"></path><path fill="rgb(255,205,100)" d="M 153 303 L 154 303 A 3 3 0 0 1 157 306 L 157 409 A 0 0 0 0 1 157 409 L 150 409 A 0 0 0 0 1 150 409 L 150 306 A 3 3 0 0 1 153 303 Z" stroke="#ffffff" stroke-width="0" opacity="1" filter="none" class="highcharts-point"></path><path fill="rgb(255,205,100)" d="M 160 322 L 161 322 A 3 3 0 0 1 164 325 L 164 409 A 0 0 0 0 1 164 409 L 157 409 A 0 0 0 0 1 157 409 L 157 325 A 3 3 0 0 1 160 322 Z" stroke="#ffffff" stroke-width="0" opacity="1" filter="none" class="highcharts-point"></path><path fill="rgb(255,205,100)" d="M 168 338 L 169 338 A 3 3 0 0 1 172 341 L 172 409 A 0 0 0 0 1 172 409 L 165 409 A 0 0 0 0 1 165 409 L 165 341 A 3 3 0 0 1 168 338 Z" stroke="#ffffff" stroke-width="0" opacity="1" filter="none" class="highcharts-point"></path><path fill="rgb(255,205,100)" d="M 175 358 L 176 358 A 3 3 0 0 1 179 361 L 179 409 A 0 0 0 0 1 179 409 L 172 409 A 0 0 0 0 1 172 409 L 172 361 A 3 3 0 0 1 175 358 Z" stroke="#ffffff" stroke-width="0" opacity="1" filter="none" class="highcharts-point"></path><path fill="rgb(255,205,100)" d="M 183 382 L 184 382 A 3 3 0 0 1 187 385 L 187 409 A 0 0 0 0 1 187 409 L 180 409 A 0 0 0 0 1 180 409 L 180 385 A 3 3 0 0 1 183 382 Z" stroke="#ffffff" stroke-width="0" opacity="1" filter="none" class="highcharts-point"></path><path fill="rgb(255,205,100)" d="M 190 396 L 191 396 A 3 3 0 0 1 194 399 L 194 409 A 0 0 0 0 1 194 409 L 187 409 A 0 0 0 0 1 187 409 L 187 399 A 3 3 0 0 1 190 396 Z" stroke="#ffffff" stroke-width="0" opacity="1" filter="none" class="highcharts-point"></path><path fill="rgb(255,205,100)" d="M 198 368 L 199 368 A 3 3 0 0 1 202 371 L 202 409 A 0 0 0 0 1 202 409 L 195 409 A 0 0 0 0 1 195 409 L 195 371 A 3 3 0 0 1 198 368 Z" stroke="#ffffff" stroke-width="0" opacity="1" filter="none" class="highcharts-point"></path><path fill="rgb(255,205,100)" d="M 205 381 L 206 381 A 3 3 0 0 1 209 384 L 209 409 A 0 0 0 0 1 209 409 L 202 409 A 0 0 0 0 1 202 409 L 202 384 A 3 3 0 0 1 205 381 Z" stroke="#ffffff" stroke-width="0" opacity="1" filter="none" class="highcharts-point"></path><path fill="rgb(255,205,100)" d="M 213 400 L 214 400 A 3 3 0 0 1 217 403 L 217 409 A 0 0 0 0 1 217 409 L 210 409 A 0 0 0 0 1 210 409 L 210 403 A 3 3 0 0 1 213 400 Z" stroke="#ffffff" stroke-width="0" opacity="1" filter="none" class="highcharts-point"></path><path fill="rgb(255,205,100)" d="M 220 377 L 221 377 A 3 3 0 0 1 224 380 L 224 409 A 0 0 0 0 1 224 409 L 217 409 A 0 0 0 0 1 217 409 L 217 380 A 3 3 0 0 1 220 377 Z" stroke="#ffffff" stroke-width="0" opacity="1" filter="none" class="highcharts-point"></path><path fill="rgb(255,205,100)" d="M 228 372 L 229 372 A 3 3 0 0 1 232 375 L 232 409 A 0 0 0 0 1 232 409 L 225 409 A 0 0 0 0 1 225 409 L 225 375 A 3 3 0 0 1 228 372 Z" stroke="#ffffff" stroke-width="0" opacity="1" filter="none" class="highcharts-point"></path><path fill="rgb(255,205,100)" d="M 235 373 L 236 373 A 3 3 0 0 1 239 376 L 239 409 A 0 0 0 0 1 239 409 L 232 409 A 0 0 0 0 1 232 409 L 232 376 A 3 3 0 0 1 235 373 Z" stroke="#ffffff" stroke-width="0" opacity="1" filter="none" class="highcharts-point"></path><path fill="rgb(255,205,100)" d="M 243 358 L 244 358 A 3 3 0 0 1 247 361 L 247 409 A 0 0 0 0 1 247 409 L 240 409 A 0 0 0 0 1 240 409 L 240 361 A 3 3 0 0 1 243 358 Z" stroke="#ffffff" stroke-width="0" opacity="1" filter="none" class="highcharts-point"></path><path fill="rgb(255,205,100)" d="M 250 364 L 251 364 A 3 3 0 0 1 254 367 L 254 409 A 0 0 0 0 1 254 409 L 247 409 A 0 0 0 0 1 247 409 L 247 367 A 3 3 0 0 1 250 364 Z" stroke="#ffffff" stroke-width="0" opacity="1" filter="none" class="highcharts-point"></path><path fill="rgb(255,205,100)" d="M 258 358 L 259 358 A 3 3 0 0 1 262 361 L 262 409 A 0 0 0 0 1 262 409 L 255 409 A 0 0 0 0 1 255 409 L 255 361 A 3 3 0 0 1 258 358 Z" stroke="#ffffff" stroke-width="0" opacity="1" filter="none" class="highcharts-point"></path><path fill="rgb(255,205,100)" d="M 265 360 L 266 360 A 3 3 0 0 1 269 363 L 269 409 A 0 0 0 0 1 269 409 L 262 409 A 0 0 0 0 1 262 409 L 262 363 A 3 3 0 0 1 265 360 Z" stroke="#ffffff" stroke-width="0" opacity="1" filter="none" class="highcharts-point"></path><path fill="rgb(255,205,100)" d="M 272 373 L 273 373 A 3 3 0 0 1 276 376 L 276 409 A 0 0 0 0 1 276 409 L 269 409 A 0 0 0 0 1 269 409 L 269 376 A 3 3 0 0 1 272 373 Z" stroke="#ffffff" stroke-width="0" opacity="1" filter="none" class="highcharts-point"></path><path fill="rgb(255,205,100)" d="M 280 344 L 281 344 A 3 3 0 0 1 284 347 L 284 409 A 0 0 0 0 1 284 409 L 277 409 A 0 0 0 0 1 277 409 L 277 347 A 3 3 0 0 1 280 344 Z" stroke="#ffffff" stroke-width="0" opacity="1" filter="none" class="highcharts-point"></path><path fill="rgb(255,205,100)" d="M 287 350 L 288 350 A 3 3 0 0 1 291 353 L 291 409 A 0 0 0 0 1 291 409 L 284 409 A 0 0 0 0 1 284 409 L 284 353 A 3 3 0 0 1 287 350 Z" stroke="#ffffff" stroke-width="0" opacity="1" filter="none" class="highcharts-point"></path><path fill="rgb(255,205,100)" d="M 295 354 L 296 354 A 3 3 0 0 1 299 357 L 299 409 A 0 0 0 0 1 299 409 L 292 409 A 0 0 0 0 1 292 409 L 292 357 A 3 3 0 0 1 295 354 Z" stroke="#ffffff" stroke-width="0" opacity="1" filter="none" class="highcharts-point"></path><path fill="rgb(255,205,100)" d="M 302 327 L 303 327 A 3 3 0 0 1 306 330 L 306 409 A 0 0 0 0 1 306 409 L 299 409 A 0 0 0 0 1 299 409 L 299 330 A 3 3 0 0 1 302 327 Z" stroke="#ffffff" stroke-width="0" opacity="1" filter="none" class="highcharts-point"></path><path fill="rgb(255,205,100)" d="M 310 365 L 311 365 A 3 3 0 0 1 314 368 L 314 409 A 0 0 0 0 1 314 409 L 307 409 A 0 0 0 0 1 307 409 L 307 368 A 3 3 0 0 1 310 365 Z" stroke="#ffffff" stroke-width="0" opacity="1" filter="none" class="highcharts-point"></path><path fill="rgb(255,205,100)" d="M 317 364 L 318 364 A 3 3 0 0 1 321 367 L 321 409 A 0 0 0 0 1 321 409 L 314 409 A 0 0 0 0 1 314 409 L 314 367 A 3 3 0 0 1 317 364 Z" stroke="#ffffff" stroke-width="0" opacity="1" filter="none" class="highcharts-point"></path><path fill="rgb(255,205,100)" d="M 325 354 L 326 354 A 3 3 0 0 1 329 357 L 329 409 A 0 0 0 0 1 329 409 L 322 409 A 0 0 0 0 1 322 409 L 322 357 A 3 3 0 0 1 325 354 Z" stroke="#ffffff" stroke-width="0" opacity="1" filter="none" class="highcharts-point"></path><path fill="rgb(255,205,100)" d="M 332 378 L 333 378 A 3 3 0 0 1 336 381 L 336 409 A 0 0 0 0 1 336 409 L 329 409 A 0 0 0 0 1 329 409 L 329 381 A 3 3 0 0 1 332 378 Z" stroke="#ffffff" stroke-width="0" opacity="1" filter="none" class="highcharts-point"></path><path fill="rgb(255,205,100)" d="M 340 312 L 341 312 A 3 3 0 0 1 344 315 L 344 409 A 0 0 0 0 1 344 409 L 337 409 A 0 0 0 0 1 337 409 L 337 315 A 3 3 0 0 1 340 312 Z" stroke="#ffffff" stroke-width="0" opacity="1" filter="none" class="highcharts-point"></path><path fill="rgb(255,205,100)" d="M 347 357 L 348 357 A 3 3 0 0 1 351 360 L 351 409 A 0 0 0 0 1 351 409 L 344 409 A 0 0 0 0 1 344 409 L 344 360 A 3 3 0 0 1 347 357 Z" stroke="#ffffff" stroke-width="0" opacity="1" filter="none" class="highcharts-point"></path><path fill="rgb(255,205,100)" d="M 355 349 L 356 349 A 3 3 0 0 1 359 352 L 359 409 A 0 0 0 0 1 359 409 L 352 409 A 0 0 0 0 1 352 409 L 352 352 A 3 3 0 0 1 355 349 Z" stroke="#ffffff" stroke-width="0" opacity="1" filter="none" class="highcharts-point"></path><path fill="rgb(255,205,100)" d="M 362 328 L 363 328 A 3 3 0 0 1 366 331 L 366 409 A 0 0 0 0 1 366 409 L 359 409 A 0 0 0 0 1 359 409 L 359 331 A 3 3 0 0 1 362 328 Z" stroke="#ffffff" stroke-width="0" opacity="1" filter="none" class="highcharts-point"></path><path fill="rgb(255,205,100)" d="M 370 349 L 371 349 A 3 3 0 0 1 374 352 L 374 409 A 0 0 0 0 1 374 409 L 367 409 A 0 0 0 0 1 367 409 L 367 352 A 3 3 0 0 1 370 349 Z" stroke="#ffffff" stroke-width="0" opacity="1" filter="none" class="highcharts-point"></path><path fill="rgb(255,205,100)" d="M 377 315 L 378 315 A 3 3 0 0 1 381 318 L 381 409 A 0 0 0 0 1 381 409 L 374 409 A 0 0 0 0 1 374 409 L 374 318 A 3 3 0 0 1 377 315 Z" stroke="#ffffff" stroke-width="0" opacity="1" filter="none" class="highcharts-point"></path><path fill="rgb(255,205,100)" d="M 385 360 L 386 360 A 3 3 0 0 1 389 363 L 389 409 A 0 0 0 0 1 389 409 L 382 409 A 0 0 0 0 1 382 409 L 382 363 A 3 3 0 0 1 385 360 Z" stroke="#ffffff" stroke-width="0" opacity="1" filter="none" class="highcharts-point"></path><path fill="rgb(255,205,100)" d="M 392 370 L 393 370 A 3 3 0 0 1 396 373 L 396 409 A 0 0 0 0 1 396 409 L 389 409 A 0 0 0 0 1 389 409 L 389 373 A 3 3 0 0 1 392 370 Z" stroke="#ffffff" stroke-width="0" opacity="1" filter="none" class="highcharts-point"></path><path fill="rgb(255,205,100)" d="M 399 327 L 400 327 A 3 3 0 0 1 403 330 L 403 409 A 0 0 0 0 1 403 409 L 396 409 A 0 0 0 0 1 396 409 L 396 330 A 3 3 0 0 1 399 327 Z" stroke="#ffffff" stroke-width="0" opacity="1" filter="none" class="highcharts-point"></path><path fill="rgb(255,205,100)" d="M 407 334 L 408 334 A 3 3 0 0 1 411 337 L 411 409 A 0 0 0 0 1 411 409 L 404 409 A 0 0 0 0 1 404 409 L 404 337 A 3 3 0 0 1 407 334 Z" stroke="#ffffff" stroke-width="0" opacity="1" filter="none" class="highcharts-point"></path><path fill="rgb(255,205,100)" d="M 414 250 L 415 250 A 3 3 0 0 1 418 253 L 418 409 A 0 0 0 0 1 418 409 L 411 409 A 0 0 0 0 1 411 409 L 411 253 A 3 3 0 0 1 414 250 Z" stroke="#ffffff" stroke-width="0" opacity="1" filter="none" class="highcharts-point"></path><path fill="rgb(255,205,100)" d="M 422 240 L 423 240 A 3 3 0 0 1 426 243 L 426 409 A 0 0 0 0 1 426 409 L 419 409 A 0 0 0 0 1 419 409 L 419 243 A 3 3 0 0 1 422 240 Z" stroke="#ffffff" stroke-width="0" opacity="1" filter="none" class="highcharts-point"></path><path fill="rgb(255,205,100)" d="M 429 206 L 430 206 A 3 3 0 0 1 433 209 L 433 409 A 0 0 0 0 1 433 409 L 426 409 A 0 0 0 0 1 426 409 L 426 209 A 3 3 0 0 1 429 206 Z" stroke="#ffffff" stroke-width="0" opacity="1" filter="none" class="highcharts-point"></path><path fill="rgb(255,205,100)" d="M 437 256 L 438 256 A 3 3 0 0 1 441 259 L 441 409 A 0 0 0 0 1 441 409 L 434 409 A 0 0 0 0 1 434 409 L 434 259 A 3 3 0 0 1 437 256 Z" stroke="#ffffff" stroke-width="0" opacity="1" filter="none" class="highcharts-point"></path><path fill="rgb(255,205,100)" d="M 444 249 L 445 249 A 3 3 0 0 1 448 252 L 448 409 A 0 0 0 0 1 448 409 L 441 409 A 0 0 0 0 1 441 409 L 441 252 A 3 3 0 0 1 444 249 Z" stroke="#ffffff" stroke-width="0" opacity="1" filter="none" class="highcharts-point"></path><path fill="rgb(255,205,100)" d="M 452 184 L 453 184 A 3 3 0 0 1 456 187 L 456 409 A 0 0 0 0 1 456 409 L 449 409 A 0 0 0 0 1 449 409 L 449 187 A 3 3 0 0 1 452 184 Z" stroke="#ffffff" stroke-width="0" opacity="1" filter="none" class="highcharts-point"></path><path fill="rgb(255,205,100)" d="M 459 187 L 460 187 A 3 3 0 0 1 463 190 L 463 409 A 0 0 0 0 1 463 409 L 456 409 A 0 0 0 0 1 456 409 L 456 190 A 3 3 0 0 1 459 187 Z" stroke="#ffffff" stroke-width="0" opacity="1" filter="none" class="highcharts-point"></path><path fill="rgb(255,205,100)" d="M 467 190 L 468 190 A 3 3 0 0 1 471 193 L 471 409 A 0 0 0 0 1 471 409 L 464 409 A 0 0 0 0 1 464 409 L 464 193 A 3 3 0 0 1 467 190 Z" stroke="#ffffff" stroke-width="0" opacity="1" filter="none" class="highcharts-point"></path><path fill="rgb(255,205,100)" d="M 474 170 L 475 170 A 3 3 0 0 1 478 173 L 478 409 A 0 0 0 0 1 478 409 L 471 409 A 0 0 0 0 1 471 409 L 471 173 A 3 3 0 0 1 474 170 Z" stroke="#ffffff" stroke-width="0" opacity="1" filter="none" class="highcharts-point"></path><path fill="rgb(255,205,100)" d="M 482 174 L 483 174 A 3 3 0 0 1 486 177 L 486 409 A 0 0 0 0 1 486 409 L 479 409 A 0 0 0 0 1 479 409 L 479 177 A 3 3 0 0 1 482 174 Z" stroke="#ffffff" stroke-width="0" opacity="1" filter="none" class="highcharts-point"></path><path fill="rgb(255,205,100)" d="M 489 180 L 490 180 A 3 3 0 0 1 493 183 L 493 409 A 0 0 0 0 1 493 409 L 486 409 A 0 0 0 0 1 486 409 L 486 183 A 3 3 0 0 1 489 180 Z" stroke="#ffffff" stroke-width="0" opacity="1" filter="none" class="highcharts-point"></path><path fill="rgb(255,205,100)" d="M 497 200 L 498 200 A 3 3 0 0 1 501 203 L 501 409 A 0 0 0 0 1 501 409 L 494 409 A 0 0 0 0 1 494 409 L 494 203 A 3 3 0 0 1 497 200 Z" stroke="#ffffff" stroke-width="0" opacity="1" filter="none" class="highcharts-point"></path><path fill="rgb(255,205,100)" d="M 504 195 L 505 195 A 3 3 0 0 1 508 198 L 508 409 A 0 0 0 0 1 508 409 L 501 409 A 0 0 0 0 1 501 409 L 501 198 A 3 3 0 0 1 504 195 Z" stroke="#ffffff" stroke-width="0" opacity="1" filter="none" class="highcharts-point"></path><path fill="rgb(255,205,100)" d="M 511 205 L 512 205 A 3 3 0 0 1 515 208 L 515 409 A 0 0 0 0 1 515 409 L 508 409 A 0 0 0 0 1 508 409 L 508 208 A 3 3 0 0 1 511 205 Z" stroke="#ffffff" stroke-width="0" opacity="1" filter="none" class="highcharts-point"></path><path fill="rgb(255,205,100)" d="M 519 275 L 520 275 A 3 3 0 0 1 523 278 L 523 409 A 0 0 0 0 1 523 409 L 516 409 A 0 0 0 0 1 516 409 L 516 278 A 3 3 0 0 1 519 275 Z" stroke="#ffffff" stroke-width="0" opacity="1" filter="none" class="highcharts-point"></path><path fill="rgb(255,205,100)" d="M 526 207 L 527 207 A 3 3 0 0 1 530 210 L 530 409 A 0 0 0 0 1 530 409 L 523 409 A 0 0 0 0 1 523 409 L 523 210 A 3 3 0 0 1 526 207 Z" stroke="#ffffff" stroke-width="0" opacity="1" filter="none" class="highcharts-point"></path><path fill="rgb(255,205,100)" d="M 534 238 L 535 238 A 3 3 0 0 1 538 241 L 538 409 A 0 0 0 0 1 538 409 L 531 409 A 0 0 0 0 1 531 409 L 531 241 A 3 3 0 0 1 534 238 Z" stroke="#ffffff" stroke-width="0" opacity="1" filter="none" class="highcharts-point"></path><path fill="rgb(255,205,100)" d="M 541 327 L 542 327 A 3 3 0 0 1 545 330 L 545 409 A 0 0 0 0 1 545 409 L 538 409 A 0 0 0 0 1 538 409 L 538 330 A 3 3 0 0 1 541 327 Z" stroke="#ffffff" stroke-width="0" opacity="1" filter="none" class="highcharts-point"></path><path fill="rgb(255,205,100)" d="M 549 305 L 550 305 A 3 3 0 0 1 553 308 L 553 409 A 0 0 0 0 1 553 409 L 546 409 A 0 0 0 0 1 546 409 L 546 308 A 3 3 0 0 1 549 305 Z" stroke="#ffffff" stroke-width="0" opacity="1" filter="none" class="highcharts-point"></path><path fill="rgb(255,205,100)" d="M 556 283 L 557 283 A 3 3 0 0 1 560 286 L 560 409 A 0 0 0 0 1 560 409 L 553 409 A 0 0 0 0 1 553 409 L 553 286 A 3 3 0 0 1 556 283 Z" stroke="#ffffff" stroke-width="0" opacity="1" filter="none" class="highcharts-point"></path><path fill="rgb(255,205,100)" d="M 564 257 L 565 257 A 3 3 0 0 1 568 260 L 568 409 A 0 0 0 0 1 568 409 L 561 409 A 0 0 0 0 1 561 409 L 561 260 A 3 3 0 0 1 564 257 Z" stroke="#ffffff" stroke-width="0" opacity="1" filter="none" class="highcharts-point"></path><path fill="rgb(255,205,100)" d="M 571 141 L 572 141 A 3 3 0 0 1 575 144 L 575 409 A 0 0 0 0 1 575 409 L 568 409 A 0 0 0 0 1 568 409 L 568 144 A 3 3 0 0 1 571 141 Z" stroke="#ffffff" stroke-width="0" opacity="1" filter="none" class="highcharts-point"></path><path fill="rgb(255,205,100)" d="M 579 131 L 580 131 A 3 3 0 0 1 583 134 L 583 409 A 0 0 0 0 1 583 409 L 576 409 A 0 0 0 0 1 576 409 L 576 134 A 3 3 0 0 1 579 131 Z" stroke="#ffffff" stroke-width="0" opacity="1" filter="none" class="highcharts-point"></path><path fill="rgb(255,205,100)" d="M 586 173 L 587 173 A 3 3 0 0 1 590 176 L 590 409 A 0 0 0 0 1 590 409 L 583 409 A 0 0 0 0 1 583 409 L 583 176 A 3 3 0 0 1 586 173 Z" stroke="#ffffff" stroke-width="0" opacity="1" filter="none" class="highcharts-point"></path><path fill="rgb(255,205,100)" d="M 594 243 L 595 243 A 3 3 0 0 1 598 246 L 598 409 A 0 0 0 0 1 598 409 L 591 409 A 0 0 0 0 1 591 409 L 591 246 A 3 3 0 0 1 594 243 Z" stroke="#ffffff" stroke-width="0" opacity="1" filter="none" class="highcharts-point"></path><path fill="rgb(255,205,100)" d="M 601 135 L 602 135 A 3 3 0 0 1 605 138 L 605 409 A 0 0 0 0 1 605 409 L 598 409 A 0 0 0 0 1 598 409 L 598 138 A 3 3 0 0 1 601 135 Z" stroke="#ffffff" stroke-width="0" opacity="1" filter="none" class="highcharts-point"></path><path fill="rgb(255,205,100)" d="M 609 153 L 610 153 A 3 3 0 0 1 613 156 L 613 409 A 0 0 0 0 1 613 409 L 606 409 A 0 0 0 0 1 606 409 L 606 156 A 3 3 0 0 1 609 153 Z" stroke="#ffffff" stroke-width="0" opacity="1" filter="none" class="highcharts-point"></path><path fill="rgb(255,205,100)" d="M 616 211 L 617 211 A 3 3 0 0 1 620 214 L 620 409 A 0 0 0 0 1 620 409 L 613 409 A 0 0 0 0 1 613 409 L 613 214 A 3 3 0 0 1 616 211 Z" stroke="#ffffff" stroke-width="0" opacity="1" filter="none" class="highcharts-point"></path><path fill="rgb(255,205,100)" d="M 624 293 L 625 293 A 3 3 0 0 1 628 296 L 628 409 A 0 0 0 0 1 628 409 L 621 409 A 0 0 0 0 1 621 409 L 621 296 A 3 3 0 0 1 624 293 Z" stroke="#ffffff" stroke-width="0" opacity="1" filter="none" class="highcharts-point"></path><path fill="rgb(255,205,100)" d="M 631 235 L 632 235 A 3 3 0 0 1 635 238 L 635 409 A 0 0 0 0 1 635 409 L 628 409 A 0 0 0 0 1 628 409 L 628 238 A 3 3 0 0 1 631 235 Z" stroke="#ffffff" stroke-width="0" opacity="1" filter="none" class="highcharts-point"></path><path fill="rgb(255,205,100)" d="M 638 171 L 639 171 A 3 3 0 0 1 642 174 L 642 409 A 0 0 0 0 1 642 409 L 635 409 A 0 0 0 0 1 635 409 L 635 174 A 3 3 0 0 1 638 171 Z" stroke="#ffffff" stroke-width="0" opacity="1" filter="none" class="highcharts-point"></path><path fill="rgb(255,205,100)" d="M 646 237 L 647 237 A 3 3 0 0 1 650 240 L 650 409 A 0 0 0 0 1 650 409 L 643 409 A 0 0 0 0 1 643 409 L 643 240 A 3 3 0 0 1 646 237 Z" stroke="#ffffff" stroke-width="0" opacity="1" filter="none" class="highcharts-point"></path><path fill="rgb(255,205,100)" d="M 653 223 L 654 223 A 3 3 0 0 1 657 226 L 657 409 A 0 0 0 0 1 657 409 L 650 409 A 0 0 0 0 1 650 409 L 650 226 A 3 3 0 0 1 653 223 Z" stroke="#ffffff" stroke-width="0" opacity="1" filter="none" class="highcharts-point"></path><path fill="rgb(255,205,100)" d="M 661 254 L 662 254 A 3 3 0 0 1 665 257 L 665 409 A 0 0 0 0 1 665 409 L 658 409 A 0 0 0 0 1 658 409 L 658 257 A 3 3 0 0 1 661 254 Z" stroke="#ffffff" stroke-width="0" opacity="1" filter="none" class="highcharts-point"></path><path fill="rgb(255,205,100)" d="M 668 246 L 669 246 A 3 3 0 0 1 672 249 L 672 409 A 0 0 0 0 1 672 409 L 665 409 A 0 0 0 0 1 665 409 L 665 249 A 3 3 0 0 1 668 246 Z" stroke="#ffffff" stroke-width="0" opacity="1" filter="none" class="highcharts-point"></path><path fill="rgb(255,205,100)" d="M 676 177 L 677 177 A 3 3 0 0 1 680 180 L 680 409 A 0 0 0 0 1 680 409 L 673 409 A 0 0 0 0 1 673 409 L 673 180 A 3 3 0 0 1 676 177 Z" stroke="#ffffff" stroke-width="0" opacity="1" filter="none" class="highcharts-point"></path><path fill="rgb(255,205,100)" d="M 683 150 L 684 150 A 3 3 0 0 1 687 153 L 687 409 A 0 0 0 0 1 687 409 L 680 409 A 0 0 0 0 1 680 409 L 680 153 A 3 3 0 0 1 683 150 Z" stroke="#ffffff" stroke-width="0" opacity="1" filter="none" class="highcharts-point"></path><path fill="rgb(255,205,100)" d="M 691 195 L 692 195 A 3 3 0 0 1 695 198 L 695 409 A 0 0 0 0 1 695 409 L 688 409 A 0 0 0 0 1 688 409 L 688 198 A 3 3 0 0 1 691 195 Z" stroke="#ffffff" stroke-width="0" opacity="1" filter="none" class="highcharts-point"></path><path fill="rgb(255,205,100)" d="M 698 250 L 699 250 A 3 3 0 0 1 702 253 L 702 409 A 0 0 0 0 1 702 409 L 695 409 A 0 0 0 0 1 695 409 L 695 253 A 3 3 0 0 1 698 250 Z" stroke="#ffffff" stroke-width="0" opacity="1" filter="none" class="highcharts-point"></path><path fill="rgb(255,205,100)" d="M 706 214 L 707 214 A 3 3 0 0 1 710 217 L 710 409 A 0 0 0 0 1 710 409 L 703 409 A 0 0 0 0 1 703 409 L 703 217 A 3 3 0 0 1 706 214 Z" stroke="#ffffff" stroke-width="0" opacity="1" filter="none" class="highcharts-point"></path><path fill="rgb(255,205,100)" d="M 713 143 L 714 143 A 3 3 0 0 1 717 146 L 717 409 A 0 0 0 0 1 717 409 L 710 409 A 0 0 0 0 1 710 409 L 710 146 A 3 3 0 0 1 713 143 Z" stroke="#ffffff" stroke-width="0" opacity="1" filter="none" class="highcharts-point"></path><path fill="rgb(255,205,100)" d="M 721 74 L 722 74 A 3 3 0 0 1 725 77 L 725 409 A 0 0 0 0 1 725 409 L 718 409 A 0 0 0 0 1 718 409 L 718 77 A 3 3 0 0 1 721 74 Z" stroke="#ffffff" stroke-width="0" opacity="1" filter="none" class="highcharts-point"></path><path fill="rgb(255,205,100)" d="M 728 61 L 729 61 A 3 3 0 0 1 732 64 L 732 409 A 0 0 0 0 1 732 409 L 725 409 A 0 0 0 0 1 725 409 L 725 64 A 3 3 0 0 1 728 61 Z" stroke="#ffffff" stroke-width="0" opacity="1" filter="none" class="highcharts-point"></path><path fill="rgb(255,205,100)" d="M 736 104 L 737 104 A 3 3 0 0 1 740 107 L 740 409 A 0 0 0 0 1 740 409 L 733 409 A 0 0 0 0 1 733 409 L 733 107 A 3 3 0 0 1 736 104 Z" stroke="#ffffff" stroke-width="0" opacity="1" filter="none" class="highcharts-point"></path><path fill="rgb(255,205,100)" d="M 743 264 L 744 264 A 3 3 0 0 1 747 267 L 747 409 A 0 0 0 0 1 747 409 L 740 409 A 0 0 0 0 1 740 409 L 740 267 A 3 3 0 0 1 743 264 Z" stroke="#ffffff" stroke-width="0" opacity="1" filter="none" class="highcharts-point"></path><path fill="rgb(255,205,100)" d="M 750 114 L 751 114 A 3 3 0 0 1 754 117 L 754 409 A 0 0 0 0 1 754 409 L 747 409 A 0 0 0 0 1 747 409 L 747 117 A 3 3 0 0 1 750 114 Z" stroke="#ffffff" stroke-width="0" opacity="1" filter="none" class="highcharts-point"></path><path fill="rgb(255,205,100)" d="M 758 282 L 759 282 A 3 3 0 0 1 762 285 L 762 409 A 0 0 0 0 1 762 409 L 755 409 A 0 0 0 0 1 755 409 L 755 285 A 3 3 0 0 1 758 282 Z" stroke="#ffffff" stroke-width="0" opacity="1" filter="none" class="highcharts-point"></path><path fill="rgb(255,205,100)" d="M 765 307 L 766 307 A 3 3 0 0 1 769 310 L 769 409 A 0 0 0 0 1 769 409 L 762 409 A 0 0 0 0 1 762 409 L 762 310 A 3 3 0 0 1 765 307 Z" stroke="#ffffff" stroke-width="0" opacity="1" filter="none" class="highcharts-point"></path><path fill="rgb(255,205,100)" d="M 773 248 L 774 248 A 3 3 0 0 1 777 251 L 777 409 A 0 0 0 0 1 777 409 L 770 409 A 0 0 0 0 1 770 409 L 770 251 A 3 3 0 0 1 773 248 Z" stroke="#ffffff" stroke-width="0" opacity="1" filter="none" class="highcharts-point"></path><path fill="rgb(255,205,100)" d="M 780 144 L 781 144 A 3 3 0 0 1 784 147 L 784 409 A 0 0 0 0 1 784 409 L 777 409 A 0 0 0 0 1 777 409 L 777 147 A 3 3 0 0 1 780 144 Z" stroke="#ffffff" stroke-width="0" opacity="1" filter="none" class="highcharts-point"></path><path fill="rgb(255,205,100)" d="M 788 164 L 789 164 A 3 3 0 0 1 792 167 L 792 409 A 0 0 0 0 1 792 409 L 785 409 A 0 0 0 0 1 785 409 L 785 167 A 3 3 0 0 1 788 164 Z" stroke="#ffffff" stroke-width="0" opacity="1" filter="none" class="highcharts-point"></path><path fill="rgb(255,205,100)" d="M 795 100 L 796 100 A 3 3 0 0 1 799 103 L 799 409 A 0 0 0 0 1 799 409 L 792 409 A 0 0 0 0 1 792 409 L 792 103 A 3 3 0 0 1 795 100 Z" stroke="#ffffff" stroke-width="0" opacity="1" filter="none" class="highcharts-point"></path><path fill="rgb(255,205,100)" d="M 803 166 L 804 166 A 3 3 0 0 1 807 169 L 807 409 A 0 0 0 0 1 807 409 L 800 409 A 0 0 0 0 1 800 409 L 800 169 A 3 3 0 0 1 803 166 Z" stroke="#ffffff" stroke-width="0" opacity="1" filter="none" class="highcharts-point"></path><path fill="rgb(255,205,100)" d="M 810 250 L 811 250 A 3 3 0 0 1 814 253 L 814 409 A 0 0 0 0 1 814 409 L 807 409 A 0 0 0 0 1 807 409 L 807 253 A 3 3 0 0 1 810 250 Z" stroke="#ffffff" stroke-width="0" opacity="1" filter="none" class="highcharts-point"></path><path fill="rgb(255,205,100)" d="M 818 190 L 819 190 A 3 3 0 0 1 822 193 L 822 409 A 0 0 0 0 1 822 409 L 815 409 A 0 0 0 0 1 815 409 L 815 193 A 3 3 0 0 1 818 190 Z" stroke="#ffffff" stroke-width="0" opacity="1" filter="none" class="highcharts-point"></path><path fill="rgb(255,205,100)" d="M 825 124 L 826 124 A 3 3 0 0 1 829 127 L 829 409 A 0 0 0 0 1 829 409 L 822 409 A 0 0 0 0 1 822 409 L 822 127 A 3 3 0 0 1 825 124 Z" stroke="#ffffff" stroke-width="0" opacity="1" filter="none" class="highcharts-point"></path><path fill="rgb(255,205,100)" d="M 833 46 L 834 46 A 3 3 0 0 1 837 49 L 837 409 A 0 0 0 0 1 837 409 L 830 409 A 0 0 0 0 1 830 409 L 830 49 A 3 3 0 0 1 833 46 Z" stroke="#ffffff" stroke-width="0" opacity="1" filter="none" class="highcharts-point"></path><path fill="rgb(255,205,100)" d="M 840 67 L 841 67 A 3 3 0 0 1 844 70 L 844 409 A 0 0 0 0 1 844 409 L 837 409 A 0 0 0 0 1 837 409 L 837 70 A 3 3 0 0 1 840 67 Z" stroke="#ffffff" stroke-width="0" opacity="1" filter="none" class="highcharts-point"></path><path fill="rgb(255,205,100)" d="M 848 101 L 849 101 A 3 3 0 0 1 852 104 L 852 409 A 0 0 0 0 1 852 409 L 845 409 A 0 0 0 0 1 845 409 L 845 104 A 3 3 0 0 1 848 101 Z" stroke="#ffffff" stroke-width="0" opacity="1" filter="none" class="highcharts-point"></path><path fill="rgb(255,205,100)" d="M 855 99 L 856 99 A 3 3 0 0 1 859 102 L 859 409 A 0 0 0 0 1 859 409 L 852 409 A 0 0 0 0 1 852 409 L 852 102 A 3 3 0 0 1 855 99 Z" stroke="#ffffff" stroke-width="0" opacity="1" filter="none" class="highcharts-point"></path><path fill="rgb(255,205,100)" d="M 862 98 L 863 98 A 3 3 0 0 1 866 101 L 866 409 A 0 0 0 0 1 866 409 L 859 409 A 0 0 0 0 1 859 409 L 859 101 A 3 3 0 0 1 862 98 Z" stroke="#ffffff" stroke-width="0" opacity="1" filter="none" class="highcharts-point"></path><path fill="rgb(255,205,100)" d="M 870 71 L 871 71 A 3 3 0 0 1 874 74 L 874 409 A 0 0 0 0 1 874 409 L 867 409 A 0 0 0 0 1 867 409 L 867 74 A 3 3 0 0 1 870 71 Z" stroke="#ffffff" stroke-width="0" opacity="1" filter="none" class="highcharts-point"></path><path fill="rgb(255,205,100)" d="M 877 68 L 878 68 A 3 3 0 0 1 881 71 L 881 409 A 0 0 0 0 1 881 409 L 874 409 A 0 0 0 0 1 874 409 L 874 71 A 3 3 0 0 1 877 68 Z" stroke="#ffffff" stroke-width="0" opacity="1" filter="none" class="highcharts-point"></path><path fill="rgb(255,205,100)" d="M 885 54 L 886 54 A 3 3 0 0 1 889 57 L 889 409 A 0 0 0 0 1 889 409 L 882 409 A 0 0 0 0 1 882 409 L 882 57 A 3 3 0 0 1 885 54 Z" stroke="#ffffff" stroke-width="0" opacity="1" filter="none" class="highcharts-point"></path><path fill="rgb(255,205,100)" d="M 892 36 L 893 36 A 3 3 0 0 1 896 39 L 896 409 A 0 0 0 0 1 896 409 L 889 409 A 0 0 0 0 1 889 409 L 889 39 A 3 3 0 0 1 892 36 Z" stroke="#ffffff" stroke-width="0" opacity="1" filter="none" class="highcharts-point"></path><path fill="rgb(255,205,100)" d="M 900 67 L 901 67 A 3 3 0 0 1 904 70 L 904 409 A 0 0 0 0 1 904 409 L 897 409 A 0 0 0 0 1 897 409 L 897 70 A 3 3 0 0 1 900 67 Z" stroke="#ffffff" stroke-width="0" opacity="1" filter="none" class="highcharts-point"></path><path fill="rgb(255,205,100)" d="M 907 69 L 908 69 A 3 3 0 0 1 911 72 L 911 409 A 0 0 0 0 1 911 409 L 904 409 A 0 0 0 0 1 904 409 L 904 72 A 3 3 0 0 1 907 69 Z" stroke="#ffffff" stroke-width="0" opacity="1" filter="none" class="highcharts-point"></path><path fill="rgb(255,205,100)" d="M 915 128 L 916 128 A 3 3 0 0 1 919 131 L 919 409 A 0 0 0 0 1 919 409 L 912 409 A 0 0 0 0 1 912 409 L 912 131 A 3 3 0 0 1 915 128 Z" stroke="#ffffff" stroke-width="0" opacity="1" filter="none" class="highcharts-point"></path><path fill="rgb(255,205,100)" d="M 922 150 L 923 150 A 3 3 0 0 1 926 153 L 926 409 A 0 0 0 0 1 926 409 L 919 409 A 0 0 0 0 1 919 409 L 919 153 A 3 3 0 0 1 922 150 Z" stroke="#ffffff" stroke-width="0" opacity="1" filter="none" class="highcharts-point"></path><path fill="rgb(255,205,100)" d="M 930 236 L 931 236 A 3 3 0 0 1 934 239 L 934 409 A 0 0 0 0 1 934 409 L 927 409 A 0 0 0 0 1 927 409 L 927 239 A 3 3 0 0 1 930 236 Z" stroke="#ffffff" stroke-width="0" opacity="1" filter="none" class="highcharts-point"></path><path fill="rgb(255,205,100)" d="M 937 242 L 938 242 A 3 3 0 0 1 941 245 L 941 409 A 0 0 0 0 1 941 409 L 934 409 A 0 0 0 0 1 934 409 L 934 245 A 3 3 0 0 1 937 242 Z" stroke="#ffffff" stroke-width="0" opacity="1" filter="none" class="highcharts-point"></path></g><g class="highcharts-markers highcharts-series-17 highcharts-column-series" data-z-index="0.1" opacity="1" transform="translate(73,67) scale(1 1)" clip-path="none"></g><g class="highcharts-series highcharts-series-18 highcharts-column-series" visibility="hidden" data-z-index="0.1" opacity="1" transform="translate(73,67) scale(1 1)" clip-path="url(#highcharts-vs0w7vj-4946-)"></g><g class="highcharts-markers highcharts-series-18 highcharts-column-series" visibility="hidden" data-z-index="0.1" opacity="1" transform="translate(73,67) scale(1 1)" clip-path="none"></g></g><text x="512" text-anchor="middle" class="highcharts-title" data-z-index="4" style="font-size: 16px; color: rgb(51, 51, 51); font-weight: bold; text-align: center; fill: rgb(51, 51, 51);" y="22">Öffentliche Nettostromerzeugung in Deutschland 2026</text><text x="512" text-anchor="middle" class="highcharts-subtitle" data-z-index="4" style="color: rgb(102, 102, 102); font-size: 0.8em; fill: rgb(102, 102, 102);" y="48">Energetisch korrigierte Werte - bis 06.05.2026, 21:45 MESZ</text><text x="512" text-anchor="middle" class="highcharts-caption" data-z-index="4" style="color: rgb(102, 102, 102); font-size: 0.8em; fill: rgb(102, 102, 102);" y="555">Energy-Charts.info; Datenquelle: ENTSO-E, AGEE-Stat, Destatis, Fraunhofer ISE, AG Energiebilanzen;   Letztes Update: 06.05.2026, 22:58 MESZ</text><g class="highcharts-legend highcharts-no-tooltip" data-z-index="7" visibility="hidden"><rect fill="none" class="highcharts-legend-box" rx="0" ry="0" stroke="#999999" stroke-width="0" filter="none"></rect><g data-z-index="1"><g></g></g></g><g class="highcharts-axis-labels highcharts-xaxis-labels" data-z-index="7"><text x="76.734126984127" style="color: rgb(51, 51, 51); cursor: default; font-size: 0.8em; fill: rgb(51, 51, 51);" text-anchor="middle" transform="translate(0,0)" y="501" opacity="1">01.01.2026</text><text x="233.56746031746" style="color: rgb(51, 51, 51); cursor: default; font-size: 0.8em; fill: rgb(51, 51, 51);" text-anchor="middle" transform="translate(0,0)" y="501" opacity="1">22.01.2026</text><text x="390.4007936508" style="color: rgb(51, 51, 51); cursor: default; font-size: 0.8em; fill: rgb(51, 51, 51);" text-anchor="middle" transform="translate(0,0)" y="501" opacity="1">12.02.2026</text><text x="547.23412698413" style="color: rgb(51, 51, 51); cursor: default; font-size: 0.8em; fill: rgb(51, 51, 51);" text-anchor="middle" transform="translate(0,0)" y="501" opacity="1">05.03.2026</text><text x="704.06746031746" style="color: rgb(51, 51, 51); cursor: default; font-size: 0.8em; fill: rgb(51, 51, 51);" text-anchor="middle" transform="translate(0,0)" y="501" opacity="1">26.03.2026</text><text x="860.9007936508" style="color: rgb(51, 51, 51); cursor: default; font-size: 0.8em; fill: rgb(51, 51, 51);" text-anchor="middle" transform="translate(0,0)" y="501" opacity="1">16.04.2026</text></g><g class="highcharts-axis-labels highcharts-yaxis-labels" data-z-index="7"><text x="58" style="color: rgb(102, 102, 102); cursor: default; font-size: 0.8em; fill: rgb(102, 102, 102);" text-anchor="end" transform="translate(0,0)" y="478" opacity="1">0</text><text x="58" style="color: rgb(102, 102, 102); cursor: default; font-size: 0.8em; fill: rgb(102, 102, 102);" text-anchor="end" transform="translate(0,0)" y="396" opacity="1">100</text><text x="58" style="color: rgb(102, 102, 102); cursor: default; font-size: 0.8em; fill: rgb(102, 102, 102);" text-anchor="end" transform="translate(0,0)" y="314" opacity="1">200</text><text x="58" style="color: rgb(102, 102, 102); cursor: default; font-size: 0.8em; fill: rgb(102, 102, 102);" text-anchor="end" transform="translate(0,0)" y="233" opacity="1">300</text><text x="58" style="color: rgb(102, 102, 102); cursor: default; font-size: 0.8em; fill: rgb(102, 102, 102);" text-anchor="end" transform="translate(0,0)" y="151" opacity="1">400</text><text x="58" style="color: rgb(102, 102, 102); cursor: default; font-size: 0.8em; fill: rgb(102, 102, 102);" text-anchor="end" transform="translate(0,0)" y="70" opacity="1">500</text></g></svg>