<svg xmlns:xlink="http://www.w3.org/1999/xlink" version="1.1" class="highcharts-root" style="font-family: Lucida Sans Unicode; font-size: 1rem;" xmlns="http://www.w3.org/2000/svg" width="1024" height="576" viewBox="0 0 1024 576" role="img" aria-label="Öffentliche Nettostromerzeugung in Deutschland 2026"><desc>Created with Highcharts 11.2.0</desc><defs><filter id="highcharts-drop-shadow-2"><feDropShadow dx="1" dy="1" flood-color="#000000" flood-opacity="0.75" stdDeviation="2.5"></feDropShadow></filter><clipPath id="highcharts-vs0w7vj-2422-"><rect x="0" y="0" width="934" height="388" fill="none"></rect></clipPath><clipPath id="highcharts-vs0w7vj-2549-"><rect x="0" y="0" width="934" height="388" fill="none"></rect></clipPath></defs><rect fill="white" class="highcharts-background" filter="none" x="0" y="0" width="1024" height="576" rx="0" ry="0"></rect><rect fill="none" class="highcharts-plot-background" x="80" y="67" width="934" height="388" filter="none"></rect><g class="highcharts-pane-group" data-z-index="0"></g><g class="highcharts-grid highcharts-xaxis-grid" data-z-index="1"><path fill="none" stroke="#e6e6e6" stroke-width="0" stroke-dasharray="none" data-z-index="1" class="highcharts-grid-line" d="M 83.5 67 L 83.5 455" opacity="1"></path><path fill="none" stroke="#e6e6e6" stroke-width="0" stroke-dasharray="none" data-z-index="1" class="highcharts-grid-line" d="M 238.5 67 L 238.5 455" opacity="1"></path><path fill="none" stroke="#e6e6e6" stroke-width="0" stroke-dasharray="none" data-z-index="1" class="highcharts-grid-line" d="M 394.5 67 L 394.5 455" opacity="1"></path><path fill="none" stroke="#e6e6e6" stroke-width="0" stroke-dasharray="none" data-z-index="1" class="highcharts-grid-line" d="M 550.5 67 L 550.5 455" opacity="1"></path><path fill="none" stroke="#e6e6e6" stroke-width="0" stroke-dasharray="none" data-z-index="1" class="highcharts-grid-line" d="M 705.5 67 L 705.5 455" opacity="1"></path><path fill="none" stroke="#e6e6e6" stroke-width="0" stroke-dasharray="none" data-z-index="1" class="highcharts-grid-line" d="M 861.5 67 L 861.5 455" opacity="1"></path></g><g class="highcharts-grid highcharts-yaxis-grid" data-z-index="1"><path fill="none" stroke="#e6e6e6" stroke-width="1" stroke-dasharray="none" data-z-index="1" class="highcharts-grid-line" d="M 80 455.5 L 1014 455.5" opacity="1"></path><path fill="none" stroke="#e6e6e6" stroke-width="1" stroke-dasharray="none" data-z-index="1" class="highcharts-grid-line" d="M 80 390.5 L 1014 390.5" opacity="1"></path><path fill="none" stroke="#e6e6e6" stroke-width="1" stroke-dasharray="none" data-z-index="1" class="highcharts-grid-line" d="M 80 326.5 L 1014 326.5" opacity="1"></path><path fill="none" stroke="#e6e6e6" stroke-width="1" stroke-dasharray="none" data-z-index="1" class="highcharts-grid-line" d="M 80 261.5 L 1014 261.5" opacity="1"></path><path fill="none" stroke="#e6e6e6" stroke-width="1" stroke-dasharray="none" data-z-index="1" class="highcharts-grid-line" d="M 80 196.5 L 1014 196.5" opacity="1"></path><path fill="none" stroke="#e6e6e6" stroke-width="1" stroke-dasharray="none" data-z-index="1" class="highcharts-grid-line" d="M 80 132.5 L 1014 132.5" opacity="1"></path><path fill="none" stroke="#e6e6e6" stroke-width="1" stroke-dasharray="none" data-z-index="1" class="highcharts-grid-line" d="M 80 66.5 L 1014 66.5" opacity="1"></path></g><rect fill="none" class="highcharts-plot-border" data-z-index="1" stroke="#cccccc" stroke-width="0" x="80" y="67" width="934" height="388"></rect><g class="highcharts-axis highcharts-xaxis" data-z-index="2"><text x="547" data-z-index="7" text-anchor="middle" transform="translate(0,0)" class="highcharts-axis-title" style="color: rgb(102, 102, 102); font-size: 0.8em; fill: rgb(102, 102, 102);" y="503">Tag</text><path fill="none" class="highcharts-axis-line" stroke="#333333" stroke-width="1" data-z-index="7" d="M 80 455.5 L 1014 455.5"></path></g><g class="highcharts-axis highcharts-yaxis" data-z-index="2"><text x="24.66666603088379" data-z-index="7" text-anchor="middle" transform="translate(0,0) rotate(270 24.66666603088379 261)" class="highcharts-axis-title" style="color: rgb(102, 102, 102); font-size: 0.8em; font-weight: bold; fill: rgb(102, 102, 102);" y="261">Energie (GWh)</text><path fill="none" class="highcharts-axis-line" stroke="#333333" stroke-width="0" data-z-index="7" d="M 80 67 L 80 455"></path></g><g class="highcharts-series-group" data-z-index="3" filter="none"><g class="highcharts-series highcharts-series-0 highcharts-column-series" visibility="hidden" data-z-index="0.1" opacity="1" transform="translate(80,67) scale(1 1)" clip-path="url(#highcharts-vs0w7vj-2549-)"></g><g class="highcharts-markers highcharts-series-0 highcharts-column-series" visibility="hidden" data-z-index="0.1" opacity="1" transform="translate(80,67) scale(1 1)" clip-path="none"></g><g class="highcharts-series highcharts-series-1 highcharts-column-series" visibility="hidden" data-z-index="0.1" opacity="1" transform="translate(80,67) scale(1 1)" clip-path="url(#highcharts-vs0w7vj-2549-)"></g><g class="highcharts-markers highcharts-series-1 highcharts-column-series" visibility="hidden" data-z-index="0.1" opacity="1" transform="translate(80,67) scale(1 1)" clip-path="none"></g><g class="highcharts-series highcharts-series-2 highcharts-column-series" visibility="hidden" data-z-index="0.1" opacity="1" transform="translate(80,67) scale(1 1)" clip-path="url(#highcharts-vs0w7vj-2549-)"></g><g class="highcharts-markers highcharts-series-2 highcharts-column-series" visibility="hidden" data-z-index="0.1" opacity="1" transform="translate(80,67) scale(1 1)" clip-path="none"></g><g class="highcharts-series highcharts-series-3 highcharts-column-series" visibility="hidden" data-z-index="0.1" opacity="1" transform="translate(80,67) scale(1 1)" clip-path="url(#highcharts-vs0w7vj-2549-)"></g><g class="highcharts-markers highcharts-series-3 highcharts-column-series" visibility="hidden" data-z-index="0.1" opacity="1" transform="translate(80,67) scale(1 1)" clip-path="none"></g><g class="highcharts-series highcharts-series-4 highcharts-column-series" visibility="hidden" data-z-index="0.1" opacity="1" transform="translate(80,67) scale(1 1)" clip-path="url(#highcharts-vs0w7vj-2549-)"></g><g class="highcharts-markers highcharts-series-4 highcharts-column-series" visibility="hidden" data-z-index="0.1" opacity="1" transform="translate(80,67) scale(1 1)" clip-path="none"></g><g class="highcharts-series highcharts-series-5 highcharts-column-series" visibility="hidden" data-z-index="0.1" opacity="1" transform="translate(80,67) scale(1 1)" clip-path="url(#highcharts-vs0w7vj-2549-)"></g><g class="highcharts-markers highcharts-series-5 highcharts-column-series" visibility="hidden" data-z-index="0.1" opacity="1" transform="translate(80,67) scale(1 1)" clip-path="none"></g><g class="highcharts-series highcharts-series-6 highcharts-column-series" visibility="hidden" data-z-index="0.1" opacity="1" transform="translate(80,67) scale(1 1)" clip-path="url(#highcharts-vs0w7vj-2549-)"></g><g class="highcharts-markers highcharts-series-6 highcharts-column-series" visibility="hidden" data-z-index="0.1" opacity="1" transform="translate(80,67) scale(1 1)" clip-path="none"></g><g class="highcharts-series highcharts-series-7 highcharts-column-series" visibility="hidden" data-z-index="0.1" opacity="1" transform="translate(80,67) scale(1 1)" clip-path="url(#highcharts-vs0w7vj-2549-)"></g><g class="highcharts-markers highcharts-series-7 highcharts-column-series" visibility="hidden" data-z-index="0.1" opacity="1" transform="translate(80,67) scale(1 1)" clip-path="none"></g><g class="highcharts-series highcharts-series-8 highcharts-column-series" visibility="hidden" data-z-index="0.1" opacity="1" transform="translate(80,67) scale(1 1)" clip-path="url(#highcharts-vs0w7vj-2549-)"></g><g class="highcharts-markers highcharts-series-8 highcharts-column-series" visibility="hidden" data-z-index="0.1" opacity="1" transform="translate(80,67) scale(1 1)" clip-path="none"></g><g class="highcharts-series highcharts-series-9 highcharts-column-series" visibility="hidden" data-z-index="0.1" opacity="1" transform="translate(80,67) scale(1 1)" clip-path="url(#highcharts-vs0w7vj-2549-)"></g><g class="highcharts-markers highcharts-series-9 highcharts-column-series" visibility="hidden" data-z-index="0.1" opacity="1" transform="translate(80,67) scale(1 1)" clip-path="none"></g><g class="highcharts-series highcharts-series-10 highcharts-column-series" visibility="hidden" data-z-index="0.1" opacity="1" transform="translate(80,67) scale(1 1)" clip-path="url(#highcharts-vs0w7vj-2549-)"></g><g class="highcharts-markers highcharts-series-10 highcharts-column-series" visibility="hidden" data-z-index="0.1" opacity="1" transform="translate(80,67) scale(1 1)" clip-path="none"></g><g class="highcharts-series highcharts-series-11 highcharts-column-series" visibility="hidden" data-z-index="0.1" opacity="1" transform="translate(80,67) scale(1 1)" clip-path="url(#highcharts-vs0w7vj-2549-)"></g><g class="highcharts-markers highcharts-series-11 highcharts-column-series" visibility="hidden" data-z-index="0.1" opacity="1" transform="translate(80,67) scale(1 1)" clip-path="none"></g><g class="highcharts-series highcharts-series-12 highcharts-column-series" visibility="hidden" data-z-index="0.1" opacity="1" transform="translate(80,67) scale(1 1)" clip-path="url(#highcharts-vs0w7vj-2549-)"></g><g class="highcharts-markers highcharts-series-12 highcharts-column-series" visibility="hidden" data-z-index="0.1" opacity="1" transform="translate(80,67) scale(1 1)" clip-path="none"></g><g class="highcharts-series highcharts-series-13 highcharts-column-series" visibility="hidden" data-z-index="0.1" opacity="1" transform="translate(80,67) scale(1 1)" clip-path="url(#highcharts-vs0w7vj-2549-)"></g><g class="highcharts-markers highcharts-series-13 highcharts-column-series" visibility="hidden" data-z-index="0.1" opacity="1" transform="translate(80,67) scale(1 1)" clip-path="none"></g><g class="highcharts-series highcharts-series-14 highcharts-column-series" visibility="hidden" data-z-index="0.1" opacity="1" transform="translate(80,67) scale(1 1)" clip-path="url(#highcharts-vs0w7vj-2549-)"></g><g class="highcharts-markers highcharts-series-14 highcharts-column-series" visibility="hidden" data-z-index="0.1" opacity="1" transform="translate(80,67) scale(1 1)" clip-path="none"></g><g class="highcharts-series highcharts-series-15 highcharts-column-series" data-z-index="0.1" opacity="1" transform="translate(80,67) scale(1 1)" clip-path="url(#highcharts-vs0w7vj-2549-)"><path fill="rgb(155,175,145)" d="M 1 353 L 8 353 A 0 0 0 0 1 8 353 L 8 389 A 0 0 0 0 1 8 389 L 1 389 A 0 0 0 0 1 1 389 L 1 353 A 0 0 0 0 1 1 353 Z" stroke="#ffffff" stroke-width="0" opacity="1" filter="none" class="highcharts-point"></path><path fill="rgb(155,175,145)" d="M 8 354 L 15 354 A 0 0 0 0 1 15 354 L 15 389 A 0 0 0 0 1 15 389 L 8 389 A 0 0 0 0 1 8 389 L 8 354 A 0 0 0 0 1 8 354 Z" stroke="#ffffff" stroke-width="0" opacity="1" filter="none" class="highcharts-point"></path><path fill="rgb(155,175,145)" d="M 15 348 L 22 348 A 0 0 0 0 1 22 348 L 22 389 A 0 0 0 0 1 22 389 L 15 389 A 0 0 0 0 1 15 389 L 15 348 A 0 0 0 0 1 15 348 Z" stroke="#ffffff" stroke-width="0" opacity="1" filter="none" class="highcharts-point"></path><path fill="rgb(155,175,145)" d="M 23 368 L 30 368 A 0 0 0 0 1 30 368 L 30 389 A 0 0 0 0 1 30 389 L 23 389 A 0 0 0 0 1 23 389 L 23 368 A 0 0 0 0 1 23 368 Z" stroke="#ffffff" stroke-width="0" opacity="1" filter="none" class="highcharts-point"></path><path fill="rgb(155,175,145)" d="M 30 372 L 37 372 A 0 0 0 0 1 37 372 L 37 389 A 0 0 0 0 1 37 389 L 30 389 A 0 0 0 0 1 30 389 L 30 372 A 0 0 0 0 1 30 372 Z" stroke="#ffffff" stroke-width="0" opacity="1" filter="none" class="highcharts-point"></path><path fill="rgb(155,175,145)" d="M 38 368 L 45 368 A 0 0 0 0 1 45 368 L 45 389 A 0 0 0 0 1 45 389 L 38 389 A 0 0 0 0 1 38 389 L 38 368 A 0 0 0 0 1 38 368 Z" stroke="#ffffff" stroke-width="0" opacity="1" filter="none" class="highcharts-point"></path><path fill="rgb(155,175,145)" d="M 45 341 L 52 341 A 0 0 0 0 1 52 341 L 52 389 A 0 0 0 0 1 52 389 L 45 389 A 0 0 0 0 1 45 389 L 45 341 A 0 0 0 0 1 45 341 Z" stroke="#ffffff" stroke-width="0" opacity="1" filter="none" class="highcharts-point"></path><path fill="rgb(155,175,145)" d="M 53 367 L 60 367 A 0 0 0 0 1 60 367 L 60 389 A 0 0 0 0 1 60 389 L 53 389 A 0 0 0 0 1 53 389 L 53 367 A 0 0 0 0 1 53 367 Z" stroke="#ffffff" stroke-width="0" opacity="1" filter="none" class="highcharts-point"></path><path fill="rgb(155,175,145)" d="M 60 348 L 67 348 A 0 0 0 0 1 67 348 L 67 389 A 0 0 0 0 1 67 389 L 60 389 A 0 0 0 0 1 60 389 L 60 348 A 0 0 0 0 1 60 348 Z" stroke="#ffffff" stroke-width="0" opacity="1" filter="none" class="highcharts-point"></path><path fill="rgb(155,175,145)" d="M 67 350 L 74 350 A 0 0 0 0 1 74 350 L 74 389 A 0 0 0 0 1 74 389 L 67 389 A 0 0 0 0 1 67 389 L 67 350 A 0 0 0 0 1 67 350 Z" stroke="#ffffff" stroke-width="0" opacity="1" filter="none" class="highcharts-point"></path><path fill="rgb(155,175,145)" d="M 75 355 L 82 355 A 0 0 0 0 1 82 355 L 82 389 A 0 0 0 0 1 82 389 L 75 389 A 0 0 0 0 1 75 389 L 75 355 A 0 0 0 0 1 75 355 Z" stroke="#ffffff" stroke-width="0" opacity="1" filter="none" class="highcharts-point"></path><path fill="rgb(155,175,145)" d="M 82 343 L 89 343 A 0 0 0 0 1 89 343 L 89 389 A 0 0 0 0 1 89 389 L 82 389 A 0 0 0 0 1 82 389 L 82 343 A 0 0 0 0 1 82 343 Z" stroke="#ffffff" stroke-width="0" opacity="1" filter="none" class="highcharts-point"></path><path fill="rgb(155,175,145)" d="M 90 351 L 97 351 A 0 0 0 0 1 97 351 L 97 389 A 0 0 0 0 1 97 389 L 90 389 A 0 0 0 0 1 90 389 L 90 351 A 0 0 0 0 1 90 351 Z" stroke="#ffffff" stroke-width="0" opacity="1" filter="none" class="highcharts-point"></path><path fill="rgb(155,175,145)" d="M 97 359 L 104 359 A 0 0 0 0 1 104 359 L 104 389 A 0 0 0 0 1 104 389 L 97 389 A 0 0 0 0 1 97 389 L 97 359 A 0 0 0 0 1 97 359 Z" stroke="#ffffff" stroke-width="0" opacity="1" filter="none" class="highcharts-point"></path><path fill="rgb(155,175,145)" d="M 104 349 L 111 349 A 0 0 0 0 1 111 349 L 111 389 A 0 0 0 0 1 111 389 L 104 389 A 0 0 0 0 1 104 389 L 104 349 A 0 0 0 0 1 104 349 Z" stroke="#ffffff" stroke-width="0" opacity="1" filter="none" class="highcharts-point"></path><path fill="rgb(155,175,145)" d="M 112 357 L 119 357 A 0 0 0 0 1 119 357 L 119 389 A 0 0 0 0 1 119 389 L 112 389 A 0 0 0 0 1 112 389 L 112 357 A 0 0 0 0 1 112 357 Z" stroke="#ffffff" stroke-width="0" opacity="1" filter="none" class="highcharts-point"></path><path fill="rgb(155,175,145)" d="M 119 371 L 126 371 A 0 0 0 0 1 126 371 L 126 389 A 0 0 0 0 1 126 389 L 119 389 A 0 0 0 0 1 119 389 L 119 371 A 0 0 0 0 1 119 371 Z" stroke="#ffffff" stroke-width="0" opacity="1" filter="none" class="highcharts-point"></path><path fill="rgb(155,175,145)" d="M 127 369 L 134 369 A 0 0 0 0 1 134 369 L 134 389 A 0 0 0 0 1 134 389 L 127 389 A 0 0 0 0 1 127 389 L 127 369 A 0 0 0 0 1 127 369 Z" stroke="#ffffff" stroke-width="0" opacity="1" filter="none" class="highcharts-point"></path><path fill="rgb(155,175,145)" d="M 134 372 L 141 372 A 0 0 0 0 1 141 372 L 141 389 A 0 0 0 0 1 141 389 L 134 389 A 0 0 0 0 1 134 389 L 134 372 A 0 0 0 0 1 134 372 Z" stroke="#ffffff" stroke-width="0" opacity="1" filter="none" class="highcharts-point"></path><path fill="rgb(155,175,145)" d="M 141 374 L 148 374 A 0 0 0 0 1 148 374 L 148 389 A 0 0 0 0 1 148 389 L 141 389 A 0 0 0 0 1 141 389 L 141 374 A 0 0 0 0 1 141 374 Z" stroke="#ffffff" stroke-width="0" opacity="1" filter="none" class="highcharts-point"></path><path fill="rgb(155,175,145)" d="M 149 352 L 156 352 A 0 0 0 0 1 156 352 L 156 389 A 0 0 0 0 1 156 389 L 149 389 A 0 0 0 0 1 149 389 L 149 352 A 0 0 0 0 1 149 352 Z" stroke="#ffffff" stroke-width="0" opacity="1" filter="none" class="highcharts-point"></path><path fill="rgb(155,175,145)" d="M 156 334 L 163 334 A 0 0 0 0 1 163 334 L 163 389 A 0 0 0 0 1 163 389 L 156 389 A 0 0 0 0 1 156 389 L 156 334 A 0 0 0 0 1 156 334 Z" stroke="#ffffff" stroke-width="0" opacity="1" filter="none" class="highcharts-point"></path><path fill="rgb(155,175,145)" d="M 164 335 L 171 335 A 0 0 0 0 1 171 335 L 171 389 A 0 0 0 0 1 171 389 L 164 389 A 0 0 0 0 1 164 389 L 164 335 A 0 0 0 0 1 164 335 Z" stroke="#ffffff" stroke-width="0" opacity="1" filter="none" class="highcharts-point"></path><path fill="rgb(155,175,145)" d="M 171 330 L 178 330 A 0 0 0 0 1 178 330 L 178 389 A 0 0 0 0 1 178 389 L 171 389 A 0 0 0 0 1 171 389 L 171 330 A 0 0 0 0 1 171 330 Z" stroke="#ffffff" stroke-width="0" opacity="1" filter="none" class="highcharts-point"></path><path fill="rgb(155,175,145)" d="M 179 337 L 186 337 A 0 0 0 0 1 186 337 L 186 389 A 0 0 0 0 1 186 389 L 179 389 A 0 0 0 0 1 179 389 L 179 337 A 0 0 0 0 1 179 337 Z" stroke="#ffffff" stroke-width="0" opacity="1" filter="none" class="highcharts-point"></path><path fill="rgb(155,175,145)" d="M 186 340 L 193 340 A 0 0 0 0 1 193 340 L 193 389 A 0 0 0 0 1 193 389 L 186 389 A 0 0 0 0 1 186 389 L 186 340 A 0 0 0 0 1 186 340 Z" stroke="#ffffff" stroke-width="0" opacity="1" filter="none" class="highcharts-point"></path><path fill="rgb(155,175,145)" d="M 193 339 L 200 339 A 0 0 0 0 1 200 339 L 200 389 A 0 0 0 0 1 200 389 L 193 389 A 0 0 0 0 1 193 389 L 193 339 A 0 0 0 0 1 193 339 Z" stroke="#ffffff" stroke-width="0" opacity="1" filter="none" class="highcharts-point"></path><path fill="rgb(155,175,145)" d="M 201 331 L 208 331 A 0 0 0 0 1 208 331 L 208 389 A 0 0 0 0 1 208 389 L 201 389 A 0 0 0 0 1 201 389 L 201 331 A 0 0 0 0 1 201 331 Z" stroke="#ffffff" stroke-width="0" opacity="1" filter="none" class="highcharts-point"></path><path fill="rgb(155,175,145)" d="M 208 330 L 215 330 A 0 0 0 0 1 215 330 L 215 389 A 0 0 0 0 1 215 389 L 208 389 A 0 0 0 0 1 208 389 L 208 330 A 0 0 0 0 1 208 330 Z" stroke="#ffffff" stroke-width="0" opacity="1" filter="none" class="highcharts-point"></path><path fill="rgb(155,175,145)" d="M 216 327 L 223 327 A 0 0 0 0 1 223 327 L 223 389 A 0 0 0 0 1 223 389 L 216 389 A 0 0 0 0 1 216 389 L 216 327 A 0 0 0 0 1 216 327 Z" stroke="#ffffff" stroke-width="0" opacity="1" filter="none" class="highcharts-point"></path><path fill="rgb(155,175,145)" d="M 223 331 L 230 331 A 0 0 0 0 1 230 331 L 230 389 A 0 0 0 0 1 230 389 L 223 389 A 0 0 0 0 1 223 389 L 223 331 A 0 0 0 0 1 223 331 Z" stroke="#ffffff" stroke-width="0" opacity="1" filter="none" class="highcharts-point"></path><path fill="rgb(155,175,145)" d="M 230 334 L 237 334 A 0 0 0 0 1 237 334 L 237 389 A 0 0 0 0 1 237 389 L 230 389 A 0 0 0 0 1 230 389 L 230 334 A 0 0 0 0 1 230 334 Z" stroke="#ffffff" stroke-width="0" opacity="1" filter="none" class="highcharts-point"></path><path fill="rgb(155,175,145)" d="M 238 328 L 245 328 A 0 0 0 0 1 245 328 L 245 389 A 0 0 0 0 1 245 389 L 238 389 A 0 0 0 0 1 238 389 L 238 328 A 0 0 0 0 1 238 328 Z" stroke="#ffffff" stroke-width="0" opacity="1" filter="none" class="highcharts-point"></path><path fill="rgb(155,175,145)" d="M 245 330 L 252 330 A 0 0 0 0 1 252 330 L 252 389 A 0 0 0 0 1 252 389 L 245 389 A 0 0 0 0 1 245 389 L 245 330 A 0 0 0 0 1 245 330 Z" stroke="#ffffff" stroke-width="0" opacity="1" filter="none" class="highcharts-point"></path><path fill="rgb(155,175,145)" d="M 253 334 L 260 334 A 0 0 0 0 1 260 334 L 260 389 A 0 0 0 0 1 260 389 L 253 389 A 0 0 0 0 1 253 389 L 253 334 A 0 0 0 0 1 253 334 Z" stroke="#ffffff" stroke-width="0" opacity="1" filter="none" class="highcharts-point"></path><path fill="rgb(155,175,145)" d="M 260 330 L 267 330 A 0 0 0 0 1 267 330 L 267 389 A 0 0 0 0 1 267 389 L 260 389 A 0 0 0 0 1 260 389 L 260 330 A 0 0 0 0 1 260 330 Z" stroke="#ffffff" stroke-width="0" opacity="1" filter="none" class="highcharts-point"></path><path fill="rgb(155,175,145)" d="M 267 340 L 274 340 A 0 0 0 0 1 274 340 L 274 389 A 0 0 0 0 1 274 389 L 267 389 A 0 0 0 0 1 267 389 L 267 340 A 0 0 0 0 1 267 340 Z" stroke="#ffffff" stroke-width="0" opacity="1" filter="none" class="highcharts-point"></path><path fill="rgb(155,175,145)" d="M 275 348 L 282 348 A 0 0 0 0 1 282 348 L 282 389 A 0 0 0 0 1 282 389 L 275 389 A 0 0 0 0 1 275 389 L 275 348 A 0 0 0 0 1 275 348 Z" stroke="#ffffff" stroke-width="0" opacity="1" filter="none" class="highcharts-point"></path><path fill="rgb(155,175,145)" d="M 282 335 L 289 335 A 0 0 0 0 1 289 335 L 289 389 A 0 0 0 0 1 289 389 L 282 389 A 0 0 0 0 1 282 389 L 282 335 A 0 0 0 0 1 282 335 Z" stroke="#ffffff" stroke-width="0" opacity="1" filter="none" class="highcharts-point"></path><path fill="rgb(155,175,145)" d="M 290 358 L 297 358 A 0 0 0 0 1 297 358 L 297 389 A 0 0 0 0 1 297 389 L 290 389 A 0 0 0 0 1 290 389 L 290 358 A 0 0 0 0 1 290 358 Z" stroke="#ffffff" stroke-width="0" opacity="1" filter="none" class="highcharts-point"></path><path fill="rgb(155,175,145)" d="M 297 365 L 304 365 A 0 0 0 0 1 304 365 L 304 389 A 0 0 0 0 1 304 389 L 297 389 A 0 0 0 0 1 297 389 L 297 365 A 0 0 0 0 1 297 365 Z" stroke="#ffffff" stroke-width="0" opacity="1" filter="none" class="highcharts-point"></path><path fill="rgb(155,175,145)" d="M 305 352 L 312 352 A 0 0 0 0 1 312 352 L 312 389 A 0 0 0 0 1 312 389 L 305 389 A 0 0 0 0 1 305 389 L 305 352 A 0 0 0 0 1 305 352 Z" stroke="#ffffff" stroke-width="0" opacity="1" filter="none" class="highcharts-point"></path><path fill="rgb(155,175,145)" d="M 312 332 L 319 332 A 0 0 0 0 1 319 332 L 319 389 A 0 0 0 0 1 319 389 L 312 389 A 0 0 0 0 1 312 389 L 312 332 A 0 0 0 0 1 312 332 Z" stroke="#ffffff" stroke-width="0" opacity="1" filter="none" class="highcharts-point"></path><path fill="rgb(155,175,145)" d="M 319 346 L 326 346 A 0 0 0 0 1 326 346 L 326 389 A 0 0 0 0 1 326 389 L 319 389 A 0 0 0 0 1 319 389 L 319 346 A 0 0 0 0 1 319 346 Z" stroke="#ffffff" stroke-width="0" opacity="1" filter="none" class="highcharts-point"></path><path fill="rgb(155,175,145)" d="M 327 376 L 334 376 A 0 0 0 0 1 334 376 L 334 389 A 0 0 0 0 1 334 389 L 327 389 A 0 0 0 0 1 327 389 L 327 376 A 0 0 0 0 1 327 376 Z" stroke="#ffffff" stroke-width="0" opacity="1" filter="none" class="highcharts-point"></path><path fill="rgb(155,175,145)" d="M 334 347 L 341 347 A 0 0 0 0 1 341 347 L 341 389 A 0 0 0 0 1 341 389 L 334 389 A 0 0 0 0 1 334 389 L 334 347 A 0 0 0 0 1 334 347 Z" stroke="#ffffff" stroke-width="0" opacity="1" filter="none" class="highcharts-point"></path><path fill="rgb(155,175,145)" d="M 342 348 L 349 348 A 0 0 0 0 1 349 348 L 349 389 A 0 0 0 0 1 349 389 L 342 389 A 0 0 0 0 1 342 389 L 342 348 A 0 0 0 0 1 342 348 Z" stroke="#ffffff" stroke-width="0" opacity="1" filter="none" class="highcharts-point"></path><path fill="rgb(155,175,145)" d="M 349 366 L 356 366 A 0 0 0 0 1 356 366 L 356 389 A 0 0 0 0 1 356 389 L 349 389 A 0 0 0 0 1 349 389 L 349 366 A 0 0 0 0 1 349 366 Z" stroke="#ffffff" stroke-width="0" opacity="1" filter="none" class="highcharts-point"></path><path fill="rgb(155,175,145)" d="M 356 371 L 363 371 A 0 0 0 0 1 363 371 L 363 389 A 0 0 0 0 1 363 389 L 356 389 A 0 0 0 0 1 356 389 L 356 371 A 0 0 0 0 1 356 371 Z" stroke="#ffffff" stroke-width="0" opacity="1" filter="none" class="highcharts-point"></path><path fill="rgb(155,175,145)" d="M 364 338 L 371 338 A 0 0 0 0 1 371 338 L 371 389 A 0 0 0 0 1 371 389 L 364 389 A 0 0 0 0 1 364 389 L 364 338 A 0 0 0 0 1 364 338 Z" stroke="#ffffff" stroke-width="0" opacity="1" filter="none" class="highcharts-point"></path><path fill="rgb(155,175,145)" d="M 371 336 L 378 336 A 0 0 0 0 1 378 336 L 378 389 A 0 0 0 0 1 378 389 L 371 389 A 0 0 0 0 1 371 389 L 371 336 A 0 0 0 0 1 371 336 Z" stroke="#ffffff" stroke-width="0" opacity="1" filter="none" class="highcharts-point"></path><path fill="rgb(155,175,145)" d="M 379 339 L 386 339 A 0 0 0 0 1 386 339 L 386 389 A 0 0 0 0 1 386 389 L 379 389 A 0 0 0 0 1 379 389 L 379 339 A 0 0 0 0 1 379 339 Z" stroke="#ffffff" stroke-width="0" opacity="1" filter="none" class="highcharts-point"></path><path fill="rgb(155,175,145)" d="M 386 342 L 393 342 A 0 0 0 0 1 393 342 L 393 389 A 0 0 0 0 1 393 389 L 386 389 A 0 0 0 0 1 386 389 L 386 342 A 0 0 0 0 1 386 342 Z" stroke="#ffffff" stroke-width="0" opacity="1" filter="none" class="highcharts-point"></path><path fill="rgb(155,175,145)" d="M 394 334 L 401 334 A 0 0 0 0 1 401 334 L 401 389 A 0 0 0 0 1 401 389 L 394 389 A 0 0 0 0 1 394 389 L 394 334 A 0 0 0 0 1 394 334 Z" stroke="#ffffff" stroke-width="0" opacity="1" filter="none" class="highcharts-point"></path><path fill="rgb(155,175,145)" d="M 401 377 L 408 377 A 0 0 0 0 1 408 377 L 408 389 A 0 0 0 0 1 408 389 L 401 389 A 0 0 0 0 1 401 389 L 401 377 A 0 0 0 0 1 401 377 Z" stroke="#ffffff" stroke-width="0" opacity="1" filter="none" class="highcharts-point"></path><path fill="rgb(155,175,145)" d="M 408 356 L 415 356 A 0 0 0 0 1 415 356 L 415 389 A 0 0 0 0 1 415 389 L 408 389 A 0 0 0 0 1 408 389 L 408 356 A 0 0 0 0 1 408 356 Z" stroke="#ffffff" stroke-width="0" opacity="1" filter="none" class="highcharts-point"></path><path fill="rgb(155,175,145)" d="M 416 338 L 423 338 A 0 0 0 0 1 423 338 L 423 389 A 0 0 0 0 1 423 389 L 416 389 A 0 0 0 0 1 416 389 L 416 338 A 0 0 0 0 1 416 338 Z" stroke="#ffffff" stroke-width="0" opacity="1" filter="none" class="highcharts-point"></path><path fill="rgb(155,175,145)" d="M 423 347 L 430 347 A 0 0 0 0 1 430 347 L 430 389 A 0 0 0 0 1 430 389 L 423 389 A 0 0 0 0 1 423 389 L 423 347 A 0 0 0 0 1 423 347 Z" stroke="#ffffff" stroke-width="0" opacity="1" filter="none" class="highcharts-point"></path><path fill="rgb(155,175,145)" d="M 431 350 L 438 350 A 0 0 0 0 1 438 350 L 438 389 A 0 0 0 0 1 438 389 L 431 389 A 0 0 0 0 1 431 389 L 431 350 A 0 0 0 0 1 431 350 Z" stroke="#ffffff" stroke-width="0" opacity="1" filter="none" class="highcharts-point"></path><path fill="rgb(155,175,145)" d="M 438 345 L 445 345 A 0 0 0 0 1 445 345 L 445 389 A 0 0 0 0 1 445 389 L 438 389 A 0 0 0 0 1 438 389 L 438 345 A 0 0 0 0 1 438 345 Z" stroke="#ffffff" stroke-width="0" opacity="1" filter="none" class="highcharts-point"></path><path fill="rgb(155,175,145)" d="M 445 349 L 452 349 A 0 0 0 0 1 452 349 L 452 389 A 0 0 0 0 1 452 389 L 445 389 A 0 0 0 0 1 445 389 L 445 349 A 0 0 0 0 1 445 349 Z" stroke="#ffffff" stroke-width="0" opacity="1" filter="none" class="highcharts-point"></path><path fill="rgb(155,175,145)" d="M 453 369 L 460 369 A 0 0 0 0 1 460 369 L 460 389 A 0 0 0 0 1 460 389 L 453 389 A 0 0 0 0 1 453 389 L 453 369 A 0 0 0 0 1 453 369 Z" stroke="#ffffff" stroke-width="0" opacity="1" filter="none" class="highcharts-point"></path><path fill="rgb(155,175,145)" d="M 460 377 L 467 377 A 0 0 0 0 1 467 377 L 467 389 A 0 0 0 0 1 467 389 L 460 389 A 0 0 0 0 1 460 389 L 460 377 A 0 0 0 0 1 460 377 Z" stroke="#ffffff" stroke-width="0" opacity="1" filter="none" class="highcharts-point"></path><path fill="rgb(155,175,145)" d="M 468 371 L 475 371 A 0 0 0 0 1 475 371 L 475 389 A 0 0 0 0 1 475 389 L 468 389 A 0 0 0 0 1 468 389 L 468 371 A 0 0 0 0 1 468 371 Z" stroke="#ffffff" stroke-width="0" opacity="1" filter="none" class="highcharts-point"></path><path fill="rgb(155,175,145)" d="M 475 382 L 482 382 A 0 0 0 0 1 482 382 L 482 389 A 0 0 0 0 1 482 389 L 475 389 A 0 0 0 0 1 475 389 L 475 382 A 0 0 0 0 1 475 382 Z" stroke="#ffffff" stroke-width="0" opacity="1" filter="none" class="highcharts-point"></path><path fill="rgb(155,175,145)" d="M 482 386 L 489 386 A 0 0 0 0 1 489 386 L 489 389 A 0 0 0 0 1 489 389 L 482 389 A 0 0 0 0 1 482 389 L 482 386 A 0 0 0 0 1 482 386 Z" stroke="#ffffff" stroke-width="0" opacity="1" filter="none" class="highcharts-point"></path><path fill="rgb(155,175,145)" d="M 490 383 L 497 383 A 0 0 0 0 1 497 383 L 497 389 A 0 0 0 0 1 497 389 L 490 389 A 0 0 0 0 1 490 389 L 490 383 A 0 0 0 0 1 490 383 Z" stroke="#ffffff" stroke-width="0" opacity="1" filter="none" class="highcharts-point"></path><path fill="rgb(155,175,145)" d="M 497 385 L 504 385 A 0 0 0 0 1 504 385 L 504 389 A 0 0 0 0 1 504 389 L 497 389 A 0 0 0 0 1 497 389 L 497 385 A 0 0 0 0 1 497 385 Z" stroke="#ffffff" stroke-width="0" opacity="1" filter="none" class="highcharts-point"></path><path fill="rgb(155,175,145)" d="M 505 381 L 512 381 A 0 0 0 0 1 512 381 L 512 389 A 0 0 0 0 1 512 389 L 505 389 A 0 0 0 0 1 505 389 L 505 381 A 0 0 0 0 1 505 381 Z" stroke="#ffffff" stroke-width="0" opacity="1" filter="none" class="highcharts-point"></path><path fill="rgb(155,175,145)" d="M 512 342 L 519 342 A 0 0 0 0 1 519 342 L 519 389 A 0 0 0 0 1 519 389 L 512 389 A 0 0 0 0 1 512 389 L 512 342 A 0 0 0 0 1 512 342 Z" stroke="#ffffff" stroke-width="0" opacity="1" filter="none" class="highcharts-point"></path><path fill="rgb(155,175,145)" d="M 520 344 L 527 344 A 0 0 0 0 1 527 344 L 527 389 A 0 0 0 0 1 527 389 L 520 389 A 0 0 0 0 1 520 389 L 520 344 A 0 0 0 0 1 520 344 Z" stroke="#ffffff" stroke-width="0" opacity="1" filter="none" class="highcharts-point"></path><path fill="rgb(155,175,145)" d="M 527 348 L 534 348 A 0 0 0 0 1 534 348 L 534 389 A 0 0 0 0 1 534 389 L 527 389 A 0 0 0 0 1 527 389 L 527 348 A 0 0 0 0 1 527 348 Z" stroke="#ffffff" stroke-width="0" opacity="1" filter="none" class="highcharts-point"></path><path fill="rgb(155,175,145)" d="M 534 384 L 541 384 A 0 0 0 0 1 541 384 L 541 389 A 0 0 0 0 1 541 389 L 534 389 A 0 0 0 0 1 534 389 L 534 384 A 0 0 0 0 1 534 384 Z" stroke="#ffffff" stroke-width="0" opacity="1" filter="none" class="highcharts-point"></path><path fill="rgb(155,175,145)" d="M 542 365 L 549 365 A 0 0 0 0 1 549 365 L 549 389 A 0 0 0 0 1 549 389 L 542 389 A 0 0 0 0 1 542 389 L 542 365 A 0 0 0 0 1 542 365 Z" stroke="#ffffff" stroke-width="0" opacity="1" filter="none" class="highcharts-point"></path><path fill="rgb(155,175,145)" d="M 549 352 L 556 352 A 0 0 0 0 1 556 352 L 556 389 A 0 0 0 0 1 556 389 L 549 389 A 0 0 0 0 1 549 389 L 549 352 A 0 0 0 0 1 549 352 Z" stroke="#ffffff" stroke-width="0" opacity="1" filter="none" class="highcharts-point"></path><path fill="rgb(155,175,145)" d="M 557 358 L 564 358 A 0 0 0 0 1 564 358 L 564 389 A 0 0 0 0 1 564 389 L 557 389 A 0 0 0 0 1 557 389 L 557 358 A 0 0 0 0 1 557 358 Z" stroke="#ffffff" stroke-width="0" opacity="1" filter="none" class="highcharts-point"></path><path fill="rgb(155,175,145)" d="M 564 365 L 571 365 A 0 0 0 0 1 571 365 L 571 389 A 0 0 0 0 1 571 389 L 564 389 A 0 0 0 0 1 564 389 L 564 365 A 0 0 0 0 1 564 365 Z" stroke="#ffffff" stroke-width="0" opacity="1" filter="none" class="highcharts-point"></path><path fill="rgb(155,175,145)" d="M 571 383 L 578 383 A 0 0 0 0 1 578 383 L 578 389 A 0 0 0 0 1 578 389 L 571 389 A 0 0 0 0 1 571 389 L 571 383 A 0 0 0 0 1 571 383 Z" stroke="#ffffff" stroke-width="0" opacity="1" filter="none" class="highcharts-point"></path><path fill="rgb(155,175,145)" d="M 579 384 L 586 384 A 0 0 0 0 1 586 384 L 586 389 A 0 0 0 0 1 586 389 L 579 389 A 0 0 0 0 1 579 389 L 579 384 A 0 0 0 0 1 579 384 Z" stroke="#ffffff" stroke-width="0" opacity="1" filter="none" class="highcharts-point"></path><path fill="rgb(155,175,145)" d="M 586 385 L 593 385 A 0 0 0 0 1 593 385 L 593 389 A 0 0 0 0 1 593 389 L 586 389 A 0 0 0 0 1 586 389 L 586 385 A 0 0 0 0 1 586 385 Z" stroke="#ffffff" stroke-width="0" opacity="1" filter="none" class="highcharts-point"></path><path fill="rgb(155,175,145)" d="M 594 383 L 601 383 A 0 0 0 0 1 601 383 L 601 389 A 0 0 0 0 1 601 389 L 594 389 A 0 0 0 0 1 594 389 L 594 383 A 0 0 0 0 1 594 383 Z" stroke="#ffffff" stroke-width="0" opacity="1" filter="none" class="highcharts-point"></path><path fill="rgb(155,175,145)" d="M 601 386 L 608 386 A 0 0 0 0 1 608 386 L 608 389 A 0 0 0 0 1 608 389 L 601 389 A 0 0 0 0 1 601 389 L 601 386 A 0 0 0 0 1 601 386 Z" stroke="#ffffff" stroke-width="0" opacity="1" filter="none" class="highcharts-point"></path><path fill="rgb(155,175,145)" d="M 608 346 L 615 346 A 0 0 0 0 1 615 346 L 615 389 A 0 0 0 0 1 615 389 L 608 389 A 0 0 0 0 1 608 389 L 608 346 A 0 0 0 0 1 608 346 Z" stroke="#ffffff" stroke-width="0" opacity="1" filter="none" class="highcharts-point"></path><path fill="rgb(155,175,145)" d="M 616 338 L 623 338 A 0 0 0 0 1 623 338 L 623 389 A 0 0 0 0 1 623 389 L 616 389 A 0 0 0 0 1 616 389 L 616 338 A 0 0 0 0 1 616 338 Z" stroke="#ffffff" stroke-width="0" opacity="1" filter="none" class="highcharts-point"></path><path fill="rgb(155,175,145)" d="M 623 337 L 630 337 A 0 0 0 0 1 630 337 L 630 389 A 0 0 0 0 1 630 389 L 623 389 A 0 0 0 0 1 623 389 L 623 337 A 0 0 0 0 1 623 337 Z" stroke="#ffffff" stroke-width="0" opacity="1" filter="none" class="highcharts-point"></path><path fill="rgb(155,175,145)" d="M 631 356 L 638 356 A 0 0 0 0 1 638 356 L 638 389 A 0 0 0 0 1 638 389 L 631 389 A 0 0 0 0 1 631 389 L 631 356 A 0 0 0 0 1 631 356 Z" stroke="#ffffff" stroke-width="0" opacity="1" filter="none" class="highcharts-point"></path><path fill="rgb(155,175,145)" d="M 638 360 L 645 360 A 0 0 0 0 1 645 360 L 645 389 A 0 0 0 0 1 645 389 L 638 389 A 0 0 0 0 1 638 389 L 638 360 A 0 0 0 0 1 638 360 Z" stroke="#ffffff" stroke-width="0" opacity="1" filter="none" class="highcharts-point"></path><path fill="rgb(155,175,145)" d="M 646 359 L 653 359 A 0 0 0 0 1 653 359 L 653 389 A 0 0 0 0 1 653 389 L 646 389 A 0 0 0 0 1 646 389 L 646 359 A 0 0 0 0 1 646 359 Z" stroke="#ffffff" stroke-width="0" opacity="1" filter="none" class="highcharts-point"></path><path fill="rgb(155,175,145)" d="M 653 347 L 660 347 A 0 0 0 0 1 660 347 L 660 389 A 0 0 0 0 1 660 389 L 653 389 A 0 0 0 0 1 653 389 L 653 347 A 0 0 0 0 1 653 347 Z" stroke="#ffffff" stroke-width="0" opacity="1" filter="none" class="highcharts-point"></path><path fill="rgb(155,175,145)" d="M 660 360 L 667 360 A 0 0 0 0 1 667 360 L 667 389 A 0 0 0 0 1 667 389 L 660 389 A 0 0 0 0 1 660 389 L 660 360 A 0 0 0 0 1 660 360 Z" stroke="#ffffff" stroke-width="0" opacity="1" filter="none" class="highcharts-point"></path><path fill="rgb(155,175,145)" d="M 668 385 L 675 385 A 0 0 0 0 1 675 385 L 675 389 A 0 0 0 0 1 675 389 L 668 389 A 0 0 0 0 1 668 389 L 668 385 A 0 0 0 0 1 668 385 Z" stroke="#ffffff" stroke-width="0" opacity="1" filter="none" class="highcharts-point"></path><path fill="rgb(155,175,145)" d="M 675 369 L 682 369 A 0 0 0 0 1 682 369 L 682 389 A 0 0 0 0 1 682 389 L 675 389 A 0 0 0 0 1 675 389 L 675 369 A 0 0 0 0 1 675 369 Z" stroke="#ffffff" stroke-width="0" opacity="1" filter="none" class="highcharts-point"></path><path fill="rgb(155,175,145)" d="M 683 352 L 690 352 A 0 0 0 0 1 690 352 L 690 389 A 0 0 0 0 1 690 389 L 683 389 A 0 0 0 0 1 683 389 L 683 352 A 0 0 0 0 1 683 352 Z" stroke="#ffffff" stroke-width="0" opacity="1" filter="none" class="highcharts-point"></path><path fill="rgb(155,175,145)" d="M 690 349 L 697 349 A 0 0 0 0 1 697 349 L 697 389 A 0 0 0 0 1 697 389 L 690 389 A 0 0 0 0 1 690 389 L 690 349 A 0 0 0 0 1 690 349 Z" stroke="#ffffff" stroke-width="0" opacity="1" filter="none" class="highcharts-point"></path><path fill="rgb(155,175,145)" d="M 697 356 L 704 356 A 0 0 0 0 1 704 356 L 704 389 A 0 0 0 0 1 704 389 L 697 389 A 0 0 0 0 1 697 389 L 697 356 A 0 0 0 0 1 697 356 Z" stroke="#ffffff" stroke-width="0" opacity="1" filter="none" class="highcharts-point"></path><path fill="rgb(155,175,145)" d="M 705 359 L 712 359 A 0 0 0 0 1 712 359 L 712 389 A 0 0 0 0 1 712 389 L 705 389 A 0 0 0 0 1 705 389 L 705 359 A 0 0 0 0 1 705 359 Z" stroke="#ffffff" stroke-width="0" opacity="1" filter="none" class="highcharts-point"></path><path fill="rgb(155,175,145)" d="M 712 377 L 719 377 A 0 0 0 0 1 719 377 L 719 389 A 0 0 0 0 1 719 389 L 712 389 A 0 0 0 0 1 712 389 L 712 377 A 0 0 0 0 1 712 377 Z" stroke="#ffffff" stroke-width="0" opacity="1" filter="none" class="highcharts-point"></path><path fill="rgb(155,175,145)" d="M 720 367 L 727 367 A 0 0 0 0 1 727 367 L 727 389 A 0 0 0 0 1 727 389 L 720 389 A 0 0 0 0 1 720 389 L 720 367 A 0 0 0 0 1 720 367 Z" stroke="#ffffff" stroke-width="0" opacity="1" filter="none" class="highcharts-point"></path><path fill="rgb(155,175,145)" d="M 727 350 L 734 350 A 0 0 0 0 1 734 350 L 734 389 A 0 0 0 0 1 734 389 L 727 389 A 0 0 0 0 1 727 389 L 727 350 A 0 0 0 0 1 727 350 Z" stroke="#ffffff" stroke-width="0" opacity="1" filter="none" class="highcharts-point"></path><path fill="rgb(155,175,145)" d="M 734 361 L 741 361 A 0 0 0 0 1 741 361 L 741 389 A 0 0 0 0 1 741 389 L 734 389 A 0 0 0 0 1 734 389 L 734 361 A 0 0 0 0 1 734 361 Z" stroke="#ffffff" stroke-width="0" opacity="1" filter="none" class="highcharts-point"></path><path fill="rgb(155,175,145)" d="M 742 365 L 749 365 A 0 0 0 0 1 749 365 L 749 389 A 0 0 0 0 1 749 389 L 742 389 A 0 0 0 0 1 742 389 L 742 365 A 0 0 0 0 1 742 365 Z" stroke="#ffffff" stroke-width="0" opacity="1" filter="none" class="highcharts-point"></path><path fill="rgb(155,175,145)" d="M 749 367 L 756 367 A 0 0 0 0 1 756 367 L 756 389 A 0 0 0 0 1 756 389 L 749 389 A 0 0 0 0 1 749 389 L 749 367 A 0 0 0 0 1 749 367 Z" stroke="#ffffff" stroke-width="0" opacity="1" filter="none" class="highcharts-point"></path><path fill="rgb(155,175,145)" d="M 757 377 L 764 377 A 0 0 0 0 1 764 377 L 764 389 A 0 0 0 0 1 764 389 L 757 389 A 0 0 0 0 1 757 389 L 757 377 A 0 0 0 0 1 757 377 Z" stroke="#ffffff" stroke-width="0" opacity="1" filter="none" class="highcharts-point"></path><path fill="rgb(155,175,145)" d="M 764 378 L 771 378 A 0 0 0 0 1 771 378 L 771 389 A 0 0 0 0 1 771 389 L 764 389 A 0 0 0 0 1 764 389 L 764 378 A 0 0 0 0 1 764 378 Z" stroke="#ffffff" stroke-width="0" opacity="1" filter="none" class="highcharts-point"></path><path fill="rgb(155,175,145)" d="M 772 378 L 779 378 A 0 0 0 0 1 779 378 L 779 389 A 0 0 0 0 1 779 389 L 772 389 A 0 0 0 0 1 772 389 L 772 378 A 0 0 0 0 1 772 378 Z" stroke="#ffffff" stroke-width="0" opacity="1" filter="none" class="highcharts-point"></path><path fill="rgb(155,175,145)" d="M 779 376 L 786 376 A 0 0 0 0 1 786 376 L 786 389 A 0 0 0 0 1 786 389 L 779 389 A 0 0 0 0 1 779 389 L 779 376 A 0 0 0 0 1 779 376 Z" stroke="#ffffff" stroke-width="0" opacity="1" filter="none" class="highcharts-point"></path><path fill="rgb(155,175,145)" d="M 786 384 L 793 384 A 0 0 0 0 1 793 384 L 793 389 A 0 0 0 0 1 793 389 L 786 389 A 0 0 0 0 1 786 389 L 786 384 A 0 0 0 0 1 786 384 Z" stroke="#ffffff" stroke-width="0" opacity="1" filter="none" class="highcharts-point"></path><path fill="rgb(155,175,145)" d="M 794 383 L 801 383 A 0 0 0 0 1 801 383 L 801 389 A 0 0 0 0 1 801 389 L 794 389 A 0 0 0 0 1 794 389 L 794 383 A 0 0 0 0 1 794 383 Z" stroke="#ffffff" stroke-width="0" opacity="1" filter="none" class="highcharts-point"></path><path fill="rgb(155,175,145)" d="M 801 370 L 808 370 A 0 0 0 0 1 808 370 L 808 389 A 0 0 0 0 1 808 389 L 801 389 A 0 0 0 0 1 801 389 L 801 370 A 0 0 0 0 1 801 370 Z" stroke="#ffffff" stroke-width="0" opacity="1" filter="none" class="highcharts-point"></path><path fill="rgb(155,175,145)" d="M 809 363 L 816 363 A 0 0 0 0 1 816 363 L 816 389 A 0 0 0 0 1 816 389 L 809 389 A 0 0 0 0 1 809 389 L 809 363 A 0 0 0 0 1 809 363 Z" stroke="#ffffff" stroke-width="0" opacity="1" filter="none" class="highcharts-point"></path><path fill="rgb(155,175,145)" d="M 816 374 L 823 374 A 0 0 0 0 1 823 374 L 823 389 A 0 0 0 0 1 823 389 L 816 389 A 0 0 0 0 1 816 389 L 816 374 A 0 0 0 0 1 816 374 Z" stroke="#ffffff" stroke-width="0" opacity="1" filter="none" class="highcharts-point"></path><path fill="rgb(155,175,145)" d="M 823 377 L 830 377 A 0 0 0 0 1 830 377 L 830 389 A 0 0 0 0 1 830 389 L 823 389 A 0 0 0 0 1 823 389 L 823 377 A 0 0 0 0 1 823 377 Z" stroke="#ffffff" stroke-width="0" opacity="1" filter="none" class="highcharts-point"></path><path fill="rgb(155,175,145)" d="M 831 357 L 838 357 A 0 0 0 0 1 838 357 L 838 389 A 0 0 0 0 1 838 389 L 831 389 A 0 0 0 0 1 831 389 L 831 357 A 0 0 0 0 1 831 357 Z" stroke="#ffffff" stroke-width="0" opacity="1" filter="none" class="highcharts-point"></path><path fill="rgb(155,175,145)" d="M 838 355 L 845 355 A 0 0 0 0 1 845 355 L 845 389 A 0 0 0 0 1 845 389 L 838 389 A 0 0 0 0 1 838 389 L 838 355 A 0 0 0 0 1 838 355 Z" stroke="#ffffff" stroke-width="0" opacity="1" filter="none" class="highcharts-point"></path><path fill="rgb(155,175,145)" d="M 846 361 L 853 361 A 0 0 0 0 1 853 361 L 853 389 A 0 0 0 0 1 853 389 L 846 389 A 0 0 0 0 1 846 389 L 846 361 A 0 0 0 0 1 846 361 Z" stroke="#ffffff" stroke-width="0" opacity="1" filter="none" class="highcharts-point"></path><path fill="rgb(155,175,145)" d="M 853 378 L 860 378 A 0 0 0 0 1 860 378 L 860 389 A 0 0 0 0 1 860 389 L 853 389 A 0 0 0 0 1 853 389 L 853 378 A 0 0 0 0 1 853 378 Z" stroke="#ffffff" stroke-width="0" opacity="1" filter="none" class="highcharts-point"></path><path fill="rgb(155,175,145)" d="M 861 386 L 868 386 A 0 0 0 0 1 868 386 L 868 389 A 0 0 0 0 1 868 389 L 861 389 A 0 0 0 0 1 861 389 L 861 386 A 0 0 0 0 1 861 386 Z" stroke="#ffffff" stroke-width="0" opacity="1" filter="none" class="highcharts-point"></path><path fill="rgb(155,175,145)" d="M 868 372 L 875 372 A 0 0 0 0 1 875 372 L 875 389 A 0 0 0 0 1 875 389 L 868 389 A 0 0 0 0 1 868 389 L 868 372 A 0 0 0 0 1 868 372 Z" stroke="#ffffff" stroke-width="0" opacity="1" filter="none" class="highcharts-point"></path><path fill="rgb(155,175,145)" d="M 875 380 L 882 380 A 0 0 0 0 1 882 380 L 882 389 A 0 0 0 0 1 882 389 L 875 389 A 0 0 0 0 1 875 389 L 875 380 A 0 0 0 0 1 875 380 Z" stroke="#ffffff" stroke-width="0" opacity="1" filter="none" class="highcharts-point"></path><path fill="rgb(155,175,145)" d="M 883 375 L 890 375 A 0 0 0 0 1 890 375 L 890 389 A 0 0 0 0 1 890 389 L 883 389 A 0 0 0 0 1 883 389 L 883 375 A 0 0 0 0 1 883 375 Z" stroke="#ffffff" stroke-width="0" opacity="1" filter="none" class="highcharts-point"></path><path fill="rgb(155,175,145)" d="M 890 369 L 897 369 A 0 0 0 0 1 897 369 L 897 389 A 0 0 0 0 1 897 389 L 890 389 A 0 0 0 0 1 890 389 L 890 369 A 0 0 0 0 1 890 369 Z" stroke="#ffffff" stroke-width="0" opacity="1" filter="none" class="highcharts-point"></path><path fill="rgb(155,175,145)" d="M 898 372 L 905 372 A 0 0 0 0 1 905 372 L 905 389 A 0 0 0 0 1 905 389 L 898 389 A 0 0 0 0 1 898 389 L 898 372 A 0 0 0 0 1 898 372 Z" stroke="#ffffff" stroke-width="0" opacity="1" filter="none" class="highcharts-point"></path><path fill="rgb(155,175,145)" d="M 905 381 L 912 381 A 0 0 0 0 1 912 381 L 912 389 A 0 0 0 0 1 912 389 L 905 389 A 0 0 0 0 1 905 389 L 905 381 A 0 0 0 0 1 905 381 Z" stroke="#ffffff" stroke-width="0" opacity="1" filter="none" class="highcharts-point"></path><path fill="rgb(155,175,145)" d="M 912 379 L 919 379 A 0 0 0 0 1 919 379 L 919 389 A 0 0 0 0 1 919 389 L 912 389 A 0 0 0 0 1 912 389 L 912 379 A 0 0 0 0 1 912 379 Z" stroke="#ffffff" stroke-width="0" opacity="1" filter="none" class="highcharts-point"></path><path fill="rgb(155,175,145)" d="M 920 382 L 927 382 A 0 0 0 0 1 927 382 L 927 389 A 0 0 0 0 1 927 389 L 920 389 A 0 0 0 0 1 920 389 L 920 382 A 0 0 0 0 1 920 382 Z" stroke="#ffffff" stroke-width="0" opacity="1" filter="none" class="highcharts-point"></path><path fill="rgb(155,175,145)" d="M 927 363 L 934 363 A 0 0 0 0 1 934 363 L 934 389 A 0 0 0 0 1 934 389 L 927 389 A 0 0 0 0 1 927 389 L 927 363 A 0 0 0 0 1 927 363 Z" stroke="#ffffff" stroke-width="0" opacity="1" filter="none" class="highcharts-point"></path></g><g class="highcharts-markers highcharts-series-15 highcharts-column-series" data-z-index="0.1" opacity="1" transform="translate(80,67) scale(1 1)" clip-path="none"></g><g class="highcharts-series highcharts-series-16 highcharts-column-series" data-z-index="0.1" opacity="1" transform="translate(80,67) scale(1 1)" clip-path="url(#highcharts-vs0w7vj-2549-)"><path fill="rgb(195,215,185)" d="M 4 36 L 5 36 A 3 3 0 0 1 8 39 L 8 353 A 0 0 0 0 1 8 353 L 1 353 A 0 0 0 0 1 1 353 L 1 39 A 3 3 0 0 1 4 36 Z" stroke="#ffffff" stroke-width="0" opacity="1" filter="none" class="highcharts-point"></path><path fill="rgb(195,215,185)" d="M 11 58 L 12 58 A 3 3 0 0 1 15 61 L 15 354 A 0 0 0 0 1 15 354 L 8 354 A 0 0 0 0 1 8 354 L 8 61 A 3 3 0 0 1 11 58 Z" stroke="#ffffff" stroke-width="0" opacity="1" filter="none" class="highcharts-point"></path><path fill="rgb(195,215,185)" d="M 18 127 L 19 127 A 3 3 0 0 1 22 130 L 22 348 A 0 0 0 0 1 22 348 L 15 348 A 0 0 0 0 1 15 348 L 15 130 A 3 3 0 0 1 18 127 Z" stroke="#ffffff" stroke-width="0" opacity="1" filter="none" class="highcharts-point"></path><path fill="rgb(195,215,185)" d="M 26 209 L 27 209 A 3 3 0 0 1 30 212 L 30 368 A 0 0 0 0 1 30 368 L 23 368 A 0 0 0 0 1 23 368 L 23 212 A 3 3 0 0 1 26 209 Z" stroke="#ffffff" stroke-width="0" opacity="1" filter="none" class="highcharts-point"></path><path fill="rgb(195,215,185)" d="M 33 287 L 34 287 A 3 3 0 0 1 37 290 L 37 372 A 0 0 0 0 1 37 372 L 30 372 A 0 0 0 0 1 30 372 L 30 290 A 3 3 0 0 1 33 287 Z" stroke="#ffffff" stroke-width="0" opacity="1" filter="none" class="highcharts-point"></path><path fill="rgb(195,215,185)" d="M 41 314 L 42 314 A 3 3 0 0 1 45 317 L 45 368 A 0 0 0 0 1 45 368 L 38 368 A 0 0 0 0 1 38 368 L 38 317 A 3 3 0 0 1 41 314 Z" stroke="#ffffff" stroke-width="0" opacity="1" filter="none" class="highcharts-point"></path><path fill="rgb(195,215,185)" d="M 48 156 L 49 156 A 3 3 0 0 1 52 159 L 52 341 A 0 0 0 0 1 52 341 L 45 341 A 0 0 0 0 1 45 341 L 45 159 A 3 3 0 0 1 48 156 Z" stroke="#ffffff" stroke-width="0" opacity="1" filter="none" class="highcharts-point"></path><path fill="rgb(195,215,185)" d="M 56 263 L 57 263 A 3 3 0 0 1 60 266 L 60 367 A 0 0 0 0 1 60 367 L 53 367 A 0 0 0 0 1 53 367 L 53 266 A 3 3 0 0 1 56 263 Z" stroke="#ffffff" stroke-width="0" opacity="1" filter="none" class="highcharts-point"></path><path fill="rgb(195,215,185)" d="M 63 62 L 64 62 A 3 3 0 0 1 67 65 L 67 348 A 0 0 0 0 1 67 348 L 60 348 A 0 0 0 0 1 60 348 L 60 65 A 3 3 0 0 1 63 62 Z" stroke="#ffffff" stroke-width="0" opacity="1" filter="none" class="highcharts-point"></path><path fill="rgb(195,215,185)" d="M 70 195 L 71 195 A 3 3 0 0 1 74 198 L 74 350 A 0 0 0 0 1 74 350 L 67 350 A 0 0 0 0 1 67 350 L 67 198 A 3 3 0 0 1 70 195 Z" stroke="#ffffff" stroke-width="0" opacity="1" filter="none" class="highcharts-point"></path><path fill="rgb(195,215,185)" d="M 78 266 L 79 266 A 3 3 0 0 1 82 269 L 82 355 A 0 0 0 0 1 82 355 L 75 355 A 0 0 0 0 1 75 355 L 75 269 A 3 3 0 0 1 78 266 Z" stroke="#ffffff" stroke-width="0" opacity="1" filter="none" class="highcharts-point"></path><path fill="rgb(195,215,185)" d="M 85 204 L 86 204 A 3 3 0 0 1 89 207 L 89 343 A 0 0 0 0 1 89 343 L 82 343 A 0 0 0 0 1 82 343 L 82 207 A 3 3 0 0 1 85 204 Z" stroke="#ffffff" stroke-width="0" opacity="1" filter="none" class="highcharts-point"></path><path fill="rgb(195,215,185)" d="M 93 218 L 94 218 A 3 3 0 0 1 97 221 L 97 351 A 0 0 0 0 1 97 351 L 90 351 A 0 0 0 0 1 90 351 L 90 221 A 3 3 0 0 1 93 218 Z" stroke="#ffffff" stroke-width="0" opacity="1" filter="none" class="highcharts-point"></path><path fill="rgb(195,215,185)" d="M 100 218 L 101 218 A 3 3 0 0 1 104 221 L 104 359 A 0 0 0 0 1 104 359 L 97 359 A 0 0 0 0 1 97 359 L 97 221 A 3 3 0 0 1 100 218 Z" stroke="#ffffff" stroke-width="0" opacity="1" filter="none" class="highcharts-point"></path><path fill="rgb(195,215,185)" d="M 107 199 L 108 199 A 3 3 0 0 1 111 202 L 111 349 A 0 0 0 0 1 111 349 L 104 349 A 0 0 0 0 1 104 349 L 104 202 A 3 3 0 0 1 107 199 Z" stroke="#ffffff" stroke-width="0" opacity="1" filter="none" class="highcharts-point"></path><path fill="rgb(195,215,185)" d="M 115 210 L 116 210 A 3 3 0 0 1 119 213 L 119 357 A 0 0 0 0 1 119 357 L 112 357 A 0 0 0 0 1 112 357 L 112 213 A 3 3 0 0 1 115 210 Z" stroke="#ffffff" stroke-width="0" opacity="1" filter="none" class="highcharts-point"></path><path fill="rgb(195,215,185)" d="M 122 288 L 123 288 A 3 3 0 0 1 126 291 L 126 371 A 0 0 0 0 1 126 371 L 119 371 A 0 0 0 0 1 119 371 L 119 291 A 3 3 0 0 1 122 288 Z" stroke="#ffffff" stroke-width="0" opacity="1" filter="none" class="highcharts-point"></path><path fill="rgb(195,215,185)" d="M 130 258 L 131 258 A 3 3 0 0 1 134 261 L 134 369 A 0 0 0 0 1 134 369 L 127 369 A 0 0 0 0 1 127 369 L 127 261 A 3 3 0 0 1 130 258 Z" stroke="#ffffff" stroke-width="0" opacity="1" filter="none" class="highcharts-point"></path><path fill="rgb(195,215,185)" d="M 137 259 L 138 259 A 3 3 0 0 1 141 262 L 141 372 A 0 0 0 0 1 141 372 L 134 372 A 0 0 0 0 1 134 372 L 134 262 A 3 3 0 0 1 137 259 Z" stroke="#ffffff" stroke-width="0" opacity="1" filter="none" class="highcharts-point"></path><path fill="rgb(195,215,185)" d="M 144 310 L 145 310 A 3 3 0 0 1 148 313 L 148 374 A 0 0 0 0 1 148 374 L 141 374 A 0 0 0 0 1 141 374 L 141 313 A 3 3 0 0 1 144 310 Z" stroke="#ffffff" stroke-width="0" opacity="1" filter="none" class="highcharts-point"></path><path fill="rgb(195,215,185)" d="M 152 252 L 153 252 A 3 3 0 0 1 156 255 L 156 352 A 0 0 0 0 1 156 352 L 149 352 A 0 0 0 0 1 149 352 L 149 255 A 3 3 0 0 1 152 252 Z" stroke="#ffffff" stroke-width="0" opacity="1" filter="none" class="highcharts-point"></path><path fill="rgb(195,215,185)" d="M 159 209 L 160 209 A 3 3 0 0 1 163 212 L 163 334 A 0 0 0 0 1 163 334 L 156 334 A 0 0 0 0 1 156 334 L 156 212 A 3 3 0 0 1 159 209 Z" stroke="#ffffff" stroke-width="0" opacity="1" filter="none" class="highcharts-point"></path><path fill="rgb(195,215,185)" d="M 167 186 L 168 186 A 3 3 0 0 1 171 189 L 171 335 A 0 0 0 0 1 171 335 L 164 335 A 0 0 0 0 1 164 335 L 164 189 A 3 3 0 0 1 167 186 Z" stroke="#ffffff" stroke-width="0" opacity="1" filter="none" class="highcharts-point"></path><path fill="rgb(195,215,185)" d="M 174 240 L 175 240 A 3 3 0 0 1 178 243 L 178 330 A 0 0 0 0 1 178 330 L 171 330 A 0 0 0 0 1 171 330 L 171 243 A 3 3 0 0 1 174 240 Z" stroke="#ffffff" stroke-width="0" opacity="1" filter="none" class="highcharts-point"></path><path fill="rgb(195,215,185)" d="M 182 254 L 183 254 A 3 3 0 0 1 186 257 L 186 337 A 0 0 0 0 1 186 337 L 179 337 A 0 0 0 0 1 179 337 L 179 257 A 3 3 0 0 1 182 254 Z" stroke="#ffffff" stroke-width="0" opacity="1" filter="none" class="highcharts-point"></path><path fill="rgb(195,215,185)" d="M 189 257 L 190 257 A 3 3 0 0 1 193 260 L 193 340 A 0 0 0 0 1 193 340 L 186 340 A 0 0 0 0 1 186 340 L 186 260 A 3 3 0 0 1 189 257 Z" stroke="#ffffff" stroke-width="0" opacity="1" filter="none" class="highcharts-point"></path><path fill="rgb(195,215,185)" d="M 196 264 L 197 264 A 3 3 0 0 1 200 267 L 200 339 A 0 0 0 0 1 200 339 L 193 339 A 0 0 0 0 1 193 339 L 193 267 A 3 3 0 0 1 196 264 Z" stroke="#ffffff" stroke-width="0" opacity="1" filter="none" class="highcharts-point"></path><path fill="rgb(195,215,185)" d="M 204 220 L 205 220 A 3 3 0 0 1 208 223 L 208 331 A 0 0 0 0 1 208 331 L 201 331 A 0 0 0 0 1 201 331 L 201 223 A 3 3 0 0 1 204 220 Z" stroke="#ffffff" stroke-width="0" opacity="1" filter="none" class="highcharts-point"></path><path fill="rgb(195,215,185)" d="M 211 233 L 212 233 A 3 3 0 0 1 215 236 L 215 330 A 0 0 0 0 1 215 330 L 208 330 A 0 0 0 0 1 208 330 L 208 236 A 3 3 0 0 1 211 233 Z" stroke="#ffffff" stroke-width="0" opacity="1" filter="none" class="highcharts-point"></path><path fill="rgb(195,215,185)" d="M 219 213 L 220 213 A 3 3 0 0 1 223 216 L 223 327 A 0 0 0 0 1 223 327 L 216 327 A 0 0 0 0 1 216 327 L 216 216 A 3 3 0 0 1 219 213 Z" stroke="#ffffff" stroke-width="0" opacity="1" filter="none" class="highcharts-point"></path><path fill="rgb(195,215,185)" d="M 226 195 L 227 195 A 3 3 0 0 1 230 198 L 230 331 A 0 0 0 0 1 230 331 L 223 331 A 0 0 0 0 1 223 331 L 223 198 A 3 3 0 0 1 226 195 Z" stroke="#ffffff" stroke-width="0" opacity="1" filter="none" class="highcharts-point"></path><path fill="rgb(195,215,185)" d="M 233 213 L 234 213 A 3 3 0 0 1 237 216 L 237 334 A 0 0 0 0 1 237 334 L 230 334 A 0 0 0 0 1 230 334 L 230 216 A 3 3 0 0 1 233 213 Z" stroke="#ffffff" stroke-width="0" opacity="1" filter="none" class="highcharts-point"></path><path fill="rgb(195,215,185)" d="M 241 151 L 242 151 A 3 3 0 0 1 245 154 L 245 328 A 0 0 0 0 1 245 328 L 238 328 A 0 0 0 0 1 238 328 L 238 154 A 3 3 0 0 1 241 151 Z" stroke="#ffffff" stroke-width="0" opacity="1" filter="none" class="highcharts-point"></path><path fill="rgb(195,215,185)" d="M 248 100 L 249 100 A 3 3 0 0 1 252 103 L 252 330 A 0 0 0 0 1 252 330 L 245 330 A 0 0 0 0 1 245 330 L 245 103 A 3 3 0 0 1 248 100 Z" stroke="#ffffff" stroke-width="0" opacity="1" filter="none" class="highcharts-point"></path><path fill="rgb(195,215,185)" d="M 256 197 L 257 197 A 3 3 0 0 1 260 200 L 260 334 A 0 0 0 0 1 260 334 L 253 334 A 0 0 0 0 1 253 334 L 253 200 A 3 3 0 0 1 256 197 Z" stroke="#ffffff" stroke-width="0" opacity="1" filter="none" class="highcharts-point"></path><path fill="rgb(195,215,185)" d="M 263 242 L 264 242 A 3 3 0 0 1 267 245 L 267 330 A 0 0 0 0 1 267 330 L 260 330 A 0 0 0 0 1 260 330 L 260 245 A 3 3 0 0 1 263 242 Z" stroke="#ffffff" stroke-width="0" opacity="1" filter="none" class="highcharts-point"></path><path fill="rgb(195,215,185)" d="M 270 300 L 271 300 A 3 3 0 0 1 274 303 L 274 340 A 0 0 0 0 1 274 340 L 267 340 A 0 0 0 0 1 267 340 L 267 303 A 3 3 0 0 1 270 300 Z" stroke="#ffffff" stroke-width="0" opacity="1" filter="none" class="highcharts-point"></path><path fill="rgb(195,215,185)" d="M 278 310 L 279 310 A 3 3 0 0 1 282 313 L 282 348 A 0 0 0 0 1 282 348 L 275 348 A 0 0 0 0 1 275 348 L 275 313 A 3 3 0 0 1 278 310 Z" stroke="#ffffff" stroke-width="0" opacity="1" filter="none" class="highcharts-point"></path><path fill="rgb(195,215,185)" d="M 285 287 L 286 287 A 3 3 0 0 1 289 290 L 289 335 A 0 0 0 0 1 289 335 L 282 335 A 0 0 0 0 1 282 335 L 282 290 A 3 3 0 0 1 285 287 Z" stroke="#ffffff" stroke-width="0" opacity="1" filter="none" class="highcharts-point"></path><path fill="rgb(195,215,185)" d="M 293 308 L 294 308 A 3 3 0 0 1 297 311 L 297 358 A 0 0 0 0 1 297 358 L 290 358 A 0 0 0 0 1 290 358 L 290 311 A 3 3 0 0 1 293 308 Z" stroke="#ffffff" stroke-width="0" opacity="1" filter="none" class="highcharts-point"></path><path fill="rgb(195,215,185)" d="M 300 272 L 301 272 A 3 3 0 0 1 304 275 L 304 365 A 0 0 0 0 1 304 365 L 297 365 A 0 0 0 0 1 297 365 L 297 275 A 3 3 0 0 1 300 272 Z" stroke="#ffffff" stroke-width="0" opacity="1" filter="none" class="highcharts-point"></path><path fill="rgb(195,215,185)" d="M 308 238 L 309 238 A 3 3 0 0 1 312 241 L 312 352 A 0 0 0 0 1 312 352 L 305 352 A 0 0 0 0 1 305 352 L 305 241 A 3 3 0 0 1 308 238 Z" stroke="#ffffff" stroke-width="0" opacity="1" filter="none" class="highcharts-point"></path><path fill="rgb(195,215,185)" d="M 315 181 L 316 181 A 3 3 0 0 1 319 184 L 319 332 A 0 0 0 0 1 319 332 L 312 332 A 0 0 0 0 1 312 332 L 312 184 A 3 3 0 0 1 315 181 Z" stroke="#ffffff" stroke-width="0" opacity="1" filter="none" class="highcharts-point"></path><path fill="rgb(195,215,185)" d="M 322 251 L 323 251 A 3 3 0 0 1 326 254 L 326 346 A 0 0 0 0 1 326 346 L 319 346 A 0 0 0 0 1 319 346 L 319 254 A 3 3 0 0 1 322 251 Z" stroke="#ffffff" stroke-width="0" opacity="1" filter="none" class="highcharts-point"></path><path fill="rgb(195,215,185)" d="M 330 316 L 331 316 A 3 3 0 0 1 334 319 L 334 376 A 0 0 0 0 1 334 376 L 327 376 A 0 0 0 0 1 327 376 L 327 319 A 3 3 0 0 1 330 316 Z" stroke="#ffffff" stroke-width="0" opacity="1" filter="none" class="highcharts-point"></path><path fill="rgb(195,215,185)" d="M 337 247 L 338 247 A 3 3 0 0 1 341 250 L 341 347 A 0 0 0 0 1 341 347 L 334 347 A 0 0 0 0 1 334 347 L 334 250 A 3 3 0 0 1 337 247 Z" stroke="#ffffff" stroke-width="0" opacity="1" filter="none" class="highcharts-point"></path><path fill="rgb(195,215,185)" d="M 345 192 L 346 192 A 3 3 0 0 1 349 195 L 349 348 A 0 0 0 0 1 349 348 L 342 348 A 0 0 0 0 1 342 348 L 342 195 A 3 3 0 0 1 345 192 Z" stroke="#ffffff" stroke-width="0" opacity="1" filter="none" class="highcharts-point"></path><path fill="rgb(195,215,185)" d="M 352 258 L 353 258 A 3 3 0 0 1 356 261 L 356 366 A 0 0 0 0 1 356 366 L 349 366 A 0 0 0 0 1 349 366 L 349 261 A 3 3 0 0 1 352 258 Z" stroke="#ffffff" stroke-width="0" opacity="1" filter="none" class="highcharts-point"></path><path fill="rgb(195,215,185)" d="M 359 299 L 360 299 A 3 3 0 0 1 363 302 L 363 371 A 0 0 0 0 1 363 371 L 356 371 A 0 0 0 0 1 356 371 L 356 302 A 3 3 0 0 1 359 299 Z" stroke="#ffffff" stroke-width="0" opacity="1" filter="none" class="highcharts-point"></path><path fill="rgb(195,215,185)" d="M 367 166 L 368 166 A 3 3 0 0 1 371 169 L 371 338 A 0 0 0 0 1 371 338 L 364 338 A 0 0 0 0 1 364 338 L 364 169 A 3 3 0 0 1 367 166 Z" stroke="#ffffff" stroke-width="0" opacity="1" filter="none" class="highcharts-point"></path><path fill="rgb(195,215,185)" d="M 374 174 L 375 174 A 3 3 0 0 1 378 177 L 378 336 A 0 0 0 0 1 378 336 L 371 336 A 0 0 0 0 1 371 336 L 371 177 A 3 3 0 0 1 374 174 Z" stroke="#ffffff" stroke-width="0" opacity="1" filter="none" class="highcharts-point"></path><path fill="rgb(195,215,185)" d="M 382 90 L 383 90 A 3 3 0 0 1 386 93 L 386 339 A 0 0 0 0 1 386 339 L 379 339 A 0 0 0 0 1 379 339 L 379 93 A 3 3 0 0 1 382 90 Z" stroke="#ffffff" stroke-width="0" opacity="1" filter="none" class="highcharts-point"></path><path fill="rgb(195,215,185)" d="M 389 84 L 390 84 A 3 3 0 0 1 393 87 L 393 342 A 0 0 0 0 1 393 342 L 386 342 A 0 0 0 0 1 386 342 L 386 87 A 3 3 0 0 1 389 84 Z" stroke="#ffffff" stroke-width="0" opacity="1" filter="none" class="highcharts-point"></path><path fill="rgb(195,215,185)" d="M 397 70 L 398 70 A 3 3 0 0 1 401 73 L 401 334 A 0 0 0 0 1 401 334 L 394 334 A 0 0 0 0 1 394 334 L 394 73 A 3 3 0 0 1 397 70 Z" stroke="#ffffff" stroke-width="0" opacity="1" filter="none" class="highcharts-point"></path><path fill="rgb(195,215,185)" d="M 404 328 L 405 328 A 3 3 0 0 1 408 331 L 408 377 A 0 0 0 0 1 408 377 L 401 377 A 0 0 0 0 1 401 377 L 401 331 A 3 3 0 0 1 404 328 Z" stroke="#ffffff" stroke-width="0" opacity="1" filter="none" class="highcharts-point"></path><path fill="rgb(195,215,185)" d="M 411 296 L 412 296 A 3 3 0 0 1 415 299 L 415 356 A 0 0 0 0 1 415 356 L 408 356 A 0 0 0 0 1 408 356 L 408 299 A 3 3 0 0 1 411 296 Z" stroke="#ffffff" stroke-width="0" opacity="1" filter="none" class="highcharts-point"></path><path fill="rgb(195,215,185)" d="M 419 195 L 420 195 A 3 3 0 0 1 423 198 L 423 338 A 0 0 0 0 1 423 338 L 416 338 A 0 0 0 0 1 416 338 L 416 198 A 3 3 0 0 1 419 195 Z" stroke="#ffffff" stroke-width="0" opacity="1" filter="none" class="highcharts-point"></path><path fill="rgb(195,215,185)" d="M 426 196 L 427 196 A 3 3 0 0 1 430 199 L 430 347 A 0 0 0 0 1 430 347 L 423 347 A 0 0 0 0 1 423 347 L 423 199 A 3 3 0 0 1 426 196 Z" stroke="#ffffff" stroke-width="0" opacity="1" filter="none" class="highcharts-point"></path><path fill="rgb(195,215,185)" d="M 434 173 L 435 173 A 3 3 0 0 1 438 176 L 438 350 A 0 0 0 0 1 438 350 L 431 350 A 0 0 0 0 1 431 350 L 431 176 A 3 3 0 0 1 434 173 Z" stroke="#ffffff" stroke-width="0" opacity="1" filter="none" class="highcharts-point"></path><path fill="rgb(195,215,185)" d="M 441 226 L 442 226 A 3 3 0 0 1 445 229 L 445 345 A 0 0 0 0 1 445 345 L 438 345 A 0 0 0 0 1 438 345 L 438 229 A 3 3 0 0 1 441 226 Z" stroke="#ffffff" stroke-width="0" opacity="1" filter="none" class="highcharts-point"></path><path fill="rgb(195,215,185)" d="M 448 269 L 449 269 A 3 3 0 0 1 452 272 L 452 349 A 0 0 0 0 1 452 349 L 445 349 A 0 0 0 0 1 445 349 L 445 272 A 3 3 0 0 1 448 269 Z" stroke="#ffffff" stroke-width="0" opacity="1" filter="none" class="highcharts-point"></path><path fill="rgb(195,215,185)" d="M 456 327 L 457 327 A 3 3 0 0 1 460 330 L 460 369 A 0 0 0 0 1 460 369 L 453 369 A 0 0 0 0 1 453 369 L 453 330 A 3 3 0 0 1 456 327 Z" stroke="#ffffff" stroke-width="0" opacity="1" filter="none" class="highcharts-point"></path><path fill="rgb(195,215,185)" d="M 463 348 L 464 348 A 3 3 0 0 1 467 351 L 467 377 A 0 0 0 0 1 467 377 L 460 377 A 0 0 0 0 1 460 377 L 460 351 A 3 3 0 0 1 463 348 Z" stroke="#ffffff" stroke-width="0" opacity="1" filter="none" class="highcharts-point"></path><path fill="rgb(195,215,185)" d="M 471 285 L 472 285 A 3 3 0 0 1 475 288 L 475 371 A 0 0 0 0 1 475 371 L 468 371 A 0 0 0 0 1 468 371 L 468 288 A 3 3 0 0 1 471 285 Z" stroke="#ffffff" stroke-width="0" opacity="1" filter="none" class="highcharts-point"></path><path fill="rgb(195,215,185)" d="M 478 341 L 479 341 A 3 3 0 0 1 482 344 L 482 382 A 0 0 0 0 1 482 382 L 475 382 A 0 0 0 0 1 475 382 L 475 344 A 3 3 0 0 1 478 341 Z" stroke="#ffffff" stroke-width="0" opacity="1" filter="none" class="highcharts-point"></path><path fill="rgb(195,215,185)" d="M 485 369 L 486 369 A 3 3 0 0 1 489 372 L 489 386 A 0 0 0 0 1 489 386 L 482 386 A 0 0 0 0 1 482 386 L 482 372 A 3 3 0 0 1 485 369 Z" stroke="#ffffff" stroke-width="0" opacity="1" filter="none" class="highcharts-point"></path><path fill="rgb(195,215,185)" d="M 493 339 L 494 339 A 3 3 0 0 1 497 342 L 497 383 A 0 0 0 0 1 497 383 L 490 383 A 0 0 0 0 1 490 383 L 490 342 A 3 3 0 0 1 493 339 Z" stroke="#ffffff" stroke-width="0" opacity="1" filter="none" class="highcharts-point"></path><path fill="rgb(195,215,185)" d="M 500 354 L 501 354 A 3 3 0 0 1 504 357 L 504 385 A 0 0 0 0 1 504 385 L 497 385 A 0 0 0 0 1 497 385 L 497 357 A 3 3 0 0 1 500 354 Z" stroke="#ffffff" stroke-width="0" opacity="1" filter="none" class="highcharts-point"></path><path fill="rgb(195,215,185)" d="M 508 342 L 509 342 A 3 3 0 0 1 512 345 L 512 381 A 0 0 0 0 1 512 381 L 505 381 A 0 0 0 0 1 505 381 L 505 345 A 3 3 0 0 1 508 342 Z" stroke="#ffffff" stroke-width="0" opacity="1" filter="none" class="highcharts-point"></path><path fill="rgb(195,215,185)" d="M 515 161 L 516 161 A 3 3 0 0 1 519 164 L 519 342 A 0 0 0 0 1 519 342 L 512 342 A 0 0 0 0 1 512 342 L 512 164 A 3 3 0 0 1 515 161 Z" stroke="#ffffff" stroke-width="0" opacity="1" filter="none" class="highcharts-point"></path><path fill="rgb(195,215,185)" d="M 523 181 L 524 181 A 3 3 0 0 1 527 184 L 527 344 A 0 0 0 0 1 527 344 L 520 344 A 0 0 0 0 1 520 344 L 520 184 A 3 3 0 0 1 523 181 Z" stroke="#ffffff" stroke-width="0" opacity="1" filter="none" class="highcharts-point"></path><path fill="rgb(195,215,185)" d="M 530 138 L 531 138 A 3 3 0 0 1 534 141 L 534 348 A 0 0 0 0 1 534 348 L 527 348 A 0 0 0 0 1 527 348 L 527 141 A 3 3 0 0 1 530 138 Z" stroke="#ffffff" stroke-width="0" opacity="1" filter="none" class="highcharts-point"></path><path fill="rgb(195,215,185)" d="M 537 329 L 538 329 A 3 3 0 0 1 541 332 L 541 384 A 0 0 0 0 1 541 384 L 534 384 A 0 0 0 0 1 534 384 L 534 332 A 3 3 0 0 1 537 329 Z" stroke="#ffffff" stroke-width="0" opacity="1" filter="none" class="highcharts-point"></path><path fill="rgb(195,215,185)" d="M 545 319 L 546 319 A 3 3 0 0 1 549 322 L 549 365 A 0 0 0 0 1 549 365 L 542 365 A 0 0 0 0 1 542 365 L 542 322 A 3 3 0 0 1 545 319 Z" stroke="#ffffff" stroke-width="0" opacity="1" filter="none" class="highcharts-point"></path><path fill="rgb(195,215,185)" d="M 552 178 L 553 178 A 3 3 0 0 1 556 181 L 556 352 A 0 0 0 0 1 556 352 L 549 352 A 0 0 0 0 1 549 352 L 549 181 A 3 3 0 0 1 552 178 Z" stroke="#ffffff" stroke-width="0" opacity="1" filter="none" class="highcharts-point"></path><path fill="rgb(195,215,185)" d="M 560 305 L 561 305 A 3 3 0 0 1 564 308 L 564 358 A 0 0 0 0 1 564 358 L 557 358 A 0 0 0 0 1 557 358 L 557 308 A 3 3 0 0 1 560 305 Z" stroke="#ffffff" stroke-width="0" opacity="1" filter="none" class="highcharts-point"></path><path fill="rgb(195,215,185)" d="M 567 254 L 568 254 A 3 3 0 0 1 571 257 L 571 365 A 0 0 0 0 1 571 365 L 564 365 A 0 0 0 0 1 564 365 L 564 257 A 3 3 0 0 1 567 254 Z" stroke="#ffffff" stroke-width="0" opacity="1" filter="none" class="highcharts-point"></path><path fill="rgb(195,215,185)" d="M 574 341 L 575 341 A 3 3 0 0 1 578 344 L 578 383 A 0 0 0 0 1 578 383 L 571 383 A 0 0 0 0 1 571 383 L 571 344 A 3 3 0 0 1 574 341 Z" stroke="#ffffff" stroke-width="0" opacity="1" filter="none" class="highcharts-point"></path><path fill="rgb(195,215,185)" d="M 582 357 L 583 357 A 3 3 0 0 1 586 360 L 586 384 A 0 0 0 0 1 586 384 L 579 384 A 0 0 0 0 1 579 384 L 579 360 A 3 3 0 0 1 582 357 Z" stroke="#ffffff" stroke-width="0" opacity="1" filter="none" class="highcharts-point"></path><path fill="rgb(195,215,185)" d="M 589 335 L 590 335 A 3 3 0 0 1 593 338 L 593 385 A 0 0 0 0 1 593 385 L 586 385 A 0 0 0 0 1 586 385 L 586 338 A 3 3 0 0 1 589 335 Z" stroke="#ffffff" stroke-width="0" opacity="1" filter="none" class="highcharts-point"></path><path fill="rgb(195,215,185)" d="M 597 308 L 598 308 A 3 3 0 0 1 601 311 L 601 383 A 0 0 0 0 1 601 383 L 594 383 A 0 0 0 0 1 594 383 L 594 311 A 3 3 0 0 1 597 308 Z" stroke="#ffffff" stroke-width="0" opacity="1" filter="none" class="highcharts-point"></path><path fill="rgb(195,215,185)" d="M 604 377 L 605 377 A 3 3 0 0 1 608 380 L 608 386 A 0 0 0 0 1 608 386 L 601 386 A 0 0 0 0 1 601 386 L 601 380 A 3 3 0 0 1 604 377 Z" stroke="#ffffff" stroke-width="0" opacity="1" filter="none" class="highcharts-point"></path><path fill="rgb(195,215,185)" d="M 611 179 L 612 179 A 3 3 0 0 1 615 182 L 615 346 A 0 0 0 0 1 615 346 L 608 346 A 0 0 0 0 1 608 346 L 608 182 A 3 3 0 0 1 611 179 Z" stroke="#ffffff" stroke-width="0" opacity="1" filter="none" class="highcharts-point"></path><path fill="rgb(195,215,185)" d="M 619 78 L 620 78 A 3 3 0 0 1 623 81 L 623 338 A 0 0 0 0 1 623 338 L 616 338 A 0 0 0 0 1 616 338 L 616 81 A 3 3 0 0 1 619 78 Z" stroke="#ffffff" stroke-width="0" opacity="1" filter="none" class="highcharts-point"></path><path fill="rgb(195,215,185)" d="M 626 178 L 627 178 A 3 3 0 0 1 630 181 L 630 337 A 0 0 0 0 1 630 337 L 623 337 A 0 0 0 0 1 623 337 L 623 181 A 3 3 0 0 1 626 178 Z" stroke="#ffffff" stroke-width="0" opacity="1" filter="none" class="highcharts-point"></path><path fill="rgb(195,215,185)" d="M 634 289 L 635 289 A 3 3 0 0 1 638 292 L 638 356 A 0 0 0 0 1 638 356 L 631 356 A 0 0 0 0 1 631 356 L 631 292 A 3 3 0 0 1 634 289 Z" stroke="#ffffff" stroke-width="0" opacity="1" filter="none" class="highcharts-point"></path><path fill="rgb(195,215,185)" d="M 641 261 L 642 261 A 3 3 0 0 1 645 264 L 645 360 A 0 0 0 0 1 645 360 L 638 360 A 0 0 0 0 1 638 360 L 638 264 A 3 3 0 0 1 641 261 Z" stroke="#ffffff" stroke-width="0" opacity="1" filter="none" class="highcharts-point"></path><path fill="rgb(195,215,185)" d="M 649 258 L 650 258 A 3 3 0 0 1 653 261 L 653 359 A 0 0 0 0 1 653 359 L 646 359 A 0 0 0 0 1 646 359 L 646 261 A 3 3 0 0 1 649 258 Z" stroke="#ffffff" stroke-width="0" opacity="1" filter="none" class="highcharts-point"></path><path fill="rgb(195,215,185)" d="M 656 144 L 657 144 A 3 3 0 0 1 660 147 L 660 347 A 0 0 0 0 1 660 347 L 653 347 A 0 0 0 0 1 653 347 L 653 147 A 3 3 0 0 1 656 144 Z" stroke="#ffffff" stroke-width="0" opacity="1" filter="none" class="highcharts-point"></path><path fill="rgb(195,215,185)" d="M 663 240 L 664 240 A 3 3 0 0 1 667 243 L 667 360 A 0 0 0 0 1 667 360 L 660 360 A 0 0 0 0 1 660 360 L 660 243 A 3 3 0 0 1 663 240 Z" stroke="#ffffff" stroke-width="0" opacity="1" filter="none" class="highcharts-point"></path><path fill="rgb(195,215,185)" d="M 671 368 L 672 368 A 3 3 0 0 1 675 371 L 675 385 A 0 0 0 0 1 675 385 L 668 385 A 0 0 0 0 1 668 385 L 668 371 A 3 3 0 0 1 671 368 Z" stroke="#ffffff" stroke-width="0" opacity="1" filter="none" class="highcharts-point"></path><path fill="rgb(195,215,185)" d="M 678 325 L 679 325 A 3 3 0 0 1 682 328 L 682 369 A 0 0 0 0 1 682 369 L 675 369 A 0 0 0 0 1 675 369 L 675 328 A 3 3 0 0 1 678 325 Z" stroke="#ffffff" stroke-width="0" opacity="1" filter="none" class="highcharts-point"></path><path fill="rgb(195,215,185)" d="M 686 244 L 687 244 A 3 3 0 0 1 690 247 L 690 352 A 0 0 0 0 1 690 352 L 683 352 A 0 0 0 0 1 683 352 L 683 247 A 3 3 0 0 1 686 244 Z" stroke="#ffffff" stroke-width="0" opacity="1" filter="none" class="highcharts-point"></path><path fill="rgb(195,215,185)" d="M 693 156 L 694 156 A 3 3 0 0 1 697 159 L 697 349 A 0 0 0 0 1 697 349 L 690 349 A 0 0 0 0 1 690 349 L 690 159 A 3 3 0 0 1 693 156 Z" stroke="#ffffff" stroke-width="0" opacity="1" filter="none" class="highcharts-point"></path><path fill="rgb(195,215,185)" d="M 700 150 L 701 150 A 3 3 0 0 1 704 153 L 704 356 A 0 0 0 0 1 704 356 L 697 356 A 0 0 0 0 1 697 356 L 697 153 A 3 3 0 0 1 700 150 Z" stroke="#ffffff" stroke-width="0" opacity="1" filter="none" class="highcharts-point"></path><path fill="rgb(195,215,185)" d="M 708 232 L 709 232 A 3 3 0 0 1 712 235 L 712 359 A 0 0 0 0 1 712 359 L 705 359 A 0 0 0 0 1 705 359 L 705 235 A 3 3 0 0 1 708 232 Z" stroke="#ffffff" stroke-width="0" opacity="1" filter="none" class="highcharts-point"></path><path fill="rgb(195,215,185)" d="M 715 316 L 716 316 A 3 3 0 0 1 719 319 L 719 377 A 0 0 0 0 1 719 377 L 712 377 A 0 0 0 0 1 712 377 L 712 319 A 3 3 0 0 1 715 316 Z" stroke="#ffffff" stroke-width="0" opacity="1" filter="none" class="highcharts-point"></path><path fill="rgb(195,215,185)" d="M 723 306 L 724 306 A 3 3 0 0 1 727 309 L 727 367 A 0 0 0 0 1 727 367 L 720 367 A 0 0 0 0 1 720 367 L 720 309 A 3 3 0 0 1 723 306 Z" stroke="#ffffff" stroke-width="0" opacity="1" filter="none" class="highcharts-point"></path><path fill="rgb(195,215,185)" d="M 730 245 L 731 245 A 3 3 0 0 1 734 248 L 734 350 A 0 0 0 0 1 734 350 L 727 350 A 0 0 0 0 1 727 350 L 727 248 A 3 3 0 0 1 730 245 Z" stroke="#ffffff" stroke-width="0" opacity="1" filter="none" class="highcharts-point"></path><path fill="rgb(195,215,185)" d="M 737 268 L 738 268 A 3 3 0 0 1 741 271 L 741 361 A 0 0 0 0 1 741 361 L 734 361 A 0 0 0 0 1 734 361 L 734 271 A 3 3 0 0 1 737 268 Z" stroke="#ffffff" stroke-width="0" opacity="1" filter="none" class="highcharts-point"></path><path fill="rgb(195,215,185)" d="M 745 242 L 746 242 A 3 3 0 0 1 749 245 L 749 365 A 0 0 0 0 1 749 365 L 742 365 A 0 0 0 0 1 742 365 L 742 245 A 3 3 0 0 1 745 242 Z" stroke="#ffffff" stroke-width="0" opacity="1" filter="none" class="highcharts-point"></path><path fill="rgb(195,215,185)" d="M 752 312 L 753 312 A 3 3 0 0 1 756 315 L 756 367 A 0 0 0 0 1 756 367 L 749 367 A 0 0 0 0 1 749 367 L 749 315 A 3 3 0 0 1 752 312 Z" stroke="#ffffff" stroke-width="0" opacity="1" filter="none" class="highcharts-point"></path><path fill="rgb(195,215,185)" d="M 760 326 L 761 326 A 3 3 0 0 1 764 329 L 764 377 A 0 0 0 0 1 764 377 L 757 377 A 0 0 0 0 1 757 377 L 757 329 A 3 3 0 0 1 760 326 Z" stroke="#ffffff" stroke-width="0" opacity="1" filter="none" class="highcharts-point"></path><path fill="rgb(195,215,185)" d="M 767 337 L 768 337 A 3 3 0 0 1 771 340 L 771 378 A 0 0 0 0 1 771 378 L 764 378 A 0 0 0 0 1 764 378 L 764 340 A 3 3 0 0 1 767 337 Z" stroke="#ffffff" stroke-width="0" opacity="1" filter="none" class="highcharts-point"></path><path fill="rgb(195,215,185)" d="M 775 354 L 776 354 A 3 3 0 0 1 779 357 L 779 378 A 0 0 0 0 1 779 378 L 772 378 A 0 0 0 0 1 772 378 L 772 357 A 3 3 0 0 1 775 354 Z" stroke="#ffffff" stroke-width="0" opacity="1" filter="none" class="highcharts-point"></path><path fill="rgb(195,215,185)" d="M 782 341 L 783 341 A 3 3 0 0 1 786 344 L 786 376 A 0 0 0 0 1 786 376 L 779 376 A 0 0 0 0 1 779 376 L 779 344 A 3 3 0 0 1 782 341 Z" stroke="#ffffff" stroke-width="0" opacity="1" filter="none" class="highcharts-point"></path><path fill="rgb(195,215,185)" d="M 789 363 L 790 363 A 3 3 0 0 1 793 366 L 793 384 A 0 0 0 0 1 793 384 L 786 384 A 0 0 0 0 1 786 384 L 786 366 A 3 3 0 0 1 789 363 Z" stroke="#ffffff" stroke-width="0" opacity="1" filter="none" class="highcharts-point"></path><path fill="rgb(195,215,185)" d="M 797 353 L 798 353 A 3 3 0 0 1 801 356 L 801 383 A 0 0 0 0 1 801 383 L 794 383 A 0 0 0 0 1 794 383 L 794 356 A 3 3 0 0 1 797 353 Z" stroke="#ffffff" stroke-width="0" opacity="1" filter="none" class="highcharts-point"></path><path fill="rgb(195,215,185)" d="M 804 277 L 805 277 A 3 3 0 0 1 808 280 L 808 370 A 0 0 0 0 1 808 370 L 801 370 A 0 0 0 0 1 801 370 L 801 280 A 3 3 0 0 1 804 277 Z" stroke="#ffffff" stroke-width="0" opacity="1" filter="none" class="highcharts-point"></path><path fill="rgb(195,215,185)" d="M 812 235 L 813 235 A 3 3 0 0 1 816 238 L 816 363 A 0 0 0 0 1 816 363 L 809 363 A 0 0 0 0 1 809 363 L 809 238 A 3 3 0 0 1 812 235 Z" stroke="#ffffff" stroke-width="0" opacity="1" filter="none" class="highcharts-point"></path><path fill="rgb(195,215,185)" d="M 819 284 L 820 284 A 3 3 0 0 1 823 287 L 823 374 A 0 0 0 0 1 823 374 L 816 374 A 0 0 0 0 1 816 374 L 816 287 A 3 3 0 0 1 819 284 Z" stroke="#ffffff" stroke-width="0" opacity="1" filter="none" class="highcharts-point"></path><path fill="rgb(195,215,185)" d="M 826 308 L 827 308 A 3 3 0 0 1 830 311 L 830 377 A 0 0 0 0 1 830 377 L 823 377 A 0 0 0 0 1 823 377 L 823 311 A 3 3 0 0 1 826 308 Z" stroke="#ffffff" stroke-width="0" opacity="1" filter="none" class="highcharts-point"></path><path fill="rgb(195,215,185)" d="M 834 249 L 835 249 A 3 3 0 0 1 838 252 L 838 357 A 0 0 0 0 1 838 357 L 831 357 A 0 0 0 0 1 831 357 L 831 252 A 3 3 0 0 1 834 249 Z" stroke="#ffffff" stroke-width="0" opacity="1" filter="none" class="highcharts-point"></path><path fill="rgb(195,215,185)" d="M 841 244 L 842 244 A 3 3 0 0 1 845 247 L 845 355 A 0 0 0 0 1 845 355 L 838 355 A 0 0 0 0 1 838 355 L 838 247 A 3 3 0 0 1 841 244 Z" stroke="#ffffff" stroke-width="0" opacity="1" filter="none" class="highcharts-point"></path><path fill="rgb(195,215,185)" d="M 849 227 L 850 227 A 3 3 0 0 1 853 230 L 853 361 A 0 0 0 0 1 853 361 L 846 361 A 0 0 0 0 1 846 361 L 846 230 A 3 3 0 0 1 849 227 Z" stroke="#ffffff" stroke-width="0" opacity="1" filter="none" class="highcharts-point"></path><path fill="rgb(195,215,185)" d="M 856 332 L 857 332 A 3 3 0 0 1 860 335 L 860 378 A 0 0 0 0 1 860 378 L 853 378 A 0 0 0 0 1 853 378 L 853 335 A 3 3 0 0 1 856 332 Z" stroke="#ffffff" stroke-width="0" opacity="1" filter="none" class="highcharts-point"></path><path fill="rgb(195,215,185)" d="M 864 356 L 865 356 A 3 3 0 0 1 868 359 L 868 386 A 0 0 0 0 1 868 386 L 861 386 A 0 0 0 0 1 861 386 L 861 359 A 3 3 0 0 1 864 356 Z" stroke="#ffffff" stroke-width="0" opacity="1" filter="none" class="highcharts-point"></path><path fill="rgb(195,215,185)" d="M 871 255 L 872 255 A 3 3 0 0 1 875 258 L 875 372 A 0 0 0 0 1 875 372 L 868 372 A 0 0 0 0 1 868 372 L 868 258 A 3 3 0 0 1 871 255 Z" stroke="#ffffff" stroke-width="0" opacity="1" filter="none" class="highcharts-point"></path><path fill="rgb(195,215,185)" d="M 878 269 L 879 269 A 3 3 0 0 1 882 272 L 882 380 A 0 0 0 0 1 882 380 L 875 380 A 0 0 0 0 1 875 380 L 875 272 A 3 3 0 0 1 878 269 Z" stroke="#ffffff" stroke-width="0" opacity="1" filter="none" class="highcharts-point"></path><path fill="rgb(195,215,185)" d="M 886 285 L 887 285 A 3 3 0 0 1 890 288 L 890 375 A 0 0 0 0 1 890 375 L 883 375 A 0 0 0 0 1 883 375 L 883 288 A 3 3 0 0 1 886 285 Z" stroke="#ffffff" stroke-width="0" opacity="1" filter="none" class="highcharts-point"></path><path fill="rgb(195,215,185)" d="M 893 304 L 894 304 A 3 3 0 0 1 897 307 L 897 369 A 0 0 0 0 1 897 369 L 890 369 A 0 0 0 0 1 890 369 L 890 307 A 3 3 0 0 1 893 304 Z" stroke="#ffffff" stroke-width="0" opacity="1" filter="none" class="highcharts-point"></path><path fill="rgb(195,215,185)" d="M 901 294 L 902 294 A 3 3 0 0 1 905 297 L 905 372 A 0 0 0 0 1 905 372 L 898 372 A 0 0 0 0 1 898 372 L 898 297 A 3 3 0 0 1 901 294 Z" stroke="#ffffff" stroke-width="0" opacity="1" filter="none" class="highcharts-point"></path><path fill="rgb(195,215,185)" d="M 908 305 L 909 305 A 3 3 0 0 1 912 308 L 912 381 A 0 0 0 0 1 912 381 L 905 381 A 0 0 0 0 1 905 381 L 905 308 A 3 3 0 0 1 908 305 Z" stroke="#ffffff" stroke-width="0" opacity="1" filter="none" class="highcharts-point"></path><path fill="rgb(195,215,185)" d="M 915 336 L 916 336 A 3 3 0 0 1 919 339 L 919 379 A 0 0 0 0 1 919 379 L 912 379 A 0 0 0 0 1 912 379 L 912 339 A 3 3 0 0 1 915 336 Z" stroke="#ffffff" stroke-width="0" opacity="1" filter="none" class="highcharts-point"></path><path fill="rgb(195,215,185)" d="M 923 351 L 924 351 A 3 3 0 0 1 927 354 L 927 382 A 0 0 0 0 1 927 382 L 920 382 A 0 0 0 0 1 920 382 L 920 354 A 3 3 0 0 1 923 351 Z" stroke="#ffffff" stroke-width="0" opacity="1" filter="none" class="highcharts-point"></path><path fill="rgb(195,215,185)" d="M 930 291 L 931 291 A 3 3 0 0 1 934 294 L 934 363 A 0 0 0 0 1 934 363 L 927 363 A 0 0 0 0 1 927 363 L 927 294 A 3 3 0 0 1 930 291 Z" stroke="#ffffff" stroke-width="0" opacity="1" filter="none" class="highcharts-point"></path></g><g class="highcharts-markers highcharts-series-16 highcharts-column-series" data-z-index="0.1" opacity="1" transform="translate(80,67) scale(1 1)" clip-path="none"></g><g class="highcharts-series highcharts-series-17 highcharts-column-series" visibility="hidden" data-z-index="0.1" opacity="1" transform="translate(80,67) scale(1 1)" clip-path="url(#highcharts-vs0w7vj-2549-)"></g><g class="highcharts-markers highcharts-series-17 highcharts-column-series" visibility="hidden" data-z-index="0.1" opacity="1" transform="translate(80,67) scale(1 1)" clip-path="none"></g><g class="highcharts-series highcharts-series-18 highcharts-column-series" visibility="hidden" data-z-index="0.1" opacity="1" transform="translate(80,67) scale(1 1)" clip-path="url(#highcharts-vs0w7vj-2549-)"></g><g class="highcharts-markers highcharts-series-18 highcharts-column-series" visibility="hidden" data-z-index="0.1" opacity="1" transform="translate(80,67) scale(1 1)" clip-path="none"></g></g><text x="512" text-anchor="middle" class="highcharts-title" data-z-index="4" style="font-size: 16px; color: rgb(51, 51, 51); font-weight: bold; text-align: center; fill: rgb(51, 51, 51);" y="22">Öffentliche Nettostromerzeugung in Deutschland 2026</text><text x="512" text-anchor="middle" class="highcharts-subtitle" data-z-index="4" style="color: rgb(102, 102, 102); font-size: 0.8em; fill: rgb(102, 102, 102);" y="48">Energetisch korrigierte Werte - bis 06.05.2026, 21:45 MESZ</text><text x="512" text-anchor="middle" class="highcharts-caption" data-z-index="4" style="color: rgb(102, 102, 102); font-size: 0.8em; fill: rgb(102, 102, 102);" y="555">Energy-Charts.info; Datenquelle: ENTSO-E, AGEE-Stat, Destatis, Fraunhofer ISE, AG Energiebilanzen;   Letztes Update: 06.05.2026, 22:58 MESZ</text><g class="highcharts-legend highcharts-no-tooltip" data-z-index="7" transform="translate(410,521)"><rect fill="none" class="highcharts-legend-box" rx="0" ry="0" stroke="#999999" stroke-width="0" filter="none" x="0" y="0" width="204" height="8"></rect><g data-z-index="1"><g><g class="highcharts-legend-item highcharts-column-series highcharts-color-undefined highcharts-series-15" data-z-index="1" transform="translate(0,-5)"><text x="21" style="color: rgb(51, 51, 51); cursor: pointer; font-size: 10px; text-decoration: none; font-weight: bold; fill: rgb(51, 51, 51);" text-anchor="start" data-z-index="2" y="13">Wind Offshore</text><rect x="3" y="4" rx="5" ry="5" width="10" height="10" fill="rgb(155,175,145)" class="highcharts-point" data-z-index="3"></rect></g><g class="highcharts-legend-item highcharts-column-series highcharts-color-undefined highcharts-series-16" data-z-index="1" transform="translate(112.75,-5)"><text x="21" y="13" style="color: rgb(51, 51, 51); cursor: pointer; font-size: 10px; text-decoration: none; font-weight: bold; fill: rgb(51, 51, 51);" text-anchor="start" data-z-index="2">Wind Onshore</text><rect x="3" y="4" rx="5" ry="5" width="10" height="10" fill="rgb(195,215,185)" class="highcharts-point" data-z-index="3"></rect></g></g></g></g><g class="highcharts-axis-labels highcharts-xaxis-labels" data-z-index="7"><text x="83.706349206349" style="color: rgb(51, 51, 51); cursor: default; font-size: 0.8em; fill: rgb(51, 51, 51);" text-anchor="middle" transform="translate(0,0)" y="481" opacity="1">01.01.2026</text><text x="239.37301587302" style="color: rgb(51, 51, 51); cursor: default; font-size: 0.8em; fill: rgb(51, 51, 51);" text-anchor="middle" transform="translate(0,0)" y="481" opacity="1">22.01.2026</text><text x="395.03968253968" style="color: rgb(51, 51, 51); cursor: default; font-size: 0.8em; fill: rgb(51, 51, 51);" text-anchor="middle" transform="translate(0,0)" y="481" opacity="1">12.02.2026</text><text x="550.70634920635" style="color: rgb(51, 51, 51); cursor: default; font-size: 0.8em; fill: rgb(51, 51, 51);" text-anchor="middle" transform="translate(0,0)" y="481" opacity="1">05.03.2026</text><text x="706.37301587302" style="color: rgb(51, 51, 51); cursor: default; font-size: 0.8em; fill: rgb(51, 51, 51);" text-anchor="middle" transform="translate(0,0)" y="481" opacity="1">26.03.2026</text><text x="862.03968253968" style="color: rgb(51, 51, 51); cursor: default; font-size: 0.8em; fill: rgb(51, 51, 51);" text-anchor="middle" transform="translate(0,0)" y="481" opacity="1">16.04.2026</text></g><g class="highcharts-axis-labels highcharts-yaxis-labels" data-z-index="7"><text x="65" style="color: rgb(102, 102, 102); cursor: default; font-size: 0.8em; fill: rgb(102, 102, 102);" text-anchor="end" transform="translate(0,0)" y="458" opacity="1">0</text><text x="65" style="color: rgb(102, 102, 102); cursor: default; font-size: 0.8em; fill: rgb(102, 102, 102);" text-anchor="end" transform="translate(0,0)" y="393" opacity="1">200</text><text x="65" style="color: rgb(102, 102, 102); cursor: default; font-size: 0.8em; fill: rgb(102, 102, 102);" text-anchor="end" transform="translate(0,0)" y="328" opacity="1">400</text><text x="65" style="color: rgb(102, 102, 102); cursor: default; font-size: 0.8em; fill: rgb(102, 102, 102);" text-anchor="end" transform="translate(0,0)" y="264" opacity="1">600</text><text x="65" style="color: rgb(102, 102, 102); cursor: default; font-size: 0.8em; fill: rgb(102, 102, 102);" text-anchor="end" transform="translate(0,0)" y="199" opacity="1">800</text><text x="65" style="color: rgb(102, 102, 102); cursor: default; font-size: 0.8em; fill: rgb(102, 102, 102);" text-anchor="end" transform="translate(0,0)" y="134" opacity="1">1000</text><text x="65" style="color: rgb(102, 102, 102); cursor: default; font-size: 0.8em; fill: rgb(102, 102, 102);" text-anchor="end" transform="translate(0,0)" y="70" opacity="1">1200</text></g></svg>